solid OpenSCAD_Model
  facet normal -0.36811 0.929782 0
    outer loop
      vertex -15.4508 47.5528 -10
      vertex -21.289 45.2414 0
      vertex -15.4508 47.5528 0
    endloop
  endfacet
  facet normal -0.36811 0.929782 0
    outer loop
      vertex -21.289 45.2414 0
      vertex -15.4508 47.5528 -10
      vertex -21.289 45.2414 -10
    endloop
  endfacet
  facet normal 0.98229 0.187369 0
    outer loop
      vertex 49.6057 6.26666 0
      vertex 48.4292 12.4345 -10
      vertex 48.4292 12.4345 0
    endloop
  endfacet
  facet normal 0.98229 0.187369 0
    outer loop
      vertex 48.4292 12.4345 -10
      vertex 49.6057 6.26666 0
      vertex 49.6057 6.26666 -10
    endloop
  endfacet
  facet normal 0.998026 0.0627961 0
    outer loop
      vertex 50 0 0
      vertex 49.6057 6.26666 -10
      vertex 49.6057 6.26666 0
    endloop
  endfacet
  facet normal 0.998026 0.0627961 0
    outer loop
      vertex 49.6057 6.26666 -10
      vertex 50 0 0
      vertex 50 0 -10
    endloop
  endfacet
  facet normal 0.770507 -0.637431 0
    outer loop
      vertex 36.4484 -34.2274 0
      vertex 40.4509 -29.3893 -10
      vertex 40.4509 -29.3893 0
    endloop
  endfacet
  facet normal 0.770507 -0.637431 0
    outer loop
      vertex 40.4509 -29.3893 -10
      vertex 36.4484 -34.2274 0
      vertex 36.4484 -34.2274 -10
    endloop
  endfacet
  facet normal 0.36811 0.929782 -0
    outer loop
      vertex 21.289 45.2414 -10
      vertex 15.4508 47.5528 0
      vertex 21.289 45.2414 0
    endloop
  endfacet
  facet normal 0.36811 0.929782 0
    outer loop
      vertex 15.4508 47.5528 0
      vertex 21.289 45.2414 -10
      vertex 15.4508 47.5528 -10
    endloop
  endfacet
  facet normal 0.36811 -0.929782 0
    outer loop
      vertex 15.4508 -47.5528 -10
      vertex 21.289 -45.2414 0
      vertex 15.4508 -47.5528 0
    endloop
  endfacet
  facet normal 0.36811 -0.929782 0
    outer loop
      vertex 21.289 -45.2414 0
      vertex 15.4508 -47.5528 -10
      vertex 21.289 -45.2414 -10
    endloop
  endfacet
  facet normal 0.951053 -0.309028 0
    outer loop
      vertex 46.4888 -18.4062 0
      vertex 48.4292 -12.4345 -10
      vertex 48.4292 -12.4345 0
    endloop
  endfacet
  facet normal 0.951053 -0.309028 0
    outer loop
      vertex 48.4292 -12.4345 -10
      vertex 46.4888 -18.4062 0
      vertex 46.4888 -18.4062 -10
    endloop
  endfacet
  facet normal -0.844335 -0.535816 0
    outer loop
      vertex -40.4509 -29.3893 -10
      vertex -43.8153 -24.0877 0
      vertex -43.8153 -24.0877 -10
    endloop
  endfacet
  facet normal -0.844335 -0.535816 0
    outer loop
      vertex -43.8153 -24.0877 0
      vertex -40.4509 -29.3893 -10
      vertex -40.4509 -29.3893 0
    endloop
  endfacet
  facet normal 0.248701 -0.96858 0
    outer loop
      vertex 9.36907 -49.1144 -10
      vertex 15.4508 -47.5528 0
      vertex 9.36907 -49.1144 0
    endloop
  endfacet
  facet normal 0.248701 -0.96858 0
    outer loop
      vertex 15.4508 -47.5528 0
      vertex 9.36907 -49.1144 -10
      vertex 15.4508 -47.5528 -10
    endloop
  endfacet
  facet normal -0.904828 -0.425778 0
    outer loop
      vertex -43.8153 -24.0877 -10
      vertex -46.4888 -18.4062 0
      vertex -46.4888 -18.4062 -10
    endloop
  endfacet
  facet normal -0.904828 -0.425778 0
    outer loop
      vertex -46.4888 -18.4062 0
      vertex -43.8153 -24.0877 -10
      vertex -43.8153 -24.0877 0
    endloop
  endfacet
  facet normal 0.587779 -0.809022 0
    outer loop
      vertex 26.7913 -42.2164 -10
      vertex 31.8712 -38.5257 0
      vertex 26.7913 -42.2164 0
    endloop
  endfacet
  facet normal 0.587779 -0.809022 0
    outer loop
      vertex 31.8712 -38.5257 0
      vertex 26.7913 -42.2164 -10
      vertex 31.8712 -38.5257 -10
    endloop
  endfacet
  facet normal 0.684549 0.728967 -0
    outer loop
      vertex 36.4484 34.2274 -10
      vertex 31.8712 38.5257 0
      vertex 36.4484 34.2274 0
    endloop
  endfacet
  facet normal 0.684549 0.728967 0
    outer loop
      vertex 31.8712 38.5257 0
      vertex 36.4484 34.2274 -10
      vertex 31.8712 38.5257 -10
    endloop
  endfacet
  facet normal 0.481764 0.876301 -0
    outer loop
      vertex 26.7913 42.2164 -10
      vertex 21.289 45.2414 0
      vertex 26.7913 42.2164 0
    endloop
  endfacet
  facet normal 0.481764 0.876301 0
    outer loop
      vertex 21.289 45.2414 0
      vertex 26.7913 42.2164 -10
      vertex 21.289 45.2414 -10
    endloop
  endfacet
  facet normal -0.951053 0.309028 0
    outer loop
      vertex -48.4292 12.4345 -10
      vertex -46.4888 18.4062 0
      vertex -46.4888 18.4062 -10
    endloop
  endfacet
  facet normal -0.951053 0.309028 0
    outer loop
      vertex -46.4888 18.4062 0
      vertex -48.4292 12.4345 -10
      vertex -48.4292 12.4345 0
    endloop
  endfacet
  facet normal 0 0 1
    outer loop
      vertex 15 0 0
      vertex 50 0 0
      vertex 49.6057 6.26666 0
    endloop
  endfacet
  facet normal 0 0 1
    outer loop
      vertex 14.8817 1.87999 0
      vertex 49.6057 6.26666 0
      vertex 48.4292 12.4345 0
    endloop
  endfacet
  facet normal 0 0 1
    outer loop
      vertex 50 0 0
      vertex 15 0 0
      vertex 49.6057 -6.26666 0
    endloop
  endfacet
  facet normal 0 0 1
    outer loop
      vertex 14.5287 3.73035 0
      vertex 48.4292 12.4345 0
      vertex 46.4888 18.4062 0
    endloop
  endfacet
  facet normal -0 0 1
    outer loop
      vertex 14.8817 -1.87999 0
      vertex 49.6057 -6.26666 0
      vertex 15 0 0
    endloop
  endfacet
  facet normal 0 0 1
    outer loop
      vertex 13.9466 5.52187 0
      vertex 46.4888 18.4062 0
      vertex 43.8153 24.0877 0
    endloop
  endfacet
  facet normal 0 0 1
    outer loop
      vertex 49.6057 -6.26666 0
      vertex 14.8817 -1.87999 0
      vertex 48.4292 -12.4345 0
    endloop
  endfacet
  facet normal 0 0 1
    outer loop
      vertex 13.1446 7.2263 0
      vertex 43.8153 24.0877 0
      vertex 40.4509 29.3893 0
    endloop
  endfacet
  facet normal -0 0 1
    outer loop
      vertex 14.5287 -3.73035 0
      vertex 48.4292 -12.4345 0
      vertex 14.8817 -1.87999 0
    endloop
  endfacet
  facet normal 0 0 1
    outer loop
      vertex 12.1353 8.81677 0
      vertex 40.4509 29.3893 0
      vertex 36.4484 34.2274 0
    endloop
  endfacet
  facet normal 0 0 1
    outer loop
      vertex 48.4292 -12.4345 0
      vertex 14.5287 -3.73035 0
      vertex 46.4888 -18.4062 0
    endloop
  endfacet
  facet normal 0 0 1
    outer loop
      vertex 10.9345 10.2682 0
      vertex 36.4484 34.2274 0
      vertex 31.8712 38.5257 0
    endloop
  endfacet
  facet normal -0 0 1
    outer loop
      vertex 13.9466 -5.52187 0
      vertex 46.4888 -18.4062 0
      vertex 14.5287 -3.73035 0
    endloop
  endfacet
  facet normal 0 0 1
    outer loop
      vertex 9.56136 11.5577 0
      vertex 31.8712 38.5257 0
      vertex 26.7913 42.2164 0
    endloop
  endfacet
  facet normal 0 0 1
    outer loop
      vertex 46.4888 -18.4062 0
      vertex 13.9466 -5.52187 0
      vertex 43.8153 -24.0877 0
    endloop
  endfacet
  facet normal 0 0 1
    outer loop
      vertex 8.0374 12.6649 0
      vertex 26.7913 42.2164 0
      vertex 21.289 45.2414 0
    endloop
  endfacet
  facet normal -0 0 1
    outer loop
      vertex 13.1446 -7.2263 0
      vertex 43.8153 -24.0877 0
      vertex 13.9466 -5.52187 0
    endloop
  endfacet
  facet normal 0 0 1
    outer loop
      vertex 5 14.1214 0
      vertex 21.289 45.2414 0
      vertex 15.4508 47.5528 0
    endloop
  endfacet
  facet normal 0 0 1
    outer loop
      vertex 43.8153 -24.0877 0
      vertex 13.1446 -7.2263 0
      vertex 40.4509 -29.3893 0
    endloop
  endfacet
  facet normal -0 0 1
    outer loop
      vertex 12.1353 -8.81677 0
      vertex 40.4509 -29.3893 0
      vertex 13.1446 -7.2263 0
    endloop
  endfacet
  facet normal 0 0 1
    outer loop
      vertex 49.6057 6.26666 0
      vertex 14.8817 1.87999 0
      vertex 15 0 0
    endloop
  endfacet
  facet normal 0 0 1
    outer loop
      vertex 48.4292 12.4345 0
      vertex 14.5287 3.73035 0
      vertex 14.8817 1.87999 0
    endloop
  endfacet
  facet normal 0 0 1
    outer loop
      vertex 46.4888 18.4062 0
      vertex 13.9466 5.52187 0
      vertex 14.5287 3.73035 0
    endloop
  endfacet
  facet normal 0 0 1
    outer loop
      vertex 43.8153 24.0877 0
      vertex 13.1446 7.2263 0
      vertex 13.9466 5.52187 0
    endloop
  endfacet
  facet normal 0 0 1
    outer loop
      vertex 40.4509 29.3893 0
      vertex 12.1353 8.81677 0
      vertex 13.1446 7.2263 0
    endloop
  endfacet
  facet normal 0 0 1
    outer loop
      vertex 36.4484 34.2274 0
      vertex 10.9345 10.2682 0
      vertex 12.1353 8.81677 0
    endloop
  endfacet
  facet normal 0 0 1
    outer loop
      vertex 31.8712 38.5257 0
      vertex 9.56136 11.5577 0
      vertex 10.9345 10.2682 0
    endloop
  endfacet
  facet normal 0 0 1
    outer loop
      vertex 5 14.1214 0
      vertex 15.4508 47.5528 0
      vertex 9.36907 49.1144 0
    endloop
  endfacet
  facet normal 0 0 1
    outer loop
      vertex 26.7913 42.2164 0
      vertex 8.0374 12.6649 0
      vertex 9.56136 11.5577 0
    endloop
  endfacet
  facet normal 0 0 1
    outer loop
      vertex 21.289 45.2414 0
      vertex 6.38669 13.5724 0
      vertex 8.0374 12.6649 0
    endloop
  endfacet
  facet normal 0 0 1
    outer loop
      vertex 5 14.1214 0
      vertex 9.36907 49.1144 0
      vertex 5 49.6663 0
    endloop
  endfacet
  facet normal 0 0 -1
    outer loop
      vertex 3.13953 49.9013 0
      vertex 5 49.6663 0
      vertex 9.36907 49.1144 0
    endloop
  endfacet
  facet normal 0 0 1
    outer loop
      vertex 3.13953 49.9013 0
      vertex 3.13951 49.9013 0
      vertex 5 49.6663 0
    endloop
  endfacet
  facet normal 0 0 0
    outer loop
      vertex 3.13953 49.9013 0
      vertex -3.13951 49.9013 0
      vertex 3.13951 49.9013 0
    endloop
  endfacet
  facet normal 0 0 0
    outer loop
      vertex -3.13953 49.9013 0
      vertex -3.13951 49.9013 0
      vertex 3.13953 49.9013 0
    endloop
  endfacet
  facet normal -0 0 1
    outer loop
      vertex -3.13953 49.9013 0
      vertex -5 49.6663 0
      vertex -3.13951 49.9013 0
    endloop
  endfacet
  facet normal -0 0 1
    outer loop
      vertex -9.36907 49.1144 0
      vertex -5 14.1214 0
      vertex -5 49.6663 0
    endloop
  endfacet
  facet normal -0 0 1
    outer loop
      vertex -15.4508 47.5528 0
      vertex -5 14.1214 0
      vertex -9.36907 49.1144 0
    endloop
  endfacet
  facet normal 0 0 -1
    outer loop
      vertex -9.36907 49.1144 0
      vertex -5 49.6663 0
      vertex -3.13953 49.9013 0
    endloop
  endfacet
  facet normal -0 0 1
    outer loop
      vertex -21.289 45.2414 0
      vertex -5 14.1214 0
      vertex -15.4508 47.5528 0
    endloop
  endfacet
  facet normal 0 0 1
    outer loop
      vertex -5 14.1214 0
      vertex -21.289 45.2414 0
      vertex -6.38669 13.5724 0
    endloop
  endfacet
  facet normal 0 0 1
    outer loop
      vertex -6.38669 13.5724 0
      vertex -21.289 45.2414 0
      vertex -8.0374 12.6649 0
    endloop
  endfacet
  facet normal -0 0 1
    outer loop
      vertex -26.7913 42.2164 0
      vertex -8.0374 12.6649 0
      vertex -21.289 45.2414 0
    endloop
  endfacet
  facet normal 0 0 1
    outer loop
      vertex -8.0374 12.6649 0
      vertex -26.7913 42.2164 0
      vertex -9.56136 11.5577 0
    endloop
  endfacet
  facet normal -0 0 1
    outer loop
      vertex -31.8712 38.5257 0
      vertex -9.56136 11.5577 0
      vertex -26.7913 42.2164 0
    endloop
  endfacet
  facet normal 0 0 1
    outer loop
      vertex -9.56136 11.5577 0
      vertex -31.8712 38.5257 0
      vertex -10.9345 10.2682 0
    endloop
  endfacet
  facet normal -0 0 1
    outer loop
      vertex -36.4484 34.2274 0
      vertex -10.9345 10.2682 0
      vertex -31.8712 38.5257 0
    endloop
  endfacet
  facet normal 0 0 1
    outer loop
      vertex -10.9345 10.2682 0
      vertex -36.4484 34.2274 0
      vertex -12.1353 8.81677 0
    endloop
  endfacet
  facet normal -0 0 1
    outer loop
      vertex -40.4509 29.3893 0
      vertex -12.1353 8.81677 0
      vertex -36.4484 34.2274 0
    endloop
  endfacet
  facet normal 0 0 1
    outer loop
      vertex -12.1353 8.81677 0
      vertex -40.4509 29.3893 0
      vertex -13.1446 7.2263 0
    endloop
  endfacet
  facet normal -0 0 1
    outer loop
      vertex -43.8153 24.0877 0
      vertex -13.1446 7.2263 0
      vertex -40.4509 29.3893 0
    endloop
  endfacet
  facet normal 0 0 1
    outer loop
      vertex -13.1446 7.2263 0
      vertex -43.8153 24.0877 0
      vertex -13.9466 5.52187 0
    endloop
  endfacet
  facet normal -0 0 1
    outer loop
      vertex -46.4888 18.4062 0
      vertex -13.9466 5.52187 0
      vertex -43.8153 24.0877 0
    endloop
  endfacet
  facet normal 0 0 1
    outer loop
      vertex -13.9466 5.52187 0
      vertex -46.4888 18.4062 0
      vertex -14.1162 5 0
    endloop
  endfacet
  facet normal -0 0 1
    outer loop
      vertex -48.4292 12.4345 0
      vertex -14.1162 5 0
      vertex -46.4888 18.4062 0
    endloop
  endfacet
  facet normal -0 0 1
    outer loop
      vertex -49.6057 6.26666 0
      vertex -14.1162 5 0
      vertex -48.4292 12.4345 0
    endloop
  endfacet
  facet normal 0 0 1
    outer loop
      vertex -49.6057 6.26666 0
      vertex -49.6854 5 0
      vertex -14.1162 5 0
    endloop
  endfacet
  facet normal 0 -0 -1
    outer loop
      vertex -49.6854 5 0
      vertex -49.6057 6.26666 0
      vertex -50 0 0
    endloop
  endfacet
  facet normal 0 0 1
    outer loop
      vertex 40.4509 -29.3893 0
      vertex 12.1353 -8.81677 0
      vertex 36.4484 -34.2274 0
    endloop
  endfacet
  facet normal -0 0 1
    outer loop
      vertex 10.9345 -10.2682 0
      vertex 36.4484 -34.2274 0
      vertex 12.1353 -8.81677 0
    endloop
  endfacet
  facet normal 0 0 1
    outer loop
      vertex 36.4484 -34.2274 0
      vertex 10.9345 -10.2682 0
      vertex 31.8712 -38.5257 0
    endloop
  endfacet
  facet normal -0 0 1
    outer loop
      vertex 9.56136 -11.5577 0
      vertex 31.8712 -38.5257 0
      vertex 10.9345 -10.2682 0
    endloop
  endfacet
  facet normal 0 0 1
    outer loop
      vertex 31.8712 -38.5257 0
      vertex 9.56136 -11.5577 0
      vertex 26.7913 -42.2164 0
    endloop
  endfacet
  facet normal -0 0 1
    outer loop
      vertex 8.0374 -12.6649 0
      vertex 26.7913 -42.2164 0
      vertex 9.56136 -11.5577 0
    endloop
  endfacet
  facet normal 0 0 1
    outer loop
      vertex 26.7913 -42.2164 0
      vertex 8.0374 -12.6649 0
      vertex 21.289 -45.2414 0
    endloop
  endfacet
  facet normal -0 0 1
    outer loop
      vertex 6.38669 -13.5724 0
      vertex 21.289 -45.2414 0
      vertex 8.0374 -12.6649 0
    endloop
  endfacet
  facet normal 0 0 1
    outer loop
      vertex 21.289 -45.2414 0
      vertex 6.38669 -13.5724 0
      vertex 15.4508 -47.5528 0
    endloop
  endfacet
  facet normal -0 0 1
    outer loop
      vertex 4.63525 -14.2658 0
      vertex 15.4508 -47.5528 0
      vertex 6.38669 -13.5724 0
    endloop
  endfacet
  facet normal 0 0 1
    outer loop
      vertex 15.4508 -47.5528 0
      vertex 4.63525 -14.2658 0
      vertex 9.36907 -49.1144 0
    endloop
  endfacet
  facet normal -0 0 1
    outer loop
      vertex 2.81071 -14.7343 0
      vertex 9.36907 -49.1144 0
      vertex 4.63525 -14.2658 0
    endloop
  endfacet
  facet normal 0 0 1
    outer loop
      vertex 9.36907 -49.1144 0
      vertex 2.81071 -14.7343 0
      vertex 3.13953 -49.9013 0
    endloop
  endfacet
  facet normal -0 0 1
    outer loop
      vertex 0.941849 -14.9704 0
      vertex 3.13953 -49.9013 0
      vertex 2.81071 -14.7343 0
    endloop
  endfacet
  facet normal -0 0 1
    outer loop
      vertex -0.941849 -14.9704 0
      vertex 3.13953 -49.9013 0
      vertex 0.941849 -14.9704 0
    endloop
  endfacet
  facet normal 0 0 1
    outer loop
      vertex -3.13953 -49.9013 0
      vertex -0.941849 -14.9704 0
      vertex -2.81071 -14.7343 0
    endloop
  endfacet
  facet normal 0 0 1
    outer loop
      vertex -0.941849 -14.9704 0
      vertex -3.13953 -49.9013 0
      vertex 3.13953 -49.9013 0
    endloop
  endfacet
  facet normal 0 0 1
    outer loop
      vertex -9.36907 -49.1144 0
      vertex -2.81071 -14.7343 0
      vertex -4.63525 -14.2658 0
    endloop
  endfacet
  facet normal 0 0 1
    outer loop
      vertex -15.4508 -47.5528 0
      vertex -4.63525 -14.2658 0
      vertex -6.38669 -13.5724 0
    endloop
  endfacet
  facet normal 0 0 1
    outer loop
      vertex -21.289 -45.2414 0
      vertex -6.38669 -13.5724 0
      vertex -8.0374 -12.6649 0
    endloop
  endfacet
  facet normal 0 0 1
    outer loop
      vertex -2.81071 -14.7343 0
      vertex -9.36907 -49.1144 0
      vertex -3.13953 -49.9013 0
    endloop
  endfacet
  facet normal 0 0 1
    outer loop
      vertex -26.7913 -42.2164 0
      vertex -8.0374 -12.6649 0
      vertex -9.56136 -11.5577 0
    endloop
  endfacet
  facet normal 0 0 1
    outer loop
      vertex -31.8712 -38.5257 0
      vertex -9.56136 -11.5577 0
      vertex -10.9345 -10.2682 0
    endloop
  endfacet
  facet normal 0 0 1
    outer loop
      vertex -36.4484 -34.2274 0
      vertex -10.9345 -10.2682 0
      vertex -12.1353 -8.81677 0
    endloop
  endfacet
  facet normal 0 0 1
    outer loop
      vertex -40.4509 -29.3893 0
      vertex -12.1353 -8.81677 0
      vertex -13.1446 -7.2263 0
    endloop
  endfacet
  facet normal 0 0 1
    outer loop
      vertex -43.8153 -24.0877 0
      vertex -13.1446 -7.2263 0
      vertex -13.9466 -5.52187 0
    endloop
  endfacet
  facet normal 0 0 1
    outer loop
      vertex -46.4888 -18.4062 0
      vertex -13.9466 -5.52187 0
      vertex -14.1162 -5 0
    endloop
  endfacet
  facet normal 0 0 1
    outer loop
      vertex -4.63525 -14.2658 0
      vertex -15.4508 -47.5528 0
      vertex -9.36907 -49.1144 0
    endloop
  endfacet
  facet normal 0 0 1
    outer loop
      vertex -6.38669 -13.5724 0
      vertex -21.289 -45.2414 0
      vertex -15.4508 -47.5528 0
    endloop
  endfacet
  facet normal 0 0 1
    outer loop
      vertex -8.0374 -12.6649 0
      vertex -26.7913 -42.2164 0
      vertex -21.289 -45.2414 0
    endloop
  endfacet
  facet normal 0 0 1
    outer loop
      vertex -9.56136 -11.5577 0
      vertex -31.8712 -38.5257 0
      vertex -26.7913 -42.2164 0
    endloop
  endfacet
  facet normal 0 0 1
    outer loop
      vertex -10.9345 -10.2682 0
      vertex -36.4484 -34.2274 0
      vertex -31.8712 -38.5257 0
    endloop
  endfacet
  facet normal 0 0 1
    outer loop
      vertex -12.1353 -8.81677 0
      vertex -40.4509 -29.3893 0
      vertex -36.4484 -34.2274 0
    endloop
  endfacet
  facet normal 0 0 1
    outer loop
      vertex -13.1446 -7.2263 0
      vertex -43.8153 -24.0877 0
      vertex -40.4509 -29.3893 0
    endloop
  endfacet
  facet normal 0 0 1
    outer loop
      vertex -13.9466 -5.52187 0
      vertex -46.4888 -18.4062 0
      vertex -43.8153 -24.0877 0
    endloop
  endfacet
  facet normal 0 0 1
    outer loop
      vertex -14.1162 -5 0
      vertex -48.4292 -12.4345 0
      vertex -46.4888 -18.4062 0
    endloop
  endfacet
  facet normal 0 0 1
    outer loop
      vertex -14.1162 -5 0
      vertex -49.6057 -6.26666 0
      vertex -48.4292 -12.4345 0
    endloop
  endfacet
  facet normal -0 0 1
    outer loop
      vertex -49.6854 -5 0
      vertex -49.6057 -6.26666 0
      vertex -14.1162 -5 0
    endloop
  endfacet
  facet normal 0 0 -1
    outer loop
      vertex -49.6057 -6.26666 0
      vertex -49.6854 -5 0
      vertex -50 0 0
    endloop
  endfacet
  facet normal 0 0 1
    outer loop
      vertex 21.289 45.2414 0
      vertex 5 14.1214 0
      vertex 6.38669 13.5724 0
    endloop
  endfacet
  facet normal 0.844335 -0.535816 0
    outer loop
      vertex 40.4509 -29.3893 0
      vertex 43.8153 -24.0877 -10
      vertex 43.8153 -24.0877 0
    endloop
  endfacet
  facet normal 0.844335 -0.535816 0
    outer loop
      vertex 43.8153 -24.0877 -10
      vertex 40.4509 -29.3893 0
      vertex 40.4509 -29.3893 -10
    endloop
  endfacet
  facet normal -0.481764 0.876301 0
    outer loop
      vertex -21.289 45.2414 -10
      vertex -26.7913 42.2164 0
      vertex -21.289 45.2414 0
    endloop
  endfacet
  facet normal -0.481764 0.876301 0
    outer loop
      vertex -26.7913 42.2164 0
      vertex -21.289 45.2414 -10
      vertex -26.7913 42.2164 -10
    endloop
  endfacet
  facet normal 0.481764 -0.876301 0
    outer loop
      vertex 21.289 -45.2414 -10
      vertex 26.7913 -42.2164 0
      vertex 21.289 -45.2414 0
    endloop
  endfacet
  facet normal 0.481764 -0.876301 0
    outer loop
      vertex 26.7913 -42.2164 0
      vertex 21.289 -45.2414 -10
      vertex 26.7913 -42.2164 -10
    endloop
  endfacet
  facet normal -0.36811 -0.929782 0
    outer loop
      vertex -21.289 -45.2414 -10
      vertex -15.4508 -47.5528 0
      vertex -21.289 -45.2414 0
    endloop
  endfacet
  facet normal -0.36811 -0.929782 -0
    outer loop
      vertex -15.4508 -47.5528 0
      vertex -21.289 -45.2414 -10
      vertex -15.4508 -47.5528 -10
    endloop
  endfacet
  facet normal -0.587779 0.809022 0
    outer loop
      vertex -26.7913 42.2164 -10
      vertex -31.8712 38.5257 0
      vertex -26.7913 42.2164 0
    endloop
  endfacet
  facet normal -0.587779 0.809022 0
    outer loop
      vertex -31.8712 38.5257 0
      vertex -26.7913 42.2164 -10
      vertex -31.8712 38.5257 -10
    endloop
  endfacet
  facet normal 0.125322 -0.992116 0
    outer loop
      vertex 3.13953 -49.9013 -10
      vertex 9.36907 -49.1144 0
      vertex 3.13953 -49.9013 0
    endloop
  endfacet
  facet normal 0.125322 -0.992116 0
    outer loop
      vertex 9.36907 -49.1144 0
      vertex 3.13953 -49.9013 -10
      vertex 9.36907 -49.1144 -10
    endloop
  endfacet
  facet normal 0.98229 -0.187369 0
    outer loop
      vertex 48.4292 -12.4345 0
      vertex 49.6057 -6.26666 -10
      vertex 49.6057 -6.26666 0
    endloop
  endfacet
  facet normal 0.98229 -0.187369 0
    outer loop
      vertex 49.6057 -6.26666 -10
      vertex 48.4292 -12.4345 0
      vertex 48.4292 -12.4345 -10
    endloop
  endfacet
  facet normal 0.125322 0.992116 -0
    outer loop
      vertex 9.36907 49.1144 -10
      vertex 3.13953 49.9013 0
      vertex 9.36907 49.1144 0
    endloop
  endfacet
  facet normal 0.125322 0.992116 0
    outer loop
      vertex 3.13953 49.9013 0
      vertex 9.36907 49.1144 -10
      vertex 3.13953 49.9013 -10
    endloop
  endfacet
  facet normal -0.951053 -0.309028 0
    outer loop
      vertex -46.4888 -18.4062 -10
      vertex -48.4292 -12.4345 0
      vertex -48.4292 -12.4345 -10
    endloop
  endfacet
  facet normal -0.951053 -0.309028 0
    outer loop
      vertex -48.4292 -12.4345 0
      vertex -46.4888 -18.4062 -10
      vertex -46.4888 -18.4062 0
    endloop
  endfacet
  facet normal -0.98229 -0.187369 0
    outer loop
      vertex -48.4292 -12.4345 -10
      vertex -49.6057 -6.26666 0
      vertex -49.6057 -6.26666 -10
    endloop
  endfacet
  facet normal -0.98229 -0.187369 0
    outer loop
      vertex -49.6057 -6.26666 0
      vertex -48.4292 -12.4345 -10
      vertex -48.4292 -12.4345 0
    endloop
  endfacet
  facet normal 0.844335 0.535816 0
    outer loop
      vertex 43.8153 24.0877 0
      vertex 40.4509 29.3893 -10
      vertex 40.4509 29.3893 0
    endloop
  endfacet
  facet normal 0.844335 0.535816 0
    outer loop
      vertex 40.4509 29.3893 -10
      vertex 43.8153 24.0877 0
      vertex 43.8153 24.0877 -10
    endloop
  endfacet
  facet normal -0.125322 0.992116 0
    outer loop
      vertex -3.13953 49.9013 -10
      vertex -9.36907 49.1144 0
      vertex -3.13953 49.9013 0
    endloop
  endfacet
  facet normal -0.125322 0.992116 0
    outer loop
      vertex -9.36907 49.1144 0
      vertex -3.13953 49.9013 -10
      vertex -9.36907 49.1144 -10
    endloop
  endfacet
  facet normal 0.998026 -0.0627961 0
    outer loop
      vertex 49.6057 -6.26666 0
      vertex 50 0 -10
      vertex 50 0 0
    endloop
  endfacet
  facet normal 0.998026 -0.0627961 0
    outer loop
      vertex 50 0 -10
      vertex 49.6057 -6.26666 0
      vertex 49.6057 -6.26666 -10
    endloop
  endfacet
  facet normal -0.684549 -0.728967 0
    outer loop
      vertex -36.4484 -34.2274 -10
      vertex -31.8712 -38.5257 0
      vertex -36.4484 -34.2274 0
    endloop
  endfacet
  facet normal -0.684549 -0.728967 -0
    outer loop
      vertex -31.8712 -38.5257 0
      vertex -36.4484 -34.2274 -10
      vertex -31.8712 -38.5257 -10
    endloop
  endfacet
  facet normal -0.998026 -0.0627961 0
    outer loop
      vertex -49.6057 -6.26666 -10
      vertex -50 0 0
      vertex -50 0 -10
    endloop
  endfacet
  facet normal -0.998026 -0.0627961 0
    outer loop
      vertex -50 0 0
      vertex -49.6057 -6.26666 -10
      vertex -49.6057 -6.26666 0
    endloop
  endfacet
  facet normal 0.770507 0.637431 0
    outer loop
      vertex 40.4509 29.3893 0
      vertex 36.4484 34.2274 -10
      vertex 36.4484 34.2274 0
    endloop
  endfacet
  facet normal 0.770507 0.637431 0
    outer loop
      vertex 36.4484 34.2274 -10
      vertex 40.4509 29.3893 0
      vertex 40.4509 29.3893 -10
    endloop
  endfacet
  facet normal -0.481764 -0.876301 0
    outer loop
      vertex -26.7913 -42.2164 -10
      vertex -21.289 -45.2414 0
      vertex -26.7913 -42.2164 0
    endloop
  endfacet
  facet normal -0.481764 -0.876301 -0
    outer loop
      vertex -21.289 -45.2414 0
      vertex -26.7913 -42.2164 -10
      vertex -21.289 -45.2414 -10
    endloop
  endfacet
  facet normal 0.904828 -0.425778 0
    outer loop
      vertex 43.8153 -24.0877 0
      vertex 46.4888 -18.4062 -10
      vertex 46.4888 -18.4062 0
    endloop
  endfacet
  facet normal 0.904828 -0.425778 0
    outer loop
      vertex 46.4888 -18.4062 -10
      vertex 43.8153 -24.0877 0
      vertex 43.8153 -24.0877 -10
    endloop
  endfacet
  facet normal 0 1 -0
    outer loop
      vertex 3.13953 49.9013 -10
      vertex -3.13953 49.9013 0
      vertex 3.13953 49.9013 0
    endloop
  endfacet
  facet normal 0 1 0
    outer loop
      vertex -3.13953 49.9013 0
      vertex 3.13953 49.9013 -10
      vertex -3.13953 49.9013 -10
    endloop
  endfacet
  facet normal 0.684549 -0.728967 0
    outer loop
      vertex 31.8712 -38.5257 -10
      vertex 36.4484 -34.2274 0
      vertex 31.8712 -38.5257 0
    endloop
  endfacet
  facet normal 0.684549 -0.728967 0
    outer loop
      vertex 36.4484 -34.2274 0
      vertex 31.8712 -38.5257 -10
      vertex 36.4484 -34.2274 -10
    endloop
  endfacet
  facet normal -0.770507 -0.637431 0
    outer loop
      vertex -36.4484 -34.2274 -10
      vertex -40.4509 -29.3893 0
      vertex -40.4509 -29.3893 -10
    endloop
  endfacet
  facet normal -0.770507 -0.637431 0
    outer loop
      vertex -40.4509 -29.3893 0
      vertex -36.4484 -34.2274 -10
      vertex -36.4484 -34.2274 0
    endloop
  endfacet
  facet normal 0.587779 0.809022 -0
    outer loop
      vertex 31.8712 38.5257 -10
      vertex 26.7913 42.2164 0
      vertex 31.8712 38.5257 0
    endloop
  endfacet
  facet normal 0.587779 0.809022 0
    outer loop
      vertex 26.7913 42.2164 0
      vertex 31.8712 38.5257 -10
      vertex 26.7913 42.2164 -10
    endloop
  endfacet
  facet normal -0.248701 -0.96858 0
    outer loop
      vertex -15.4508 -47.5528 -10
      vertex -9.36907 -49.1144 0
      vertex -15.4508 -47.5528 0
    endloop
  endfacet
  facet normal -0.248701 -0.96858 -0
    outer loop
      vertex -9.36907 -49.1144 0
      vertex -15.4508 -47.5528 -10
      vertex -9.36907 -49.1144 -10
    endloop
  endfacet
  facet normal 0.248701 0.96858 -0
    outer loop
      vertex 15.4508 47.5528 -10
      vertex 9.36907 49.1144 0
      vertex 15.4508 47.5528 0
    endloop
  endfacet
  facet normal 0.248701 0.96858 0
    outer loop
      vertex 9.36907 49.1144 0
      vertex 15.4508 47.5528 -10
      vertex 9.36907 49.1144 -10
    endloop
  endfacet
  facet normal -0.844335 0.535816 0
    outer loop
      vertex -43.8153 24.0877 -10
      vertex -40.4509 29.3893 0
      vertex -40.4509 29.3893 -10
    endloop
  endfacet
  facet normal -0.844335 0.535816 0
    outer loop
      vertex -40.4509 29.3893 0
      vertex -43.8153 24.0877 -10
      vertex -43.8153 24.0877 0
    endloop
  endfacet
  facet normal 0 0 -1
    outer loop
      vertex 4 0 -10
      vertex 50 0 -10
      vertex 49.6057 -6.26666 -10
    endloop
  endfacet
  facet normal 0 0 -1
    outer loop
      vertex 3.96846 -0.501332 -10
      vertex 49.6057 -6.26666 -10
      vertex 48.4292 -12.4345 -10
    endloop
  endfacet
  facet normal 0 0 -1
    outer loop
      vertex 50 0 -10
      vertex 4 0 -10
      vertex 49.6057 6.26666 -10
    endloop
  endfacet
  facet normal 0 0 -1
    outer loop
      vertex 3.87433 -0.994759 -10
      vertex 48.4292 -12.4345 -10
      vertex 46.4888 -18.4062 -10
    endloop
  endfacet
  facet normal 0 0 -1
    outer loop
      vertex 3.96846 0.501332 -10
      vertex 49.6057 6.26666 -10
      vertex 4 0 -10
    endloop
  endfacet
  facet normal 0 0 -1
    outer loop
      vertex 3.71911 -1.4725 -10
      vertex 46.4888 -18.4062 -10
      vertex 43.8153 -24.0877 -10
    endloop
  endfacet
  facet normal -0 0 -1
    outer loop
      vertex 49.6057 6.26666 -10
      vertex 3.96846 0.501332 -10
      vertex 48.4292 12.4345 -10
    endloop
  endfacet
  facet normal 0 0 -1
    outer loop
      vertex 3.50523 -1.92701 -10
      vertex 43.8153 -24.0877 -10
      vertex 40.4509 -29.3893 -10
    endloop
  endfacet
  facet normal 0 0 -1
    outer loop
      vertex 3.87433 0.994759 -10
      vertex 48.4292 12.4345 -10
      vertex 3.96846 0.501332 -10
    endloop
  endfacet
  facet normal 0 0 -1
    outer loop
      vertex 3.23607 -2.35114 -10
      vertex 40.4509 -29.3893 -10
      vertex 36.4484 -34.2274 -10
    endloop
  endfacet
  facet normal -0 0 -1
    outer loop
      vertex 48.4292 12.4345 -10
      vertex 3.87433 0.994759 -10
      vertex 46.4888 18.4062 -10
    endloop
  endfacet
  facet normal 0 0 -1
    outer loop
      vertex 2.91587 -2.73819 -10
      vertex 36.4484 -34.2274 -10
      vertex 31.8712 -38.5257 -10
    endloop
  endfacet
  facet normal 0 0 -1
    outer loop
      vertex 3.71911 1.4725 -10
      vertex 46.4888 18.4062 -10
      vertex 3.87433 0.994759 -10
    endloop
  endfacet
  facet normal 0 0 -1
    outer loop
      vertex 2.5497 -3.08205 -10
      vertex 31.8712 -38.5257 -10
      vertex 26.7913 -42.2164 -10
    endloop
  endfacet
  facet normal -0 0 -1
    outer loop
      vertex 46.4888 18.4062 -10
      vertex 3.71911 1.4725 -10
      vertex 43.8153 24.0877 -10
    endloop
  endfacet
  facet normal 0 0 -1
    outer loop
      vertex 2.14331 -3.37731 -10
      vertex 26.7913 -42.2164 -10
      vertex 21.289 -45.2414 -10
    endloop
  endfacet
  facet normal 0 0 -1
    outer loop
      vertex 3.50523 1.92701 -10
      vertex 43.8153 24.0877 -10
      vertex 3.71911 1.4725 -10
    endloop
  endfacet
  facet normal 0 0 -1
    outer loop
      vertex 1.70312 -3.61931 -10
      vertex 21.289 -45.2414 -10
      vertex 15.4508 -47.5528 -10
    endloop
  endfacet
  facet normal -0 0 -1
    outer loop
      vertex 43.8153 24.0877 -10
      vertex 3.50523 1.92701 -10
      vertex 40.4509 29.3893 -10
    endloop
  endfacet
  facet normal 0 0 -1
    outer loop
      vertex 1.23607 -3.80423 -10
      vertex 15.4508 -47.5528 -10
      vertex 9.36907 -49.1144 -10
    endloop
  endfacet
  facet normal 0 0 -1
    outer loop
      vertex 3.23607 2.35114 -10
      vertex 40.4509 29.3893 -10
      vertex 3.50523 1.92701 -10
    endloop
  endfacet
  facet normal -0 0 -1
    outer loop
      vertex 40.4509 29.3893 -10
      vertex 3.23607 2.35114 -10
      vertex 36.4484 34.2274 -10
    endloop
  endfacet
  facet normal 0 0 -1
    outer loop
      vertex 49.6057 -6.26666 -10
      vertex 3.96846 -0.501332 -10
      vertex 4 0 -10
    endloop
  endfacet
  facet normal 0 0 -1
    outer loop
      vertex 48.4292 -12.4345 -10
      vertex 3.87433 -0.994759 -10
      vertex 3.96846 -0.501332 -10
    endloop
  endfacet
  facet normal 0 0 -1
    outer loop
      vertex 46.4888 -18.4062 -10
      vertex 3.71911 -1.4725 -10
      vertex 3.87433 -0.994759 -10
    endloop
  endfacet
  facet normal 0 0 -1
    outer loop
      vertex 43.8153 -24.0877 -10
      vertex 3.50523 -1.92701 -10
      vertex 3.71911 -1.4725 -10
    endloop
  endfacet
  facet normal 0 0 -1
    outer loop
      vertex 40.4509 -29.3893 -10
      vertex 3.23607 -2.35114 -10
      vertex 3.50523 -1.92701 -10
    endloop
  endfacet
  facet normal 0 0 -1
    outer loop
      vertex 0.749525 -3.92915 -10
      vertex 9.36907 -49.1144 -10
      vertex 3.13953 -49.9013 -10
    endloop
  endfacet
  facet normal 0 0 -1
    outer loop
      vertex 36.4484 -34.2274 -10
      vertex 2.91587 -2.73819 -10
      vertex 3.23607 -2.35114 -10
    endloop
  endfacet
  facet normal 0 0 -1
    outer loop
      vertex 31.8712 -38.5257 -10
      vertex 2.5497 -3.08205 -10
      vertex 2.91587 -2.73819 -10
    endloop
  endfacet
  facet normal 0 0 -1
    outer loop
      vertex 26.7913 -42.2164 -10
      vertex 2.14331 -3.37731 -10
      vertex 2.5497 -3.08205 -10
    endloop
  endfacet
  facet normal 0 0 -1
    outer loop
      vertex 21.289 -45.2414 -10
      vertex 1.70312 -3.61931 -10
      vertex 2.14331 -3.37731 -10
    endloop
  endfacet
  facet normal 0 0 -1
    outer loop
      vertex 15.4508 -47.5528 -10
      vertex 1.23607 -3.80423 -10
      vertex 1.70312 -3.61931 -10
    endloop
  endfacet
  facet normal 0 0 -1
    outer loop
      vertex 9.36907 -49.1144 -10
      vertex 0.749525 -3.92915 -10
      vertex 1.23607 -3.80423 -10
    endloop
  endfacet
  facet normal 0 0 -1
    outer loop
      vertex 3.13953 -49.9013 -10
      vertex 0.251162 -3.99211 -10
      vertex 0.749525 -3.92915 -10
    endloop
  endfacet
  facet normal 0 0 -1
    outer loop
      vertex 3.13953 -49.9013 -10
      vertex -0.251162 -3.99211 -10
      vertex 0.251162 -3.99211 -10
    endloop
  endfacet
  facet normal 0 0 -1
    outer loop
      vertex -3.13953 -49.9013 -10
      vertex -0.251162 -3.99211 -10
      vertex 3.13953 -49.9013 -10
    endloop
  endfacet
  facet normal -0 0 -1
    outer loop
      vertex -0.251162 -3.99211 -10
      vertex -3.13953 -49.9013 -10
      vertex -0.749525 -3.92915 -10
    endloop
  endfacet
  facet normal 0 0 -1
    outer loop
      vertex -9.36907 -49.1144 -10
      vertex -0.749525 -3.92915 -10
      vertex -3.13953 -49.9013 -10
    endloop
  endfacet
  facet normal -0 0 -1
    outer loop
      vertex -0.749525 -3.92915 -10
      vertex -9.36907 -49.1144 -10
      vertex -1.23607 -3.80423 -10
    endloop
  endfacet
  facet normal 0 0 -1
    outer loop
      vertex -15.4508 -47.5528 -10
      vertex -1.23607 -3.80423 -10
      vertex -9.36907 -49.1144 -10
    endloop
  endfacet
  facet normal -0 0 -1
    outer loop
      vertex -1.23607 -3.80423 -10
      vertex -15.4508 -47.5528 -10
      vertex -1.70312 -3.61931 -10
    endloop
  endfacet
  facet normal 0 0 -1
    outer loop
      vertex -21.289 -45.2414 -10
      vertex -1.70312 -3.61931 -10
      vertex -15.4508 -47.5528 -10
    endloop
  endfacet
  facet normal -0 0 -1
    outer loop
      vertex -1.70312 -3.61931 -10
      vertex -21.289 -45.2414 -10
      vertex -2.14331 -3.37731 -10
    endloop
  endfacet
  facet normal 0 0 -1
    outer loop
      vertex -26.7913 -42.2164 -10
      vertex -2.14331 -3.37731 -10
      vertex -21.289 -45.2414 -10
    endloop
  endfacet
  facet normal -0 0 -1
    outer loop
      vertex -2.14331 -3.37731 -10
      vertex -26.7913 -42.2164 -10
      vertex -2.5497 -3.08205 -10
    endloop
  endfacet
  facet normal 0 0 -1
    outer loop
      vertex -31.8712 -38.5257 -10
      vertex -2.5497 -3.08205 -10
      vertex -26.7913 -42.2164 -10
    endloop
  endfacet
  facet normal -0 0 -1
    outer loop
      vertex -2.5497 -3.08205 -10
      vertex -31.8712 -38.5257 -10
      vertex -2.91587 -2.73819 -10
    endloop
  endfacet
  facet normal 0 0 -1
    outer loop
      vertex -36.4484 -34.2274 -10
      vertex -2.91587 -2.73819 -10
      vertex -31.8712 -38.5257 -10
    endloop
  endfacet
  facet normal -0 0 -1
    outer loop
      vertex -2.91587 -2.73819 -10
      vertex -36.4484 -34.2274 -10
      vertex -3.23607 -2.35114 -10
    endloop
  endfacet
  facet normal 0 0 -1
    outer loop
      vertex 2.91587 2.73819 -10
      vertex 36.4484 34.2274 -10
      vertex 3.23607 2.35114 -10
    endloop
  endfacet
  facet normal -0 0 -1
    outer loop
      vertex 36.4484 34.2274 -10
      vertex 2.91587 2.73819 -10
      vertex 31.8712 38.5257 -10
    endloop
  endfacet
  facet normal 0 0 -1
    outer loop
      vertex 2.5497 3.08205 -10
      vertex 31.8712 38.5257 -10
      vertex 2.91587 2.73819 -10
    endloop
  endfacet
  facet normal -0 0 -1
    outer loop
      vertex 31.8712 38.5257 -10
      vertex 2.5497 3.08205 -10
      vertex 26.7913 42.2164 -10
    endloop
  endfacet
  facet normal 0 0 -1
    outer loop
      vertex 2.14331 3.37731 -10
      vertex 26.7913 42.2164 -10
      vertex 2.5497 3.08205 -10
    endloop
  endfacet
  facet normal -0 0 -1
    outer loop
      vertex 26.7913 42.2164 -10
      vertex 2.14331 3.37731 -10
      vertex 21.289 45.2414 -10
    endloop
  endfacet
  facet normal 0 0 -1
    outer loop
      vertex 1.70312 3.61931 -10
      vertex 21.289 45.2414 -10
      vertex 2.14331 3.37731 -10
    endloop
  endfacet
  facet normal -0 0 -1
    outer loop
      vertex 21.289 45.2414 -10
      vertex 1.70312 3.61931 -10
      vertex 15.4508 47.5528 -10
    endloop
  endfacet
  facet normal 0 0 -1
    outer loop
      vertex 1.23607 3.80423 -10
      vertex 15.4508 47.5528 -10
      vertex 1.70312 3.61931 -10
    endloop
  endfacet
  facet normal -0 0 -1
    outer loop
      vertex 15.4508 47.5528 -10
      vertex 1.23607 3.80423 -10
      vertex 9.36907 49.1144 -10
    endloop
  endfacet
  facet normal 0 0 -1
    outer loop
      vertex 0.749525 3.92915 -10
      vertex 9.36907 49.1144 -10
      vertex 1.23607 3.80423 -10
    endloop
  endfacet
  facet normal -0 0 -1
    outer loop
      vertex 9.36907 49.1144 -10
      vertex 0.749525 3.92915 -10
      vertex 3.13953 49.9013 -10
    endloop
  endfacet
  facet normal 0 0 -1
    outer loop
      vertex 0.251162 3.99211 -10
      vertex 3.13953 49.9013 -10
      vertex 0.749525 3.92915 -10
    endloop
  endfacet
  facet normal 0 0 -1
    outer loop
      vertex -0.251162 3.99211 -10
      vertex 3.13953 49.9013 -10
      vertex 0.251162 3.99211 -10
    endloop
  endfacet
  facet normal 0 0 -1
    outer loop
      vertex -3.13953 49.9013 -10
      vertex -0.251162 3.99211 -10
      vertex -0.749525 3.92915 -10
    endloop
  endfacet
  facet normal 0 0 -1
    outer loop
      vertex -9.36907 49.1144 -10
      vertex -0.749525 3.92915 -10
      vertex -1.23607 3.80423 -10
    endloop
  endfacet
  facet normal 0 0 -1
    outer loop
      vertex -15.4508 47.5528 -10
      vertex -1.23607 3.80423 -10
      vertex -1.70312 3.61931 -10
    endloop
  endfacet
  facet normal 0 0 -1
    outer loop
      vertex -21.289 45.2414 -10
      vertex -1.70312 3.61931 -10
      vertex -2.14331 3.37731 -10
    endloop
  endfacet
  facet normal 0 0 -1
    outer loop
      vertex -26.7913 42.2164 -10
      vertex -2.14331 3.37731 -10
      vertex -2.5497 3.08205 -10
    endloop
  endfacet
  facet normal 0 0 -1
    outer loop
      vertex -31.8712 38.5257 -10
      vertex -2.5497 3.08205 -10
      vertex -2.91587 2.73819 -10
    endloop
  endfacet
  facet normal 0 0 -1
    outer loop
      vertex -0.251162 3.99211 -10
      vertex -3.13953 49.9013 -10
      vertex 3.13953 49.9013 -10
    endloop
  endfacet
  facet normal 0 0 -1
    outer loop
      vertex -36.4484 34.2274 -10
      vertex -2.91587 2.73819 -10
      vertex -3.23607 2.35114 -10
    endloop
  endfacet
  facet normal 0 0 -1
    outer loop
      vertex -40.4509 29.3893 -10
      vertex -3.23607 2.35114 -10
      vertex -3.50523 1.92701 -10
    endloop
  endfacet
  facet normal 0 0 -1
    outer loop
      vertex -43.8153 24.0877 -10
      vertex -3.50523 1.92701 -10
      vertex -3.71911 1.4725 -10
    endloop
  endfacet
  facet normal 0 0 -1
    outer loop
      vertex -46.4888 18.4062 -10
      vertex -3.71911 1.4725 -10
      vertex -3.87433 0.994759 -10
    endloop
  endfacet
  facet normal 0 0 -1
    outer loop
      vertex -48.4292 12.4345 -10
      vertex -3.87433 0.994759 -10
      vertex -3.96846 0.501332 -10
    endloop
  endfacet
  facet normal 0 0 -1
    outer loop
      vertex -49.6057 6.26666 -10
      vertex -3.96846 0.501332 -10
      vertex -4 0 -10
    endloop
  endfacet
  facet normal 0 0 -1
    outer loop
      vertex -40.4509 -29.3893 -10
      vertex -3.23607 -2.35114 -10
      vertex -36.4484 -34.2274 -10
    endloop
  endfacet
  facet normal 0 0 -1
    outer loop
      vertex -0.749525 3.92915 -10
      vertex -9.36907 49.1144 -10
      vertex -3.13953 49.9013 -10
    endloop
  endfacet
  facet normal -0 0 -1
    outer loop
      vertex -3.23607 -2.35114 -10
      vertex -40.4509 -29.3893 -10
      vertex -3.50523 -1.92701 -10
    endloop
  endfacet
  facet normal 0 0 -1
    outer loop
      vertex -1.23607 3.80423 -10
      vertex -15.4508 47.5528 -10
      vertex -9.36907 49.1144 -10
    endloop
  endfacet
  facet normal 0 0 -1
    outer loop
      vertex -43.8153 -24.0877 -10
      vertex -3.50523 -1.92701 -10
      vertex -40.4509 -29.3893 -10
    endloop
  endfacet
  facet normal 0 0 -1
    outer loop
      vertex -1.70312 3.61931 -10
      vertex -21.289 45.2414 -10
      vertex -15.4508 47.5528 -10
    endloop
  endfacet
  facet normal -0 0 -1
    outer loop
      vertex -3.50523 -1.92701 -10
      vertex -43.8153 -24.0877 -10
      vertex -3.71911 -1.4725 -10
    endloop
  endfacet
  facet normal 0 0 -1
    outer loop
      vertex -2.14331 3.37731 -10
      vertex -26.7913 42.2164 -10
      vertex -21.289 45.2414 -10
    endloop
  endfacet
  facet normal 0 0 -1
    outer loop
      vertex -46.4888 -18.4062 -10
      vertex -3.71911 -1.4725 -10
      vertex -43.8153 -24.0877 -10
    endloop
  endfacet
  facet normal 0 0 -1
    outer loop
      vertex -2.5497 3.08205 -10
      vertex -31.8712 38.5257 -10
      vertex -26.7913 42.2164 -10
    endloop
  endfacet
  facet normal -0 0 -1
    outer loop
      vertex -3.71911 -1.4725 -10
      vertex -46.4888 -18.4062 -10
      vertex -3.87433 -0.994759 -10
    endloop
  endfacet
  facet normal 0 0 -1
    outer loop
      vertex -2.91587 2.73819 -10
      vertex -36.4484 34.2274 -10
      vertex -31.8712 38.5257 -10
    endloop
  endfacet
  facet normal 0 0 -1
    outer loop
      vertex -48.4292 -12.4345 -10
      vertex -3.87433 -0.994759 -10
      vertex -46.4888 -18.4062 -10
    endloop
  endfacet
  facet normal 0 0 -1
    outer loop
      vertex -3.23607 2.35114 -10
      vertex -40.4509 29.3893 -10
      vertex -36.4484 34.2274 -10
    endloop
  endfacet
  facet normal -0 0 -1
    outer loop
      vertex -3.87433 -0.994759 -10
      vertex -48.4292 -12.4345 -10
      vertex -3.96846 -0.501332 -10
    endloop
  endfacet
  facet normal 0 0 -1
    outer loop
      vertex -3.50523 1.92701 -10
      vertex -43.8153 24.0877 -10
      vertex -40.4509 29.3893 -10
    endloop
  endfacet
  facet normal 0 0 -1
    outer loop
      vertex -49.6057 -6.26666 -10
      vertex -3.96846 -0.501332 -10
      vertex -48.4292 -12.4345 -10
    endloop
  endfacet
  facet normal 0 0 -1
    outer loop
      vertex -3.71911 1.4725 -10
      vertex -46.4888 18.4062 -10
      vertex -43.8153 24.0877 -10
    endloop
  endfacet
  facet normal -0 0 -1
    outer loop
      vertex -3.96846 -0.501332 -10
      vertex -49.6057 -6.26666 -10
      vertex -4 0 -10
    endloop
  endfacet
  facet normal 0 0 -1
    outer loop
      vertex -3.87433 0.994759 -10
      vertex -48.4292 12.4345 -10
      vertex -46.4888 18.4062 -10
    endloop
  endfacet
  facet normal 0 0 -1
    outer loop
      vertex -50 0 -10
      vertex -4 0 -10
      vertex -49.6057 -6.26666 -10
    endloop
  endfacet
  facet normal 0 0 -1
    outer loop
      vertex -3.96846 0.501332 -10
      vertex -49.6057 6.26666 -10
      vertex -48.4292 12.4345 -10
    endloop
  endfacet
  facet normal 0 0 -1
    outer loop
      vertex -4 0 -10
      vertex -50 0 -10
      vertex -49.6057 6.26666 -10
    endloop
  endfacet
  facet normal -0.98229 0.187369 0
    outer loop
      vertex -49.6057 6.26666 -10
      vertex -48.4292 12.4345 0
      vertex -48.4292 12.4345 -10
    endloop
  endfacet
  facet normal -0.98229 0.187369 0
    outer loop
      vertex -48.4292 12.4345 0
      vertex -49.6057 6.26666 -10
      vertex -49.6057 6.26666 0
    endloop
  endfacet
  facet normal -0.587779 -0.809022 0
    outer loop
      vertex -31.8712 -38.5257 -10
      vertex -26.7913 -42.2164 0
      vertex -31.8712 -38.5257 0
    endloop
  endfacet
  facet normal -0.587779 -0.809022 -0
    outer loop
      vertex -26.7913 -42.2164 0
      vertex -31.8712 -38.5257 -10
      vertex -26.7913 -42.2164 -10
    endloop
  endfacet
  facet normal -0.998026 0.0627961 0
    outer loop
      vertex -50 0 -10
      vertex -49.6057 6.26666 0
      vertex -49.6057 6.26666 -10
    endloop
  endfacet
  facet normal -0.998026 0.0627961 0
    outer loop
      vertex -49.6057 6.26666 0
      vertex -50 0 -10
      vertex -50 0 0
    endloop
  endfacet
  facet normal -0.904828 0.425778 0
    outer loop
      vertex -46.4888 18.4062 -10
      vertex -43.8153 24.0877 0
      vertex -43.8153 24.0877 -10
    endloop
  endfacet
  facet normal -0.904828 0.425778 0
    outer loop
      vertex -43.8153 24.0877 0
      vertex -46.4888 18.4062 -10
      vertex -46.4888 18.4062 0
    endloop
  endfacet
  facet normal 0.951053 0.309028 0
    outer loop
      vertex 48.4292 12.4345 0
      vertex 46.4888 18.4062 -10
      vertex 46.4888 18.4062 0
    endloop
  endfacet
  facet normal 0.951053 0.309028 0
    outer loop
      vertex 46.4888 18.4062 -10
      vertex 48.4292 12.4345 0
      vertex 48.4292 12.4345 -10
    endloop
  endfacet
  facet normal 0 -1 0
    outer loop
      vertex -3.13953 -49.9013 -10
      vertex 3.13953 -49.9013 0
      vertex -3.13953 -49.9013 0
    endloop
  endfacet
  facet normal 0 -1 -0
    outer loop
      vertex 3.13953 -49.9013 0
      vertex -3.13953 -49.9013 -10
      vertex 3.13953 -49.9013 -10
    endloop
  endfacet
  facet normal -0.684549 0.728967 0
    outer loop
      vertex -31.8712 38.5257 -10
      vertex -36.4484 34.2274 0
      vertex -31.8712 38.5257 0
    endloop
  endfacet
  facet normal -0.684549 0.728967 0
    outer loop
      vertex -36.4484 34.2274 0
      vertex -31.8712 38.5257 -10
      vertex -36.4484 34.2274 -10
    endloop
  endfacet
  facet normal -0.248701 0.96858 0
    outer loop
      vertex -9.36907 49.1144 -10
      vertex -15.4508 47.5528 0
      vertex -9.36907 49.1144 0
    endloop
  endfacet
  facet normal -0.248701 0.96858 0
    outer loop
      vertex -15.4508 47.5528 0
      vertex -9.36907 49.1144 -10
      vertex -15.4508 47.5528 -10
    endloop
  endfacet
  facet normal -0.770507 0.637431 0
    outer loop
      vertex -40.4509 29.3893 -10
      vertex -36.4484 34.2274 0
      vertex -36.4484 34.2274 -10
    endloop
  endfacet
  facet normal -0.770507 0.637431 0
    outer loop
      vertex -36.4484 34.2274 0
      vertex -40.4509 29.3893 -10
      vertex -40.4509 29.3893 0
    endloop
  endfacet
  facet normal 0.904828 0.425778 0
    outer loop
      vertex 46.4888 18.4062 0
      vertex 43.8153 24.0877 -10
      vertex 43.8153 24.0877 0
    endloop
  endfacet
  facet normal 0.904828 0.425778 0
    outer loop
      vertex 43.8153 24.0877 -10
      vertex 46.4888 18.4062 0
      vertex 46.4888 18.4062 -10
    endloop
  endfacet
  facet normal -0.125322 -0.992116 0
    outer loop
      vertex -9.36907 -49.1144 -10
      vertex -3.13953 -49.9013 0
      vertex -9.36907 -49.1144 0
    endloop
  endfacet
  facet normal -0.125322 -0.992116 -0
    outer loop
      vertex -3.13953 -49.9013 0
      vertex -9.36907 -49.1144 -10
      vertex -3.13953 -49.9013 -10
    endloop
  endfacet
  facet normal 0 0 1
    outer loop
      vertex 3.13951 49.9013 20
      vertex 5 14.1214 20
      vertex 5 49.6663 20
    endloop
  endfacet
  facet normal 0 0 1
    outer loop
      vertex 5 14.1214 20
      vertex 4 0 20
      vertex 4.63525 -14.2658 20
    endloop
  endfacet
  facet normal 0 0 1
    outer loop
      vertex 5 14.1214 20
      vertex 3.96846 0.501332 20
      vertex 4 0 20
    endloop
  endfacet
  facet normal 0 0 1
    outer loop
      vertex 5 14.1214 20
      vertex 3.87433 0.994759 20
      vertex 3.96846 0.501332 20
    endloop
  endfacet
  facet normal 0 0 1
    outer loop
      vertex 5 14.1214 20
      vertex 3.71911 1.4725 20
      vertex 3.87433 0.994759 20
    endloop
  endfacet
  facet normal 0 0 1
    outer loop
      vertex 5 14.1214 20
      vertex 3.50523 1.92701 20
      vertex 3.71911 1.4725 20
    endloop
  endfacet
  facet normal 0 0 1
    outer loop
      vertex 5 14.1214 20
      vertex 3.23607 2.35114 20
      vertex 3.50523 1.92701 20
    endloop
  endfacet
  facet normal 0 0 1
    outer loop
      vertex 5 14.1214 20
      vertex 3.13951 49.9013 20
      vertex -5 14.1214 20
    endloop
  endfacet
  facet normal 0 0 1
    outer loop
      vertex 5 14.1214 20
      vertex 2.91587 2.73819 20
      vertex 3.23607 2.35114 20
    endloop
  endfacet
  facet normal 0 0 1
    outer loop
      vertex 5 14.1214 20
      vertex 2.5497 3.08205 20
      vertex 2.91587 2.73819 20
    endloop
  endfacet
  facet normal 0 -0 1
    outer loop
      vertex 0.251162 3.99211 20
      vertex 5 14.1214 20
      vertex -5 14.1214 20
    endloop
  endfacet
  facet normal 0 0 1
    outer loop
      vertex 5 14.1214 20
      vertex 2.14331 3.37731 20
      vertex 2.5497 3.08205 20
    endloop
  endfacet
  facet normal 0 0 1
    outer loop
      vertex 5 14.1214 20
      vertex 1.70312 3.61931 20
      vertex 2.14331 3.37731 20
    endloop
  endfacet
  facet normal 0 0 1
    outer loop
      vertex 5 14.1214 20
      vertex 1.23607 3.80423 20
      vertex 1.70312 3.61931 20
    endloop
  endfacet
  facet normal 0 0 1
    outer loop
      vertex 5 14.1214 20
      vertex 0.749525 3.92915 20
      vertex 1.23607 3.80423 20
    endloop
  endfacet
  facet normal 0 0 1
    outer loop
      vertex 5 14.1214 20
      vertex 0.251162 3.99211 20
      vertex 0.749525 3.92915 20
    endloop
  endfacet
  facet normal 0 0 1
    outer loop
      vertex 0.251162 3.99211 20
      vertex -5 14.1214 20
      vertex -0.251162 3.99211 20
    endloop
  endfacet
  facet normal 0 0 1
    outer loop
      vertex -0.251162 3.99211 20
      vertex -5 14.1214 20
      vertex -0.749525 3.92915 20
    endloop
  endfacet
  facet normal 0 0 1
    outer loop
      vertex -0.749525 3.92915 20
      vertex -5 14.1214 20
      vertex -1.23607 3.80423 20
    endloop
  endfacet
  facet normal 0 0 1
    outer loop
      vertex -1.23607 3.80423 20
      vertex -5 14.1214 20
      vertex -1.70312 3.61931 20
    endloop
  endfacet
  facet normal -0 0 1
    outer loop
      vertex -6.38669 13.5724 20
      vertex -1.70312 3.61931 20
      vertex -5 14.1214 20
    endloop
  endfacet
  facet normal 0 0 1
    outer loop
      vertex -1.70312 3.61931 20
      vertex -6.38669 13.5724 20
      vertex -2.14331 3.37731 20
    endloop
  endfacet
  facet normal 0 0 1
    outer loop
      vertex -5 14.1214 20
      vertex 3.13951 49.9013 20
      vertex -3.13951 49.9013 20
    endloop
  endfacet
  facet normal -0 0 1
    outer loop
      vertex -8.0374 12.6649 20
      vertex -2.14331 3.37731 20
      vertex -6.38669 13.5724 20
    endloop
  endfacet
  facet normal 0 0 1
    outer loop
      vertex -2.14331 3.37731 20
      vertex -8.0374 12.6649 20
      vertex -2.5497 3.08205 20
    endloop
  endfacet
  facet normal -0 0 1
    outer loop
      vertex -9.56136 11.5577 20
      vertex -2.5497 3.08205 20
      vertex -8.0374 12.6649 20
    endloop
  endfacet
  facet normal 0 0 1
    outer loop
      vertex -2.5497 3.08205 20
      vertex -9.56136 11.5577 20
      vertex -2.91587 2.73819 20
    endloop
  endfacet
  facet normal -0 0 1
    outer loop
      vertex -10.9345 10.2682 20
      vertex -2.91587 2.73819 20
      vertex -9.56136 11.5577 20
    endloop
  endfacet
  facet normal 0 0 1
    outer loop
      vertex -2.91587 2.73819 20
      vertex -10.9345 10.2682 20
      vertex -3.23607 2.35114 20
    endloop
  endfacet
  facet normal -0 0 1
    outer loop
      vertex -12.1353 8.81677 20
      vertex -3.23607 2.35114 20
      vertex -10.9345 10.2682 20
    endloop
  endfacet
  facet normal 0 0 1
    outer loop
      vertex -5 14.1214 20
      vertex -3.13951 49.9013 20
      vertex -5 49.6663 20
    endloop
  endfacet
  facet normal 0 0 1
    outer loop
      vertex -3.23607 2.35114 20
      vertex -12.1353 8.81677 20
      vertex -3.50523 1.92701 20
    endloop
  endfacet
  facet normal -0 0 1
    outer loop
      vertex -13.1446 7.2263 20
      vertex -3.50523 1.92701 20
      vertex -12.1353 8.81677 20
    endloop
  endfacet
  facet normal 0 0 1
    outer loop
      vertex -4 0 20
      vertex -6.38669 -13.5724 20
      vertex -4.63525 -14.2658 20
    endloop
  endfacet
  facet normal 0 0 1
    outer loop
      vertex -3.50523 1.92701 20
      vertex -13.1446 7.2263 20
      vertex -3.71911 1.4725 20
    endloop
  endfacet
  facet normal 0 0 1
    outer loop
      vertex -4 0 20
      vertex -8.0374 -12.6649 20
      vertex -6.38669 -13.5724 20
    endloop
  endfacet
  facet normal -0 0 1
    outer loop
      vertex -13.9466 5.52187 20
      vertex -3.71911 1.4725 20
      vertex -13.1446 7.2263 20
    endloop
  endfacet
  facet normal 0 0 1
    outer loop
      vertex -4 0 20
      vertex -9.56136 -11.5577 20
      vertex -8.0374 -12.6649 20
    endloop
  endfacet
  facet normal -0 0 1
    outer loop
      vertex -14.1162 5 20
      vertex -3.71911 1.4725 20
      vertex -13.9466 5.52187 20
    endloop
  endfacet
  facet normal 0 0 1
    outer loop
      vertex -4 0 20
      vertex -10.9345 -10.2682 20
      vertex -9.56136 -11.5577 20
    endloop
  endfacet
  facet normal 0 0 1
    outer loop
      vertex -3.71911 1.4725 20
      vertex -14.1162 5 20
      vertex -3.87433 0.994759 20
    endloop
  endfacet
  facet normal 0 0 1
    outer loop
      vertex -4 0 20
      vertex -12.1353 -8.81677 20
      vertex -10.9345 -10.2682 20
    endloop
  endfacet
  facet normal 0 0 1
    outer loop
      vertex -3.87433 0.994759 20
      vertex -14.1162 5 20
      vertex -3.96846 0.501332 20
    endloop
  endfacet
  facet normal 0 0 1
    outer loop
      vertex -14.1162 -5 20
      vertex -4 0 20
      vertex -14.1162 5 20
    endloop
  endfacet
  facet normal 0 0 1
    outer loop
      vertex -3.96846 0.501332 20
      vertex -14.1162 5 20
      vertex -4 0 20
    endloop
  endfacet
  facet normal 0 -0 1
    outer loop
      vertex -13.9466 -5.52187 20
      vertex -4 0 20
      vertex -14.1162 -5 20
    endloop
  endfacet
  facet normal 0 0 1
    outer loop
      vertex -4 0 20
      vertex -13.1446 -7.2263 20
      vertex -12.1353 -8.81677 20
    endloop
  endfacet
  facet normal 0 0 1
    outer loop
      vertex -4 0 20
      vertex -13.9466 -5.52187 20
      vertex -13.1446 -7.2263 20
    endloop
  endfacet
  facet normal 0 0 1
    outer loop
      vertex -50 0 20
      vertex -14.1162 5 20
      vertex -49.6854 5 20
    endloop
  endfacet
  facet normal 0 0 1
    outer loop
      vertex -14.1162 5 20
      vertex -50 0 20
      vertex -14.1162 -5 20
    endloop
  endfacet
  facet normal 0 0 1
    outer loop
      vertex -14.1162 -5 20
      vertex -50 0 20
      vertex -49.6854 -5 20
    endloop
  endfacet
  facet normal 0 0 1
    outer loop
      vertex 14.8817 1.87999 20
      vertex 14.8817 -1.87999 20
      vertex 15 0 20
    endloop
  endfacet
  facet normal 0 0 1
    outer loop
      vertex 14.5287 3.73035 20
      vertex 14.8817 -1.87999 20
      vertex 14.8817 1.87999 20
    endloop
  endfacet
  facet normal 0 0 1
    outer loop
      vertex 14.5287 3.73035 20
      vertex 14.5287 -3.73035 20
      vertex 14.8817 -1.87999 20
    endloop
  endfacet
  facet normal 0 0 1
    outer loop
      vertex 13.9466 5.52187 20
      vertex 14.5287 -3.73035 20
      vertex 14.5287 3.73035 20
    endloop
  endfacet
  facet normal 0 0 1
    outer loop
      vertex 13.9466 5.52187 20
      vertex 13.9466 -5.52187 20
      vertex 14.5287 -3.73035 20
    endloop
  endfacet
  facet normal 0 0 1
    outer loop
      vertex 13.1446 7.2263 20
      vertex 13.9466 -5.52187 20
      vertex 13.9466 5.52187 20
    endloop
  endfacet
  facet normal 0 0 1
    outer loop
      vertex 13.1446 7.2263 20
      vertex 13.1446 -7.2263 20
      vertex 13.9466 -5.52187 20
    endloop
  endfacet
  facet normal 0 0 1
    outer loop
      vertex 12.1353 8.81677 20
      vertex 13.1446 -7.2263 20
      vertex 13.1446 7.2263 20
    endloop
  endfacet
  facet normal 0 0 1
    outer loop
      vertex 12.1353 8.81677 20
      vertex 12.1353 -8.81677 20
      vertex 13.1446 -7.2263 20
    endloop
  endfacet
  facet normal 0 0 1
    outer loop
      vertex 10.9345 10.2682 20
      vertex 12.1353 -8.81677 20
      vertex 12.1353 8.81677 20
    endloop
  endfacet
  facet normal 0 0 1
    outer loop
      vertex 10.9345 10.2682 20
      vertex 10.9345 -10.2682 20
      vertex 12.1353 -8.81677 20
    endloop
  endfacet
  facet normal 0 0 1
    outer loop
      vertex 9.56136 11.5577 20
      vertex 10.9345 -10.2682 20
      vertex 10.9345 10.2682 20
    endloop
  endfacet
  facet normal 0 0 1
    outer loop
      vertex 9.56136 11.5577 20
      vertex 9.56136 -11.5577 20
      vertex 10.9345 -10.2682 20
    endloop
  endfacet
  facet normal 0 0 1
    outer loop
      vertex 8.0374 12.6649 20
      vertex 9.56136 -11.5577 20
      vertex 9.56136 11.5577 20
    endloop
  endfacet
  facet normal 0 0 1
    outer loop
      vertex 8.0374 12.6649 20
      vertex 8.0374 -12.6649 20
      vertex 9.56136 -11.5577 20
    endloop
  endfacet
  facet normal 0 0 1
    outer loop
      vertex 5 14.1214 20
      vertex 8.0374 12.6649 20
      vertex 6.38669 13.5724 20
    endloop
  endfacet
  facet normal 0 0 1
    outer loop
      vertex 8.0374 12.6649 20
      vertex 5 14.1214 20
      vertex 8.0374 -12.6649 20
    endloop
  endfacet
  facet normal 0 0 1
    outer loop
      vertex 8.0374 -12.6649 20
      vertex 5 14.1214 20
      vertex 6.38669 -13.5724 20
    endloop
  endfacet
  facet normal 0 0 1
    outer loop
      vertex 6.38669 -13.5724 20
      vertex 5 14.1214 20
      vertex 4.63525 -14.2658 20
    endloop
  endfacet
  facet normal -0 0 1
    outer loop
      vertex 3.96846 -0.501332 20
      vertex 4.63525 -14.2658 20
      vertex 4 0 20
    endloop
  endfacet
  facet normal -0 0 1
    outer loop
      vertex 3.87433 -0.994759 20
      vertex 4.63525 -14.2658 20
      vertex 3.96846 -0.501332 20
    endloop
  endfacet
  facet normal -0 0 1
    outer loop
      vertex 3.71911 -1.4725 20
      vertex 4.63525 -14.2658 20
      vertex 3.87433 -0.994759 20
    endloop
  endfacet
  facet normal -0 0 1
    outer loop
      vertex 3.50523 -1.92701 20
      vertex 4.63525 -14.2658 20
      vertex 3.71911 -1.4725 20
    endloop
  endfacet
  facet normal -0 0 1
    outer loop
      vertex 3.23607 -2.35114 20
      vertex 4.63525 -14.2658 20
      vertex 3.50523 -1.92701 20
    endloop
  endfacet
  facet normal -0 0 1
    outer loop
      vertex 2.91587 -2.73819 20
      vertex 4.63525 -14.2658 20
      vertex 3.23607 -2.35114 20
    endloop
  endfacet
  facet normal -0 0 1
    outer loop
      vertex 2.5497 -3.08205 20
      vertex 4.63525 -14.2658 20
      vertex 2.91587 -2.73819 20
    endloop
  endfacet
  facet normal -0 0 1
    outer loop
      vertex 2.14331 -3.37731 20
      vertex 4.63525 -14.2658 20
      vertex 2.5497 -3.08205 20
    endloop
  endfacet
  facet normal -0 0 1
    outer loop
      vertex 1.70312 -3.61931 20
      vertex 4.63525 -14.2658 20
      vertex 2.14331 -3.37731 20
    endloop
  endfacet
  facet normal -0 0 1
    outer loop
      vertex 1.23607 -3.80423 20
      vertex 4.63525 -14.2658 20
      vertex 1.70312 -3.61931 20
    endloop
  endfacet
  facet normal 0 0 1
    outer loop
      vertex 4.63525 -14.2658 20
      vertex 1.23607 -3.80423 20
      vertex 2.81071 -14.7343 20
    endloop
  endfacet
  facet normal -0 0 1
    outer loop
      vertex 0.749525 -3.92915 20
      vertex 2.81071 -14.7343 20
      vertex 1.23607 -3.80423 20
    endloop
  endfacet
  facet normal 0 0 1
    outer loop
      vertex 2.81071 -14.7343 20
      vertex 0.749525 -3.92915 20
      vertex 0.941849 -14.9704 20
    endloop
  endfacet
  facet normal -0 0 1
    outer loop
      vertex 0.251162 -3.99211 20
      vertex 0.941849 -14.9704 20
      vertex 0.749525 -3.92915 20
    endloop
  endfacet
  facet normal -0 0 1
    outer loop
      vertex -0.251162 -3.99211 20
      vertex 0.941849 -14.9704 20
      vertex 0.251162 -3.99211 20
    endloop
  endfacet
  facet normal 0 0 1
    outer loop
      vertex -0.941849 -14.9704 20
      vertex -0.251162 -3.99211 20
      vertex -0.749525 -3.92915 20
    endloop
  endfacet
  facet normal 0 0 1
    outer loop
      vertex -0.251162 -3.99211 20
      vertex -0.941849 -14.9704 20
      vertex 0.941849 -14.9704 20
    endloop
  endfacet
  facet normal 0 0 1
    outer loop
      vertex -2.81071 -14.7343 20
      vertex -0.749525 -3.92915 20
      vertex -1.23607 -3.80423 20
    endloop
  endfacet
  facet normal 0 0 1
    outer loop
      vertex -4.63525 -14.2658 20
      vertex -1.23607 -3.80423 20
      vertex -1.70312 -3.61931 20
    endloop
  endfacet
  facet normal 0 0 1
    outer loop
      vertex -4.63525 -14.2658 20
      vertex -1.70312 -3.61931 20
      vertex -2.14331 -3.37731 20
    endloop
  endfacet
  facet normal 0 0 1
    outer loop
      vertex -4.63525 -14.2658 20
      vertex -2.14331 -3.37731 20
      vertex -2.5497 -3.08205 20
    endloop
  endfacet
  facet normal 0 0 1
    outer loop
      vertex -0.749525 -3.92915 20
      vertex -2.81071 -14.7343 20
      vertex -0.941849 -14.9704 20
    endloop
  endfacet
  facet normal 0 0 1
    outer loop
      vertex -4.63525 -14.2658 20
      vertex -2.5497 -3.08205 20
      vertex -2.91587 -2.73819 20
    endloop
  endfacet
  facet normal 0 0 1
    outer loop
      vertex -4.63525 -14.2658 20
      vertex -2.91587 -2.73819 20
      vertex -3.23607 -2.35114 20
    endloop
  endfacet
  facet normal 0 0 1
    outer loop
      vertex -4.63525 -14.2658 20
      vertex -3.23607 -2.35114 20
      vertex -3.50523 -1.92701 20
    endloop
  endfacet
  facet normal 0 0 1
    outer loop
      vertex -4.63525 -14.2658 20
      vertex -3.50523 -1.92701 20
      vertex -3.71911 -1.4725 20
    endloop
  endfacet
  facet normal 0 0 1
    outer loop
      vertex -4.63525 -14.2658 20
      vertex -3.71911 -1.4725 20
      vertex -3.87433 -0.994759 20
    endloop
  endfacet
  facet normal 0 0 1
    outer loop
      vertex -4.63525 -14.2658 20
      vertex -3.87433 -0.994759 20
      vertex -3.96846 -0.501332 20
    endloop
  endfacet
  facet normal 0 0 1
    outer loop
      vertex -1.23607 -3.80423 20
      vertex -4.63525 -14.2658 20
      vertex -2.81071 -14.7343 20
    endloop
  endfacet
  facet normal 0 0 1
    outer loop
      vertex -4.63525 -14.2658 20
      vertex -3.96846 -0.501332 20
      vertex -4 0 20
    endloop
  endfacet
  facet normal 0.248709 -0.968578 0
    outer loop
      vertex 2.81071 -14.7343 0
      vertex 4.63525 -14.2658 20
      vertex 2.81071 -14.7343 20
    endloop
  endfacet
  facet normal 0.248709 -0.968578 0
    outer loop
      vertex 4.63525 -14.2658 20
      vertex 2.81071 -14.7343 0
      vertex 4.63525 -14.2658 0
    endloop
  endfacet
  facet normal 0.368104 -0.929785 0
    outer loop
      vertex 4.63525 -14.2658 0
      vertex 6.38669 -13.5724 20
      vertex 4.63525 -14.2658 20
    endloop
  endfacet
  facet normal 0.368104 -0.929785 0
    outer loop
      vertex 6.38669 -13.5724 20
      vertex 4.63525 -14.2658 0
      vertex 6.38669 -13.5724 0
    endloop
  endfacet
  facet normal 0.48176 -0.876303 0
    outer loop
      vertex 6.38669 -13.5724 0
      vertex 8.0374 -12.6649 20
      vertex 6.38669 -13.5724 20
    endloop
  endfacet
  facet normal 0.48176 -0.876303 0
    outer loop
      vertex 8.0374 -12.6649 20
      vertex 6.38669 -13.5724 0
      vertex 8.0374 -12.6649 0
    endloop
  endfacet
  facet normal 0.587778 -0.809022 0
    outer loop
      vertex 8.0374 -12.6649 0
      vertex 9.56136 -11.5577 20
      vertex 8.0374 -12.6649 20
    endloop
  endfacet
  facet normal 0.587778 -0.809022 0
    outer loop
      vertex 9.56136 -11.5577 20
      vertex 8.0374 -12.6649 0
      vertex 9.56136 -11.5577 0
    endloop
  endfacet
  facet normal 0.684557 -0.728959 0
    outer loop
      vertex 9.56136 -11.5577 0
      vertex 10.9345 -10.2682 20
      vertex 9.56136 -11.5577 20
    endloop
  endfacet
  facet normal 0.684557 -0.728959 0
    outer loop
      vertex 10.9345 -10.2682 20
      vertex 9.56136 -11.5577 0
      vertex 10.9345 -10.2682 0
    endloop
  endfacet
  facet normal 0.770494 -0.637447 0
    outer loop
      vertex 10.9345 -10.2682 20
      vertex 12.1353 -8.81677 0
      vertex 12.1353 -8.81677 20
    endloop
  endfacet
  facet normal 0.770494 -0.637447 0
    outer loop
      vertex 12.1353 -8.81677 0
      vertex 10.9345 -10.2682 20
      vertex 10.9345 -10.2682 0
    endloop
  endfacet
  facet normal 0.844338 -0.535811 0
    outer loop
      vertex 12.1353 -8.81677 20
      vertex 13.1446 -7.2263 0
      vertex 13.1446 -7.2263 20
    endloop
  endfacet
  facet normal 0.844338 -0.535811 0
    outer loop
      vertex 13.1446 -7.2263 0
      vertex 12.1353 -8.81677 20
      vertex 12.1353 -8.81677 0
    endloop
  endfacet
  facet normal 0.904836 -0.42576 0
    outer loop
      vertex 13.1446 -7.2263 20
      vertex 13.9466 -5.52187 0
      vertex 13.9466 -5.52187 20
    endloop
  endfacet
  facet normal 0.904836 -0.42576 0
    outer loop
      vertex 13.9466 -5.52187 0
      vertex 13.1446 -7.2263 20
      vertex 13.1446 -7.2263 0
    endloop
  endfacet
  facet normal 0.951057 -0.309017 0
    outer loop
      vertex 13.9466 -5.52187 20
      vertex 14.5287 -3.73035 0
      vertex 14.5287 -3.73035 20
    endloop
  endfacet
  facet normal 0.951057 -0.309017 0
    outer loop
      vertex 14.5287 -3.73035 0
      vertex 13.9466 -5.52187 20
      vertex 13.9466 -5.52187 0
    endloop
  endfacet
  facet normal 0.982285 -0.187394 0
    outer loop
      vertex 14.5287 -3.73035 20
      vertex 14.8817 -1.87999 0
      vertex 14.8817 -1.87999 20
    endloop
  endfacet
  facet normal 0.982285 -0.187394 0
    outer loop
      vertex 14.8817 -1.87999 0
      vertex 14.5287 -3.73035 20
      vertex 14.5287 -3.73035 0
    endloop
  endfacet
  facet normal 0.998026 -0.0628017 0
    outer loop
      vertex 14.8817 -1.87999 20
      vertex 15 0 0
      vertex 15 0 20
    endloop
  endfacet
  facet normal 0.998026 -0.0628017 0
    outer loop
      vertex 15 0 0
      vertex 14.8817 -1.87999 20
      vertex 14.8817 -1.87999 0
    endloop
  endfacet
  facet normal 0.998026 0.0628017 0
    outer loop
      vertex 15 0 20
      vertex 14.8817 1.87999 0
      vertex 14.8817 1.87999 20
    endloop
  endfacet
  facet normal 0.998026 0.0628017 0
    outer loop
      vertex 14.8817 1.87999 0
      vertex 15 0 20
      vertex 15 0 0
    endloop
  endfacet
  facet normal 0.982285 0.187394 0
    outer loop
      vertex 14.8817 1.87999 20
      vertex 14.5287 3.73035 0
      vertex 14.5287 3.73035 20
    endloop
  endfacet
  facet normal 0.982285 0.187394 0
    outer loop
      vertex 14.5287 3.73035 0
      vertex 14.8817 1.87999 20
      vertex 14.8817 1.87999 0
    endloop
  endfacet
  facet normal 0.951057 0.309017 0
    outer loop
      vertex 14.5287 3.73035 20
      vertex 13.9466 5.52187 0
      vertex 13.9466 5.52187 20
    endloop
  endfacet
  facet normal 0.951057 0.309017 0
    outer loop
      vertex 13.9466 5.52187 0
      vertex 14.5287 3.73035 20
      vertex 14.5287 3.73035 0
    endloop
  endfacet
  facet normal 0.904836 0.42576 0
    outer loop
      vertex 13.9466 5.52187 20
      vertex 13.1446 7.2263 0
      vertex 13.1446 7.2263 20
    endloop
  endfacet
  facet normal 0.904836 0.42576 0
    outer loop
      vertex 13.1446 7.2263 0
      vertex 13.9466 5.52187 20
      vertex 13.9466 5.52187 0
    endloop
  endfacet
  facet normal 0.844338 0.535811 0
    outer loop
      vertex 13.1446 7.2263 20
      vertex 12.1353 8.81677 0
      vertex 12.1353 8.81677 20
    endloop
  endfacet
  facet normal 0.844338 0.535811 0
    outer loop
      vertex 12.1353 8.81677 0
      vertex 13.1446 7.2263 20
      vertex 13.1446 7.2263 0
    endloop
  endfacet
  facet normal 0.770494 0.637447 0
    outer loop
      vertex 12.1353 8.81677 20
      vertex 10.9345 10.2682 0
      vertex 10.9345 10.2682 20
    endloop
  endfacet
  facet normal 0.770494 0.637447 0
    outer loop
      vertex 10.9345 10.2682 0
      vertex 12.1353 8.81677 20
      vertex 12.1353 8.81677 0
    endloop
  endfacet
  facet normal 0.684557 0.728959 -0
    outer loop
      vertex 10.9345 10.2682 0
      vertex 9.56136 11.5577 20
      vertex 10.9345 10.2682 20
    endloop
  endfacet
  facet normal 0.684557 0.728959 0
    outer loop
      vertex 9.56136 11.5577 20
      vertex 10.9345 10.2682 0
      vertex 9.56136 11.5577 0
    endloop
  endfacet
  facet normal 0.587778 0.809022 -0
    outer loop
      vertex 9.56136 11.5577 0
      vertex 8.0374 12.6649 20
      vertex 9.56136 11.5577 20
    endloop
  endfacet
  facet normal 0.587778 0.809022 0
    outer loop
      vertex 8.0374 12.6649 20
      vertex 9.56136 11.5577 0
      vertex 8.0374 12.6649 0
    endloop
  endfacet
  facet normal 0.48176 0.876303 -0
    outer loop
      vertex 8.0374 12.6649 0
      vertex 6.38669 13.5724 20
      vertex 8.0374 12.6649 20
    endloop
  endfacet
  facet normal 0.48176 0.876303 0
    outer loop
      vertex 6.38669 13.5724 20
      vertex 8.0374 12.6649 0
      vertex 6.38669 13.5724 0
    endloop
  endfacet
  facet normal 0.368108 0.929783 -0
    outer loop
      vertex 6.38669 13.5724 0
      vertex 5 14.1214 20
      vertex 6.38669 13.5724 20
    endloop
  endfacet
  facet normal 0.368108 0.929783 0
    outer loop
      vertex 5 14.1214 20
      vertex 6.38669 13.5724 0
      vertex 5 14.1214 0
    endloop
  endfacet
  facet normal 1 -0 0
    outer loop
      vertex 5 14.1214 20
      vertex 5 49.6663 0
      vertex 5 49.6663 20
    endloop
  endfacet
  facet normal 1 0 0
    outer loop
      vertex 5 49.6663 0
      vertex 5 14.1214 20
      vertex 5 14.1214 0
    endloop
  endfacet
  facet normal 0.125315 0.992117 -0
    outer loop
      vertex 5 49.6663 0
      vertex 3.13951 49.9013 20
      vertex 5 49.6663 20
    endloop
  endfacet
  facet normal 0.125315 0.992117 0
    outer loop
      vertex 3.13951 49.9013 20
      vertex 5 49.6663 0
      vertex 3.13951 49.9013 0
    endloop
  endfacet
  facet normal 0 1 -0
    outer loop
      vertex 3.13951 49.9013 0
      vertex -3.13951 49.9013 20
      vertex 3.13951 49.9013 20
    endloop
  endfacet
  facet normal 0 1 0
    outer loop
      vertex -3.13951 49.9013 20
      vertex 3.13951 49.9013 0
      vertex -3.13951 49.9013 0
    endloop
  endfacet
  facet normal -0.125315 0.992117 0
    outer loop
      vertex -3.13951 49.9013 0
      vertex -5 49.6663 20
      vertex -3.13951 49.9013 20
    endloop
  endfacet
  facet normal -0.125315 0.992117 0
    outer loop
      vertex -5 49.6663 20
      vertex -3.13951 49.9013 0
      vertex -5 49.6663 0
    endloop
  endfacet
  facet normal -1 0 0
    outer loop
      vertex -5 14.1214 0
      vertex -5 49.6663 20
      vertex -5 49.6663 0
    endloop
  endfacet
  facet normal -1 -0 0
    outer loop
      vertex -5 49.6663 20
      vertex -5 14.1214 0
      vertex -5 14.1214 20
    endloop
  endfacet
  facet normal -0.368108 0.929783 0
    outer loop
      vertex -5 14.1214 0
      vertex -6.38669 13.5724 20
      vertex -5 14.1214 20
    endloop
  endfacet
  facet normal -0.368108 0.929783 0
    outer loop
      vertex -6.38669 13.5724 20
      vertex -5 14.1214 0
      vertex -6.38669 13.5724 0
    endloop
  endfacet
  facet normal -0.48176 0.876303 0
    outer loop
      vertex -6.38669 13.5724 0
      vertex -8.0374 12.6649 20
      vertex -6.38669 13.5724 20
    endloop
  endfacet
  facet normal -0.48176 0.876303 0
    outer loop
      vertex -8.0374 12.6649 20
      vertex -6.38669 13.5724 0
      vertex -8.0374 12.6649 0
    endloop
  endfacet
  facet normal -0.587778 0.809022 0
    outer loop
      vertex -8.0374 12.6649 0
      vertex -9.56136 11.5577 20
      vertex -8.0374 12.6649 20
    endloop
  endfacet
  facet normal -0.587778 0.809022 0
    outer loop
      vertex -9.56136 11.5577 20
      vertex -8.0374 12.6649 0
      vertex -9.56136 11.5577 0
    endloop
  endfacet
  facet normal -0.684557 0.728959 0
    outer loop
      vertex -9.56136 11.5577 0
      vertex -10.9345 10.2682 20
      vertex -9.56136 11.5577 20
    endloop
  endfacet
  facet normal -0.684557 0.728959 0
    outer loop
      vertex -10.9345 10.2682 20
      vertex -9.56136 11.5577 0
      vertex -10.9345 10.2682 0
    endloop
  endfacet
  facet normal -0.770494 0.637447 0
    outer loop
      vertex -12.1353 8.81677 0
      vertex -10.9345 10.2682 20
      vertex -10.9345 10.2682 0
    endloop
  endfacet
  facet normal -0.770494 0.637447 0
    outer loop
      vertex -10.9345 10.2682 20
      vertex -12.1353 8.81677 0
      vertex -12.1353 8.81677 20
    endloop
  endfacet
  facet normal -0.844338 0.535811 0
    outer loop
      vertex -13.1446 7.2263 0
      vertex -12.1353 8.81677 20
      vertex -12.1353 8.81677 0
    endloop
  endfacet
  facet normal -0.844338 0.535811 0
    outer loop
      vertex -12.1353 8.81677 20
      vertex -13.1446 7.2263 0
      vertex -13.1446 7.2263 20
    endloop
  endfacet
  facet normal -0.904836 0.42576 0
    outer loop
      vertex -13.9466 5.52187 0
      vertex -13.1446 7.2263 20
      vertex -13.1446 7.2263 0
    endloop
  endfacet
  facet normal -0.904836 0.42576 0
    outer loop
      vertex -13.1446 7.2263 20
      vertex -13.9466 5.52187 0
      vertex -13.9466 5.52187 20
    endloop
  endfacet
  facet normal -0.951038 0.309073 0
    outer loop
      vertex -14.1162 5 0
      vertex -13.9466 5.52187 20
      vertex -13.9466 5.52187 0
    endloop
  endfacet
  facet normal -0.951038 0.309073 0
    outer loop
      vertex -13.9466 5.52187 20
      vertex -14.1162 5 0
      vertex -14.1162 5 20
    endloop
  endfacet
  facet normal 0 1 -0
    outer loop
      vertex -14.1162 5 0
      vertex -49.6854 5 20
      vertex -14.1162 5 20
    endloop
  endfacet
  facet normal 0 1 0
    outer loop
      vertex -49.6854 5 20
      vertex -14.1162 5 0
      vertex -49.6854 5 0
    endloop
  endfacet
  facet normal -0.998026 0.0627958 0
    outer loop
      vertex -50 0 0
      vertex -49.6854 5 20
      vertex -49.6854 5 0
    endloop
  endfacet
  facet normal -0.998026 0.0627958 0
    outer loop
      vertex -49.6854 5 20
      vertex -50 0 0
      vertex -50 0 20
    endloop
  endfacet
  facet normal -0.998026 -0.0627958 0
    outer loop
      vertex -49.6854 -5 0
      vertex -50 0 20
      vertex -50 0 0
    endloop
  endfacet
  facet normal -0.998026 -0.0627958 0
    outer loop
      vertex -50 0 20
      vertex -49.6854 -5 0
      vertex -49.6854 -5 20
    endloop
  endfacet
  facet normal 0 -1 0
    outer loop
      vertex -49.6854 -5 0
      vertex -14.1162 -5 20
      vertex -49.6854 -5 20
    endloop
  endfacet
  facet normal 0 -1 -0
    outer loop
      vertex -14.1162 -5 20
      vertex -49.6854 -5 0
      vertex -14.1162 -5 0
    endloop
  endfacet
  facet normal -0.951038 -0.309073 0
    outer loop
      vertex -13.9466 -5.52187 0
      vertex -14.1162 -5 20
      vertex -14.1162 -5 0
    endloop
  endfacet
  facet normal -0.951038 -0.309073 0
    outer loop
      vertex -14.1162 -5 20
      vertex -13.9466 -5.52187 0
      vertex -13.9466 -5.52187 20
    endloop
  endfacet
  facet normal -0.904836 -0.42576 0
    outer loop
      vertex -13.1446 -7.2263 0
      vertex -13.9466 -5.52187 20
      vertex -13.9466 -5.52187 0
    endloop
  endfacet
  facet normal -0.904836 -0.42576 0
    outer loop
      vertex -13.9466 -5.52187 20
      vertex -13.1446 -7.2263 0
      vertex -13.1446 -7.2263 20
    endloop
  endfacet
  facet normal -0.844338 -0.535811 0
    outer loop
      vertex -12.1353 -8.81677 0
      vertex -13.1446 -7.2263 20
      vertex -13.1446 -7.2263 0
    endloop
  endfacet
  facet normal -0.844338 -0.535811 0
    outer loop
      vertex -13.1446 -7.2263 20
      vertex -12.1353 -8.81677 0
      vertex -12.1353 -8.81677 20
    endloop
  endfacet
  facet normal -0.770494 -0.637447 0
    outer loop
      vertex -10.9345 -10.2682 0
      vertex -12.1353 -8.81677 20
      vertex -12.1353 -8.81677 0
    endloop
  endfacet
  facet normal -0.770494 -0.637447 0
    outer loop
      vertex -12.1353 -8.81677 20
      vertex -10.9345 -10.2682 0
      vertex -10.9345 -10.2682 20
    endloop
  endfacet
  facet normal -0.684557 -0.728959 0
    outer loop
      vertex -10.9345 -10.2682 0
      vertex -9.56136 -11.5577 20
      vertex -10.9345 -10.2682 20
    endloop
  endfacet
  facet normal -0.684557 -0.728959 -0
    outer loop
      vertex -9.56136 -11.5577 20
      vertex -10.9345 -10.2682 0
      vertex -9.56136 -11.5577 0
    endloop
  endfacet
  facet normal -0.587778 -0.809022 0
    outer loop
      vertex -9.56136 -11.5577 0
      vertex -8.0374 -12.6649 20
      vertex -9.56136 -11.5577 20
    endloop
  endfacet
  facet normal -0.587778 -0.809022 -0
    outer loop
      vertex -8.0374 -12.6649 20
      vertex -9.56136 -11.5577 0
      vertex -8.0374 -12.6649 0
    endloop
  endfacet
  facet normal -0.48176 -0.876303 0
    outer loop
      vertex -8.0374 -12.6649 0
      vertex -6.38669 -13.5724 20
      vertex -8.0374 -12.6649 20
    endloop
  endfacet
  facet normal -0.48176 -0.876303 -0
    outer loop
      vertex -6.38669 -13.5724 20
      vertex -8.0374 -12.6649 0
      vertex -6.38669 -13.5724 0
    endloop
  endfacet
  facet normal -0.368104 -0.929785 0
    outer loop
      vertex -6.38669 -13.5724 0
      vertex -4.63525 -14.2658 20
      vertex -6.38669 -13.5724 20
    endloop
  endfacet
  facet normal -0.368104 -0.929785 -0
    outer loop
      vertex -4.63525 -14.2658 20
      vertex -6.38669 -13.5724 0
      vertex -4.63525 -14.2658 0
    endloop
  endfacet
  facet normal -0.248709 -0.968578 0
    outer loop
      vertex -4.63525 -14.2658 0
      vertex -2.81071 -14.7343 20
      vertex -4.63525 -14.2658 20
    endloop
  endfacet
  facet normal -0.248709 -0.968578 -0
    outer loop
      vertex -2.81071 -14.7343 20
      vertex -4.63525 -14.2658 0
      vertex -2.81071 -14.7343 0
    endloop
  endfacet
  facet normal -0.125337 -0.992114 0
    outer loop
      vertex -2.81071 -14.7343 0
      vertex -0.941849 -14.9704 20
      vertex -2.81071 -14.7343 20
    endloop
  endfacet
  facet normal -0.125337 -0.992114 -0
    outer loop
      vertex -0.941849 -14.9704 20
      vertex -2.81071 -14.7343 0
      vertex -0.941849 -14.9704 0
    endloop
  endfacet
  facet normal 0 -1 0
    outer loop
      vertex -0.941849 -14.9704 0
      vertex 0.941849 -14.9704 20
      vertex -0.941849 -14.9704 20
    endloop
  endfacet
  facet normal 0 -1 -0
    outer loop
      vertex 0.941849 -14.9704 20
      vertex -0.941849 -14.9704 0
      vertex 0.941849 -14.9704 0
    endloop
  endfacet
  facet normal 0.125337 -0.992114 0
    outer loop
      vertex 0.941849 -14.9704 0
      vertex 2.81071 -14.7343 20
      vertex 0.941849 -14.9704 20
    endloop
  endfacet
  facet normal 0.125337 -0.992114 0
    outer loop
      vertex 2.81071 -14.7343 20
      vertex 0.941849 -14.9704 0
      vertex 2.81071 -14.7343 0
    endloop
  endfacet
  facet normal -0.844329 0.535825 0
    outer loop
      vertex 3.23607 -2.35114 -10
      vertex 3.50523 -1.92701 20
      vertex 3.50523 -1.92701 -10
    endloop
  endfacet
  facet normal -0.844329 0.535825 0
    outer loop
      vertex 3.50523 -1.92701 20
      vertex 3.23607 -2.35114 -10
      vertex 3.23607 -2.35114 20
    endloop
  endfacet
  facet normal -0.982286 -0.187389 0
    outer loop
      vertex 3.96846 0.501332 -10
      vertex 3.87433 0.994759 20
      vertex 3.87433 0.994759 -10
    endloop
  endfacet
  facet normal -0.982286 -0.187389 0
    outer loop
      vertex 3.87433 0.994759 20
      vertex 3.96846 0.501332 -10
      vertex 3.96846 0.501332 20
    endloop
  endfacet
  facet normal -0.998027 -0.0627883 0
    outer loop
      vertex 4 0 -10
      vertex 3.96846 0.501332 20
      vertex 3.96846 0.501332 -10
    endloop
  endfacet
  facet normal -0.998027 -0.0627883 0
    outer loop
      vertex 3.96846 0.501332 20
      vertex 4 0 -10
      vertex 4 0 20
    endloop
  endfacet
  facet normal -0.951061 -0.309004 0
    outer loop
      vertex 3.87433 0.994759 -10
      vertex 3.71911 1.4725 20
      vertex 3.71911 1.4725 -10
    endloop
  endfacet
  facet normal -0.951061 -0.309004 0
    outer loop
      vertex 3.71911 1.4725 20
      vertex 3.87433 0.994759 -10
      vertex 3.87433 0.994759 20
    endloop
  endfacet
  facet normal -0.481759 0.876304 0
    outer loop
      vertex 2.14331 -3.37731 -10
      vertex 1.70312 -3.61931 20
      vertex 2.14331 -3.37731 20
    endloop
  endfacet
  facet normal -0.481759 0.876304 0
    outer loop
      vertex 1.70312 -3.61931 20
      vertex 2.14331 -3.37731 -10
      vertex 1.70312 -3.61931 -10
    endloop
  endfacet
  facet normal -0.248683 0.968585 0
    outer loop
      vertex 1.23607 -3.80423 -10
      vertex 0.749525 -3.92915 20
      vertex 1.23607 -3.80423 20
    endloop
  endfacet
  facet normal -0.248683 0.968585 0
    outer loop
      vertex 0.749525 -3.92915 20
      vertex 1.23607 -3.80423 -10
      vertex 0.749525 -3.92915 -10
    endloop
  endfacet
  facet normal -0.844329 -0.535825 0
    outer loop
      vertex 3.50523 1.92701 -10
      vertex 3.23607 2.35114 20
      vertex 3.23607 2.35114 -10
    endloop
  endfacet
  facet normal -0.844329 -0.535825 0
    outer loop
      vertex 3.23607 2.35114 20
      vertex 3.50523 1.92701 -10
      vertex 3.50523 1.92701 20
    endloop
  endfacet
  facet normal -0.904824 -0.425786 0
    outer loop
      vertex 3.71911 1.4725 -10
      vertex 3.50523 1.92701 20
      vertex 3.50523 1.92701 -10
    endloop
  endfacet
  facet normal -0.904824 -0.425786 0
    outer loop
      vertex 3.50523 1.92701 20
      vertex 3.71911 1.4725 -10
      vertex 3.71911 1.4725 20
    endloop
  endfacet
  facet normal 0.248683 -0.968585 0
    outer loop
      vertex -1.23607 3.80423 -10
      vertex -0.749525 3.92915 20
      vertex -1.23607 3.80423 20
    endloop
  endfacet
  facet normal 0.248683 -0.968585 0
    outer loop
      vertex -0.749525 3.92915 20
      vertex -1.23607 3.80423 -10
      vertex -0.749525 3.92915 -10
    endloop
  endfacet
  facet normal 0.125337 -0.992114 0
    outer loop
      vertex -0.749525 3.92915 -10
      vertex -0.251162 3.99211 20
      vertex -0.749525 3.92915 20
    endloop
  endfacet
  facet normal 0.125337 -0.992114 0
    outer loop
      vertex -0.251162 3.99211 20
      vertex -0.749525 3.92915 -10
      vertex -0.251162 3.99211 -10
    endloop
  endfacet
  facet normal -0.951061 0.309004 0
    outer loop
      vertex 3.71911 -1.4725 -10
      vertex 3.87433 -0.994759 20
      vertex 3.87433 -0.994759 -10
    endloop
  endfacet
  facet normal -0.951061 0.309004 0
    outer loop
      vertex 3.87433 -0.994759 20
      vertex 3.71911 -1.4725 -10
      vertex 3.71911 -1.4725 20
    endloop
  endfacet
  facet normal 0.684551 -0.728965 0
    outer loop
      vertex -2.91587 2.73819 -10
      vertex -2.5497 3.08205 20
      vertex -2.91587 2.73819 20
    endloop
  endfacet
  facet normal 0.684551 -0.728965 0
    outer loop
      vertex -2.5497 3.08205 20
      vertex -2.91587 2.73819 -10
      vertex -2.5497 3.08205 -10
    endloop
  endfacet
  facet normal 0.998027 0.0627883 0
    outer loop
      vertex -3.96846 -0.501332 20
      vertex -4 0 -10
      vertex -4 0 20
    endloop
  endfacet
  facet normal 0.998027 0.0627883 0
    outer loop
      vertex -4 0 -10
      vertex -3.96846 -0.501332 20
      vertex -3.96846 -0.501332 -10
    endloop
  endfacet
  facet normal -0.125337 0.992114 0
    outer loop
      vertex 0.749525 -3.92915 -10
      vertex 0.251162 -3.99211 20
      vertex 0.749525 -3.92915 20
    endloop
  endfacet
  facet normal -0.125337 0.992114 0
    outer loop
      vertex 0.251162 -3.99211 20
      vertex 0.749525 -3.92915 -10
      vertex 0.251162 -3.99211 -10
    endloop
  endfacet
  facet normal -0.587786 -0.809017 0
    outer loop
      vertex 2.14331 3.37731 -10
      vertex 2.5497 3.08205 20
      vertex 2.14331 3.37731 20
    endloop
  endfacet
  facet normal -0.587786 -0.809017 -0
    outer loop
      vertex 2.5497 3.08205 20
      vertex 2.14331 3.37731 -10
      vertex 2.5497 3.08205 -10
    endloop
  endfacet
  facet normal 0.982286 0.187389 0
    outer loop
      vertex -3.87433 -0.994759 20
      vertex -3.96846 -0.501332 -10
      vertex -3.96846 -0.501332 20
    endloop
  endfacet
  facet normal 0.982286 0.187389 0
    outer loop
      vertex -3.96846 -0.501332 -10
      vertex -3.87433 -0.994759 20
      vertex -3.87433 -0.994759 -10
    endloop
  endfacet
  facet normal 0.684551 0.728965 -0
    outer loop
      vertex -2.5497 -3.08205 -10
      vertex -2.91587 -2.73819 20
      vertex -2.5497 -3.08205 20
    endloop
  endfacet
  facet normal 0.684551 0.728965 0
    outer loop
      vertex -2.91587 -2.73819 20
      vertex -2.5497 -3.08205 -10
      vertex -2.91587 -2.73819 -10
    endloop
  endfacet
  facet normal 0.982286 -0.187389 0
    outer loop
      vertex -3.96846 0.501332 20
      vertex -3.87433 0.994759 -10
      vertex -3.87433 0.994759 20
    endloop
  endfacet
  facet normal 0.982286 -0.187389 0
    outer loop
      vertex -3.87433 0.994759 -10
      vertex -3.96846 0.501332 20
      vertex -3.96846 0.501332 -10
    endloop
  endfacet
  facet normal 0.844329 0.535825 0
    outer loop
      vertex -3.23607 -2.35114 20
      vertex -3.50523 -1.92701 -10
      vertex -3.50523 -1.92701 20
    endloop
  endfacet
  facet normal 0.844329 0.535825 0
    outer loop
      vertex -3.50523 -1.92701 -10
      vertex -3.23607 -2.35114 20
      vertex -3.23607 -2.35114 -10
    endloop
  endfacet
  facet normal -0.248683 -0.968585 0
    outer loop
      vertex 0.749525 3.92915 -10
      vertex 1.23607 3.80423 20
      vertex 0.749525 3.92915 20
    endloop
  endfacet
  facet normal -0.248683 -0.968585 -0
    outer loop
      vertex 1.23607 3.80423 20
      vertex 0.749525 3.92915 -10
      vertex 1.23607 3.80423 -10
    endloop
  endfacet
  facet normal 0.368128 -0.929775 0
    outer loop
      vertex -1.70312 3.61931 -10
      vertex -1.23607 3.80423 20
      vertex -1.70312 3.61931 20
    endloop
  endfacet
  facet normal 0.368128 -0.929775 0
    outer loop
      vertex -1.23607 3.80423 20
      vertex -1.70312 3.61931 -10
      vertex -1.23607 3.80423 -10
    endloop
  endfacet
  facet normal 0.248683 0.968585 -0
    outer loop
      vertex -0.749525 -3.92915 -10
      vertex -1.23607 -3.80423 20
      vertex -0.749525 -3.92915 20
    endloop
  endfacet
  facet normal 0.248683 0.968585 0
    outer loop
      vertex -1.23607 -3.80423 20
      vertex -0.749525 -3.92915 -10
      vertex -1.23607 -3.80423 -10
    endloop
  endfacet
  facet normal -0.770509 0.637429 0
    outer loop
      vertex 2.91587 -2.73819 -10
      vertex 3.23607 -2.35114 20
      vertex 3.23607 -2.35114 -10
    endloop
  endfacet
  facet normal -0.770509 0.637429 0
    outer loop
      vertex 3.23607 -2.35114 20
      vertex 2.91587 -2.73819 -10
      vertex 2.91587 -2.73819 20
    endloop
  endfacet
  facet normal 0.481759 -0.876304 0
    outer loop
      vertex -2.14331 3.37731 -10
      vertex -1.70312 3.61931 20
      vertex -2.14331 3.37731 20
    endloop
  endfacet
  facet normal 0.481759 -0.876304 0
    outer loop
      vertex -1.70312 3.61931 20
      vertex -2.14331 3.37731 -10
      vertex -1.70312 3.61931 -10
    endloop
  endfacet
  facet normal 0 1 -0
    outer loop
      vertex 0.251162 -3.99211 -10
      vertex -0.251162 -3.99211 20
      vertex 0.251162 -3.99211 20
    endloop
  endfacet
  facet normal 0 1 0
    outer loop
      vertex -0.251162 -3.99211 20
      vertex 0.251162 -3.99211 -10
      vertex -0.251162 -3.99211 -10
    endloop
  endfacet
  facet normal -0.982286 0.187389 0
    outer loop
      vertex 3.87433 -0.994759 -10
      vertex 3.96846 -0.501332 20
      vertex 3.96846 -0.501332 -10
    endloop
  endfacet
  facet normal -0.982286 0.187389 0
    outer loop
      vertex 3.96846 -0.501332 20
      vertex 3.87433 -0.994759 -10
      vertex 3.87433 -0.994759 20
    endloop
  endfacet
  facet normal 0.951061 -0.309004 0
    outer loop
      vertex -3.87433 0.994759 20
      vertex -3.71911 1.4725 -10
      vertex -3.71911 1.4725 20
    endloop
  endfacet
  facet normal 0.951061 -0.309004 0
    outer loop
      vertex -3.71911 1.4725 -10
      vertex -3.87433 0.994759 20
      vertex -3.87433 0.994759 -10
    endloop
  endfacet
  facet normal 0.587786 0.809017 -0
    outer loop
      vertex -2.14331 -3.37731 -10
      vertex -2.5497 -3.08205 20
      vertex -2.14331 -3.37731 20
    endloop
  endfacet
  facet normal 0.587786 0.809017 0
    outer loop
      vertex -2.5497 -3.08205 20
      vertex -2.14331 -3.37731 -10
      vertex -2.5497 -3.08205 -10
    endloop
  endfacet
  facet normal -0.770509 -0.637429 0
    outer loop
      vertex 3.23607 2.35114 -10
      vertex 2.91587 2.73819 20
      vertex 2.91587 2.73819 -10
    endloop
  endfacet
  facet normal -0.770509 -0.637429 0
    outer loop
      vertex 2.91587 2.73819 20
      vertex 3.23607 2.35114 -10
      vertex 3.23607 2.35114 20
    endloop
  endfacet
  facet normal -0.481759 -0.876304 0
    outer loop
      vertex 1.70312 3.61931 -10
      vertex 2.14331 3.37731 20
      vertex 1.70312 3.61931 20
    endloop
  endfacet
  facet normal -0.481759 -0.876304 -0
    outer loop
      vertex 2.14331 3.37731 20
      vertex 1.70312 3.61931 -10
      vertex 2.14331 3.37731 -10
    endloop
  endfacet
  facet normal -0.998027 0.0627883 0
    outer loop
      vertex 3.96846 -0.501332 -10
      vertex 4 0 20
      vertex 4 0 -10
    endloop
  endfacet
  facet normal -0.998027 0.0627883 0
    outer loop
      vertex 4 0 20
      vertex 3.96846 -0.501332 -10
      vertex 3.96846 -0.501332 20
    endloop
  endfacet
  facet normal -0.684551 -0.728965 0
    outer loop
      vertex 2.5497 3.08205 -10
      vertex 2.91587 2.73819 20
      vertex 2.5497 3.08205 20
    endloop
  endfacet
  facet normal -0.684551 -0.728965 -0
    outer loop
      vertex 2.91587 2.73819 20
      vertex 2.5497 3.08205 -10
      vertex 2.91587 2.73819 -10
    endloop
  endfacet
  facet normal 0.951061 0.309004 0
    outer loop
      vertex -3.71911 -1.4725 20
      vertex -3.87433 -0.994759 -10
      vertex -3.87433 -0.994759 20
    endloop
  endfacet
  facet normal 0.951061 0.309004 0
    outer loop
      vertex -3.87433 -0.994759 -10
      vertex -3.71911 -1.4725 20
      vertex -3.71911 -1.4725 -10
    endloop
  endfacet
  facet normal 0.770509 -0.637429 0
    outer loop
      vertex -3.23607 2.35114 20
      vertex -2.91587 2.73819 -10
      vertex -2.91587 2.73819 20
    endloop
  endfacet
  facet normal 0.770509 -0.637429 0
    outer loop
      vertex -2.91587 2.73819 -10
      vertex -3.23607 2.35114 20
      vertex -3.23607 2.35114 -10
    endloop
  endfacet
  facet normal 0.770509 0.637429 0
    outer loop
      vertex -2.91587 -2.73819 20
      vertex -3.23607 -2.35114 -10
      vertex -3.23607 -2.35114 20
    endloop
  endfacet
  facet normal 0.770509 0.637429 0
    outer loop
      vertex -3.23607 -2.35114 -10
      vertex -2.91587 -2.73819 20
      vertex -2.91587 -2.73819 -10
    endloop
  endfacet
  facet normal -0.684551 0.728965 0
    outer loop
      vertex 2.91587 -2.73819 -10
      vertex 2.5497 -3.08205 20
      vertex 2.91587 -2.73819 20
    endloop
  endfacet
  facet normal -0.684551 0.728965 0
    outer loop
      vertex 2.5497 -3.08205 20
      vertex 2.91587 -2.73819 -10
      vertex 2.5497 -3.08205 -10
    endloop
  endfacet
  facet normal 0.998027 -0.0627883 0
    outer loop
      vertex -4 0 20
      vertex -3.96846 0.501332 -10
      vertex -3.96846 0.501332 20
    endloop
  endfacet
  facet normal 0.998027 -0.0627883 0
    outer loop
      vertex -3.96846 0.501332 -10
      vertex -4 0 20
      vertex -4 0 -10
    endloop
  endfacet
  facet normal 0.904824 0.425786 0
    outer loop
      vertex -3.50523 -1.92701 20
      vertex -3.71911 -1.4725 -10
      vertex -3.71911 -1.4725 20
    endloop
  endfacet
  facet normal 0.904824 0.425786 0
    outer loop
      vertex -3.71911 -1.4725 -10
      vertex -3.50523 -1.92701 20
      vertex -3.50523 -1.92701 -10
    endloop
  endfacet
  facet normal -0.368128 0.929775 0
    outer loop
      vertex 1.70312 -3.61931 -10
      vertex 1.23607 -3.80423 20
      vertex 1.70312 -3.61931 20
    endloop
  endfacet
  facet normal -0.368128 0.929775 0
    outer loop
      vertex 1.23607 -3.80423 20
      vertex 1.70312 -3.61931 -10
      vertex 1.23607 -3.80423 -10
    endloop
  endfacet
  facet normal -0.368128 -0.929775 0
    outer loop
      vertex 1.23607 3.80423 -10
      vertex 1.70312 3.61931 20
      vertex 1.23607 3.80423 20
    endloop
  endfacet
  facet normal -0.368128 -0.929775 -0
    outer loop
      vertex 1.70312 3.61931 20
      vertex 1.23607 3.80423 -10
      vertex 1.70312 3.61931 -10
    endloop
  endfacet
  facet normal 0.587786 -0.809017 0
    outer loop
      vertex -2.5497 3.08205 -10
      vertex -2.14331 3.37731 20
      vertex -2.5497 3.08205 20
    endloop
  endfacet
  facet normal 0.587786 -0.809017 0
    outer loop
      vertex -2.14331 3.37731 20
      vertex -2.5497 3.08205 -10
      vertex -2.14331 3.37731 -10
    endloop
  endfacet
  facet normal 0.125337 0.992114 -0
    outer loop
      vertex -0.251162 -3.99211 -10
      vertex -0.749525 -3.92915 20
      vertex -0.251162 -3.99211 20
    endloop
  endfacet
  facet normal 0.125337 0.992114 0
    outer loop
      vertex -0.749525 -3.92915 20
      vertex -0.251162 -3.99211 -10
      vertex -0.749525 -3.92915 -10
    endloop
  endfacet
  facet normal -0.125337 -0.992114 0
    outer loop
      vertex 0.251162 3.99211 -10
      vertex 0.749525 3.92915 20
      vertex 0.251162 3.99211 20
    endloop
  endfacet
  facet normal -0.125337 -0.992114 -0
    outer loop
      vertex 0.749525 3.92915 20
      vertex 0.251162 3.99211 -10
      vertex 0.749525 3.92915 -10
    endloop
  endfacet
  facet normal 0.481759 0.876304 -0
    outer loop
      vertex -1.70312 -3.61931 -10
      vertex -2.14331 -3.37731 20
      vertex -1.70312 -3.61931 20
    endloop
  endfacet
  facet normal 0.481759 0.876304 0
    outer loop
      vertex -2.14331 -3.37731 20
      vertex -1.70312 -3.61931 -10
      vertex -2.14331 -3.37731 -10
    endloop
  endfacet
  facet normal 0 -1 0
    outer loop
      vertex -0.251162 3.99211 -10
      vertex 0.251162 3.99211 20
      vertex -0.251162 3.99211 20
    endloop
  endfacet
  facet normal 0 -1 -0
    outer loop
      vertex 0.251162 3.99211 20
      vertex -0.251162 3.99211 -10
      vertex 0.251162 3.99211 -10
    endloop
  endfacet
  facet normal -0.904824 0.425786 0
    outer loop
      vertex 3.50523 -1.92701 -10
      vertex 3.71911 -1.4725 20
      vertex 3.71911 -1.4725 -10
    endloop
  endfacet
  facet normal -0.904824 0.425786 0
    outer loop
      vertex 3.71911 -1.4725 20
      vertex 3.50523 -1.92701 -10
      vertex 3.50523 -1.92701 20
    endloop
  endfacet
  facet normal -0.587786 0.809017 0
    outer loop
      vertex 2.5497 -3.08205 -10
      vertex 2.14331 -3.37731 20
      vertex 2.5497 -3.08205 20
    endloop
  endfacet
  facet normal -0.587786 0.809017 0
    outer loop
      vertex 2.14331 -3.37731 20
      vertex 2.5497 -3.08205 -10
      vertex 2.14331 -3.37731 -10
    endloop
  endfacet
  facet normal 0.844329 -0.535825 0
    outer loop
      vertex -3.50523 1.92701 20
      vertex -3.23607 2.35114 -10
      vertex -3.23607 2.35114 20
    endloop
  endfacet
  facet normal 0.844329 -0.535825 0
    outer loop
      vertex -3.23607 2.35114 -10
      vertex -3.50523 1.92701 20
      vertex -3.50523 1.92701 -10
    endloop
  endfacet
  facet normal 0.904824 -0.425786 0
    outer loop
      vertex -3.71911 1.4725 20
      vertex -3.50523 1.92701 -10
      vertex -3.50523 1.92701 20
    endloop
  endfacet
  facet normal 0.904824 -0.425786 0
    outer loop
      vertex -3.50523 1.92701 -10
      vertex -3.71911 1.4725 20
      vertex -3.71911 1.4725 -10
    endloop
  endfacet
  facet normal 0.368128 0.929775 -0
    outer loop
      vertex -1.23607 -3.80423 -10
      vertex -1.70312 -3.61931 20
      vertex -1.23607 -3.80423 20
    endloop
  endfacet
  facet normal 0.368128 0.929775 0
    outer loop
      vertex -1.70312 -3.61931 20
      vertex -1.23607 -3.80423 -10
      vertex -1.70312 -3.61931 -10
    endloop
  endfacet
endsolid OpenSCAD_Model
