solid OpenSCAD_Model
  facet normal 0.587791 -0.809013 0
    outer loop
      vertex 25.4518 -40.1056 -10
      vertex 30.2776 -36.5994 0
      vertex 25.4518 -40.1056 0
    endloop
  endfacet
  facet normal 0.587791 -0.809013 0
    outer loop
      vertex 30.2776 -36.5994 0
      vertex 25.4518 -40.1056 -10
      vertex 30.2776 -36.5994 -10
    endloop
  endfacet
  facet normal 0.982286 0.187389 0
    outer loop
      vertex 47.1255 5.95333 0
      vertex 46.0077 11.8128 -10
      vertex 46.0077 11.8128 0
    endloop
  endfacet
  facet normal 0.982286 0.187389 0
    outer loop
      vertex 46.0077 11.8128 -10
      vertex 47.1255 5.95333 0
      vertex 47.1255 5.95333 -10
    endloop
  endfacet
  facet normal 0.998027 0.0627819 0
    outer loop
      vertex 47.5 0 0
      vertex 47.1255 5.95333 -10
      vertex 47.1255 5.95333 0
    endloop
  endfacet
  facet normal 0.998027 0.0627819 0
    outer loop
      vertex 47.1255 5.95333 -10
      vertex 47.5 0 0
      vertex 47.5 0 -10
    endloop
  endfacet
  facet normal 0.770514 -0.637423 0
    outer loop
      vertex 34.626 -32.516 0
      vertex 38.4283 -27.9198 -10
      vertex 38.4283 -27.9198 0
    endloop
  endfacet
  facet normal 0.770514 -0.637423 0
    outer loop
      vertex 38.4283 -27.9198 -10
      vertex 34.626 -32.516 0
      vertex 34.626 -32.516 -10
    endloop
  endfacet
  facet normal 0.844325 -0.535832 0
    outer loop
      vertex 38.4283 -27.9198 0
      vertex 41.6246 -22.8833 -10
      vertex 41.6246 -22.8833 0
    endloop
  endfacet
  facet normal 0.844325 -0.535832 0
    outer loop
      vertex 41.6246 -22.8833 -10
      vertex 38.4283 -27.9198 0
      vertex 38.4283 -27.9198 -10
    endloop
  endfacet
  facet normal 0.368125 -0.929776 0
    outer loop
      vertex 14.6783 -45.1752 -10
      vertex 20.2245 -42.9793 0
      vertex 14.6783 -45.1752 0
    endloop
  endfacet
  facet normal 0.368125 -0.929776 0
    outer loop
      vertex 20.2245 -42.9793 0
      vertex 14.6783 -45.1752 -10
      vertex 20.2245 -42.9793 -10
    endloop
  endfacet
  facet normal 0.481749 0.876309 -0
    outer loop
      vertex 25.4518 40.1056 -10
      vertex 20.2245 42.9793 0
      vertex 25.4518 40.1056 0
    endloop
  endfacet
  facet normal 0.481749 0.876309 0
    outer loop
      vertex 20.2245 42.9793 0
      vertex 25.4518 40.1056 -10
      vertex 20.2245 42.9793 -10
    endloop
  endfacet
  facet normal -0.904829 -0.425776 0
    outer loop
      vertex -41.6246 -22.8833 -10
      vertex -44.1644 -17.4859 0
      vertex -44.1644 -17.4859 -10
    endloop
  endfacet
  facet normal -0.904829 -0.425776 0
    outer loop
      vertex -44.1644 -17.4859 0
      vertex -41.6246 -22.8833 -10
      vertex -41.6246 -22.8833 0
    endloop
  endfacet
  facet normal 0.248681 -0.968586 0
    outer loop
      vertex 8.90061 -46.6586 -10
      vertex 14.6783 -45.1752 0
      vertex 8.90061 -46.6586 0
    endloop
  endfacet
  facet normal 0.248681 -0.968586 0
    outer loop
      vertex 14.6783 -45.1752 0
      vertex 8.90061 -46.6586 -10
      vertex 14.6783 -45.1752 -10
    endloop
  endfacet
  facet normal 0.481749 -0.876309 0
    outer loop
      vertex 20.2245 -42.9793 -10
      vertex 25.4518 -40.1056 0
      vertex 20.2245 -42.9793 0
    endloop
  endfacet
  facet normal 0.481749 -0.876309 0
    outer loop
      vertex 25.4518 -40.1056 0
      vertex 20.2245 -42.9793 -10
      vertex 25.4518 -40.1056 -10
    endloop
  endfacet
  facet normal 0.368125 0.929776 -0
    outer loop
      vertex 20.2245 42.9793 -10
      vertex 14.6783 45.1752 0
      vertex 20.2245 42.9793 0
    endloop
  endfacet
  facet normal 0.368125 0.929776 0
    outer loop
      vertex 14.6783 45.1752 0
      vertex 20.2245 42.9793 -10
      vertex 14.6783 45.1752 -10
    endloop
  endfacet
  facet normal 0.904829 -0.425776 0
    outer loop
      vertex 41.6246 -22.8833 0
      vertex 44.1644 -17.4859 -10
      vertex 44.1644 -17.4859 0
    endloop
  endfacet
  facet normal 0.904829 -0.425776 0
    outer loop
      vertex 44.1644 -17.4859 -10
      vertex 41.6246 -22.8833 0
      vertex 41.6246 -22.8833 -10
    endloop
  endfacet
  facet normal 0 -1 0
    outer loop
      vertex -2.98255 -47.4063 -10
      vertex 2.98255 -47.4063 0
      vertex -2.98255 -47.4063 0
    endloop
  endfacet
  facet normal 0 -1 -0
    outer loop
      vertex 2.98255 -47.4063 0
      vertex -2.98255 -47.4063 -10
      vertex 2.98255 -47.4063 -10
    endloop
  endfacet
  facet normal 0.125346 -0.992113 0
    outer loop
      vertex 2.98255 -47.4063 -10
      vertex 8.90061 -46.6586 0
      vertex 2.98255 -47.4063 0
    endloop
  endfacet
  facet normal 0.125346 -0.992113 0
    outer loop
      vertex 8.90061 -46.6586 0
      vertex 2.98255 -47.4063 -10
      vertex 8.90061 -46.6586 -10
    endloop
  endfacet
  facet normal -0.998027 -0.0627819 0
    outer loop
      vertex -47.1255 -5.95333 -10
      vertex -47.5 0 0
      vertex -47.5 0 -10
    endloop
  endfacet
  facet normal -0.998027 -0.0627819 0
    outer loop
      vertex -47.5 0 0
      vertex -47.1255 -5.95333 -10
      vertex -47.1255 -5.95333 0
    endloop
  endfacet
  facet normal 0.248681 0.968586 -0
    outer loop
      vertex 14.6783 45.1752 -10
      vertex 8.90061 46.6586 0
      vertex 14.6783 45.1752 0
    endloop
  endfacet
  facet normal 0.248681 0.968586 0
    outer loop
      vertex 8.90061 46.6586 0
      vertex 14.6783 45.1752 -10
      vertex 8.90061 46.6586 -10
    endloop
  endfacet
  facet normal -0.368125 -0.929776 0
    outer loop
      vertex -20.2245 -42.9793 -10
      vertex -14.6783 -45.1752 0
      vertex -20.2245 -42.9793 0
    endloop
  endfacet
  facet normal -0.368125 -0.929776 -0
    outer loop
      vertex -14.6783 -45.1752 0
      vertex -20.2245 -42.9793 -10
      vertex -14.6783 -45.1752 -10
    endloop
  endfacet
  facet normal 0.951057 -0.309017 0
    outer loop
      vertex 44.1644 -17.4859 0
      vertex 46.0077 -11.8128 -10
      vertex 46.0077 -11.8128 0
    endloop
  endfacet
  facet normal 0.951057 -0.309017 0
    outer loop
      vertex 46.0077 -11.8128 -10
      vertex 44.1644 -17.4859 0
      vertex 44.1644 -17.4859 -10
    endloop
  endfacet
  facet normal 0.982286 -0.187389 0
    outer loop
      vertex 46.0077 -11.8128 0
      vertex 47.1255 -5.95333 -10
      vertex 47.1255 -5.95333 0
    endloop
  endfacet
  facet normal 0.982286 -0.187389 0
    outer loop
      vertex 47.1255 -5.95333 -10
      vertex 46.0077 -11.8128 0
      vertex 46.0077 -11.8128 -10
    endloop
  endfacet
  facet normal -0.125346 -0.992113 0
    outer loop
      vertex -8.90061 -46.6586 -10
      vertex -2.98255 -47.4063 0
      vertex -8.90061 -46.6586 0
    endloop
  endfacet
  facet normal -0.125346 -0.992113 -0
    outer loop
      vertex -2.98255 -47.4063 0
      vertex -8.90061 -46.6586 -10
      vertex -2.98255 -47.4063 -10
    endloop
  endfacet
  facet normal -0.684545 -0.72897 0
    outer loop
      vertex -34.626 -32.516 -10
      vertex -30.2776 -36.5994 0
      vertex -34.626 -32.516 0
    endloop
  endfacet
  facet normal -0.684545 -0.72897 -0
    outer loop
      vertex -30.2776 -36.5994 0
      vertex -34.626 -32.516 -10
      vertex -30.2776 -36.5994 -10
    endloop
  endfacet
  facet normal 0.587791 0.809013 -0
    outer loop
      vertex 30.2776 36.5994 -10
      vertex 25.4518 40.1056 0
      vertex 30.2776 36.5994 0
    endloop
  endfacet
  facet normal 0.587791 0.809013 0
    outer loop
      vertex 25.4518 40.1056 0
      vertex 30.2776 36.5994 -10
      vertex 25.4518 40.1056 -10
    endloop
  endfacet
  facet normal -0.951057 -0.309017 0
    outer loop
      vertex -44.1644 -17.4859 -10
      vertex -46.0077 -11.8128 0
      vertex -46.0077 -11.8128 -10
    endloop
  endfacet
  facet normal -0.951057 -0.309017 0
    outer loop
      vertex -46.0077 -11.8128 0
      vertex -44.1644 -17.4859 -10
      vertex -44.1644 -17.4859 0
    endloop
  endfacet
  facet normal -0.982286 -0.187389 0
    outer loop
      vertex -46.0077 -11.8128 -10
      vertex -47.1255 -5.95333 0
      vertex -47.1255 -5.95333 -10
    endloop
  endfacet
  facet normal -0.982286 -0.187389 0
    outer loop
      vertex -47.1255 -5.95333 0
      vertex -46.0077 -11.8128 -10
      vertex -46.0077 -11.8128 0
    endloop
  endfacet
  facet normal 0.998027 -0.0627819 0
    outer loop
      vertex 47.1255 -5.95333 0
      vertex 47.5 0 -10
      vertex 47.5 0 0
    endloop
  endfacet
  facet normal 0.998027 -0.0627819 0
    outer loop
      vertex 47.5 0 -10
      vertex 47.1255 -5.95333 0
      vertex 47.1255 -5.95333 -10
    endloop
  endfacet
  facet normal -0.844325 -0.535832 0
    outer loop
      vertex -38.4283 -27.9198 -10
      vertex -41.6246 -22.8833 0
      vertex -41.6246 -22.8833 -10
    endloop
  endfacet
  facet normal -0.844325 -0.535832 0
    outer loop
      vertex -41.6246 -22.8833 0
      vertex -38.4283 -27.9198 -10
      vertex -38.4283 -27.9198 0
    endloop
  endfacet
  facet normal 0.684545 -0.72897 0
    outer loop
      vertex 30.2776 -36.5994 -10
      vertex 34.626 -32.516 0
      vertex 30.2776 -36.5994 0
    endloop
  endfacet
  facet normal 0.684545 -0.72897 0
    outer loop
      vertex 34.626 -32.516 0
      vertex 30.2776 -36.5994 -10
      vertex 34.626 -32.516 -10
    endloop
  endfacet
  facet normal -0.481749 -0.876309 0
    outer loop
      vertex -25.4518 -40.1056 -10
      vertex -20.2245 -42.9793 0
      vertex -25.4518 -40.1056 0
    endloop
  endfacet
  facet normal -0.481749 -0.876309 -0
    outer loop
      vertex -20.2245 -42.9793 0
      vertex -25.4518 -40.1056 -10
      vertex -20.2245 -42.9793 -10
    endloop
  endfacet
  facet normal -0.770514 -0.637423 0
    outer loop
      vertex -34.626 -32.516 -10
      vertex -38.4283 -27.9198 0
      vertex -38.4283 -27.9198 -10
    endloop
  endfacet
  facet normal -0.770514 -0.637423 0
    outer loop
      vertex -38.4283 -27.9198 0
      vertex -34.626 -32.516 -10
      vertex -34.626 -32.516 0
    endloop
  endfacet
  facet normal -0.248681 -0.968586 0
    outer loop
      vertex -14.6783 -45.1752 -10
      vertex -8.90061 -46.6586 0
      vertex -14.6783 -45.1752 0
    endloop
  endfacet
  facet normal -0.248681 -0.968586 -0
    outer loop
      vertex -8.90061 -46.6586 0
      vertex -14.6783 -45.1752 -10
      vertex -8.90061 -46.6586 -10
    endloop
  endfacet
  facet normal 0 1 -0
    outer loop
      vertex 2.98255 47.4063 -10
      vertex -2.98255 47.4063 0
      vertex 2.98255 47.4063 0
    endloop
  endfacet
  facet normal 0 1 0
    outer loop
      vertex -2.98255 47.4063 0
      vertex 2.98255 47.4063 -10
      vertex -2.98255 47.4063 -10
    endloop
  endfacet
  facet normal -0.587791 -0.809013 0
    outer loop
      vertex -30.2776 -36.5994 -10
      vertex -25.4518 -40.1056 0
      vertex -30.2776 -36.5994 0
    endloop
  endfacet
  facet normal -0.587791 -0.809013 -0
    outer loop
      vertex -25.4518 -40.1056 0
      vertex -30.2776 -36.5994 -10
      vertex -25.4518 -40.1056 -10
    endloop
  endfacet
  facet normal -0.998026 0.0627958 0
    outer loop
      vertex -47.5 0 -10
      vertex -47.1854 5 0
      vertex -47.1854 5 -10
    endloop
  endfacet
  facet normal -0.998026 0.0627958 0
    outer loop
      vertex -47.1854 5 0
      vertex -47.5 0 -10
      vertex -47.5 0 0
    endloop
  endfacet
  facet normal 0.844325 0.535832 0
    outer loop
      vertex 41.6246 22.8833 0
      vertex 38.4283 27.9198 -10
      vertex 38.4283 27.9198 0
    endloop
  endfacet
  facet normal 0.844325 0.535832 0
    outer loop
      vertex 38.4283 27.9198 -10
      vertex 41.6246 22.8833 0
      vertex 41.6246 22.8833 -10
    endloop
  endfacet
  facet normal 0.951057 0.309017 0
    outer loop
      vertex 46.0077 11.8128 0
      vertex 44.1644 17.4859 -10
      vertex 44.1644 17.4859 0
    endloop
  endfacet
  facet normal 0.951057 0.309017 0
    outer loop
      vertex 44.1644 17.4859 -10
      vertex 46.0077 11.8128 0
      vertex 46.0077 11.8128 -10
    endloop
  endfacet
  facet normal 0 0 1
    outer loop
      vertex 15 0 0
      vertex 47.5 0 0
      vertex 47.1255 5.95333 0
    endloop
  endfacet
  facet normal 0 0 1
    outer loop
      vertex 14.8817 1.87999 0
      vertex 47.1255 5.95333 0
      vertex 46.0077 11.8128 0
    endloop
  endfacet
  facet normal 0 0 1
    outer loop
      vertex 47.5 0 0
      vertex 15 0 0
      vertex 47.1255 -5.95333 0
    endloop
  endfacet
  facet normal 0 0 1
    outer loop
      vertex 14.5287 3.73035 0
      vertex 46.0077 11.8128 0
      vertex 44.1644 17.4859 0
    endloop
  endfacet
  facet normal -0 0 1
    outer loop
      vertex 14.8817 -1.87999 0
      vertex 47.1255 -5.95333 0
      vertex 15 0 0
    endloop
  endfacet
  facet normal 0 0 1
    outer loop
      vertex 13.9466 5.52187 0
      vertex 44.1644 17.4859 0
      vertex 41.6246 22.8833 0
    endloop
  endfacet
  facet normal 0 0 1
    outer loop
      vertex 47.1255 -5.95333 0
      vertex 14.8817 -1.87999 0
      vertex 46.0077 -11.8128 0
    endloop
  endfacet
  facet normal 0 0 1
    outer loop
      vertex 13.1446 7.2263 0
      vertex 41.6246 22.8833 0
      vertex 38.4283 27.9198 0
    endloop
  endfacet
  facet normal -0 0 1
    outer loop
      vertex 14.5287 -3.73035 0
      vertex 46.0077 -11.8128 0
      vertex 14.8817 -1.87999 0
    endloop
  endfacet
  facet normal 0 0 1
    outer loop
      vertex 12.1353 8.81677 0
      vertex 38.4283 27.9198 0
      vertex 34.626 32.516 0
    endloop
  endfacet
  facet normal 0 0 1
    outer loop
      vertex 46.0077 -11.8128 0
      vertex 14.5287 -3.73035 0
      vertex 44.1644 -17.4859 0
    endloop
  endfacet
  facet normal 0 0 1
    outer loop
      vertex 10.9345 10.2682 0
      vertex 34.626 32.516 0
      vertex 30.2776 36.5994 0
    endloop
  endfacet
  facet normal -0 0 1
    outer loop
      vertex 13.9466 -5.52187 0
      vertex 44.1644 -17.4859 0
      vertex 14.5287 -3.73035 0
    endloop
  endfacet
  facet normal 0 0 1
    outer loop
      vertex 9.56136 11.5577 0
      vertex 30.2776 36.5994 0
      vertex 25.4518 40.1056 0
    endloop
  endfacet
  facet normal 0 0 1
    outer loop
      vertex 44.1644 -17.4859 0
      vertex 13.9466 -5.52187 0
      vertex 41.6246 -22.8833 0
    endloop
  endfacet
  facet normal 0 0 1
    outer loop
      vertex 8.0374 12.6649 0
      vertex 25.4518 40.1056 0
      vertex 20.2245 42.9793 0
    endloop
  endfacet
  facet normal -0 0 1
    outer loop
      vertex 13.1446 -7.2263 0
      vertex 41.6246 -22.8833 0
      vertex 13.9466 -5.52187 0
    endloop
  endfacet
  facet normal 0 0 1
    outer loop
      vertex 41.6246 -22.8833 0
      vertex 13.1446 -7.2263 0
      vertex 38.4283 -27.9198 0
    endloop
  endfacet
  facet normal 0 0 1
    outer loop
      vertex 47.1255 5.95333 0
      vertex 14.8817 1.87999 0
      vertex 15 0 0
    endloop
  endfacet
  facet normal 0 0 1
    outer loop
      vertex 5 14.1214 0
      vertex 20.2245 42.9793 0
      vertex 14.6783 45.1752 0
    endloop
  endfacet
  facet normal 0 0 1
    outer loop
      vertex 46.0077 11.8128 0
      vertex 14.5287 3.73035 0
      vertex 14.8817 1.87999 0
    endloop
  endfacet
  facet normal 0 0 1
    outer loop
      vertex 44.1644 17.4859 0
      vertex 13.9466 5.52187 0
      vertex 14.5287 3.73035 0
    endloop
  endfacet
  facet normal 0 0 1
    outer loop
      vertex 41.6246 22.8833 0
      vertex 13.1446 7.2263 0
      vertex 13.9466 5.52187 0
    endloop
  endfacet
  facet normal 0 0 1
    outer loop
      vertex 38.4283 27.9198 0
      vertex 12.1353 8.81677 0
      vertex 13.1446 7.2263 0
    endloop
  endfacet
  facet normal 0 0 1
    outer loop
      vertex 34.626 32.516 0
      vertex 10.9345 10.2682 0
      vertex 12.1353 8.81677 0
    endloop
  endfacet
  facet normal 0 0 1
    outer loop
      vertex 30.2776 36.5994 0
      vertex 9.56136 11.5577 0
      vertex 10.9345 10.2682 0
    endloop
  endfacet
  facet normal 0 0 1
    outer loop
      vertex 5 14.1214 0
      vertex 14.6783 45.1752 0
      vertex 8.90061 46.6586 0
    endloop
  endfacet
  facet normal 0 0 1
    outer loop
      vertex 25.4518 40.1056 0
      vertex 8.0374 12.6649 0
      vertex 9.56136 11.5577 0
    endloop
  endfacet
  facet normal 0 0 1
    outer loop
      vertex 20.2245 42.9793 0
      vertex 6.38669 13.5724 0
      vertex 8.0374 12.6649 0
    endloop
  endfacet
  facet normal 0 0 1
    outer loop
      vertex 5 14.1214 0
      vertex 8.90061 46.6586 0
      vertex 5 47.1514 0
    endloop
  endfacet
  facet normal 0 0 1
    outer loop
      vertex 2.98255 47.4063 0
      vertex 5 47.1514 0
      vertex 8.90061 46.6586 0
    endloop
  endfacet
  facet normal 0 0 1
    outer loop
      vertex 2.98255 47.4063 0
      vertex 2.98254 47.4063 0
      vertex 5 47.1514 0
    endloop
  endfacet
  facet normal 0 0 0
    outer loop
      vertex 2.98255 47.4063 0
      vertex -2.98254 47.4063 0
      vertex 2.98254 47.4063 0
    endloop
  endfacet
  facet normal 0 0 0
    outer loop
      vertex -2.98255 47.4063 0
      vertex -2.98254 47.4063 0
      vertex 2.98255 47.4063 0
    endloop
  endfacet
  facet normal -0 0 1
    outer loop
      vertex -2.98255 47.4063 0
      vertex -5 47.1514 0
      vertex -2.98254 47.4063 0
    endloop
  endfacet
  facet normal -0 0 1
    outer loop
      vertex 12.1353 -8.81677 0
      vertex 38.4283 -27.9198 0
      vertex 13.1446 -7.2263 0
    endloop
  endfacet
  facet normal 0 0 1
    outer loop
      vertex 38.4283 -27.9198 0
      vertex 12.1353 -8.81677 0
      vertex 34.626 -32.516 0
    endloop
  endfacet
  facet normal -0 0 1
    outer loop
      vertex 10.9345 -10.2682 0
      vertex 34.626 -32.516 0
      vertex 12.1353 -8.81677 0
    endloop
  endfacet
  facet normal 0 0 1
    outer loop
      vertex 34.626 -32.516 0
      vertex 10.9345 -10.2682 0
      vertex 30.2776 -36.5994 0
    endloop
  endfacet
  facet normal -0 0 1
    outer loop
      vertex 9.56136 -11.5577 0
      vertex 30.2776 -36.5994 0
      vertex 10.9345 -10.2682 0
    endloop
  endfacet
  facet normal 0 0 1
    outer loop
      vertex 30.2776 -36.5994 0
      vertex 9.56136 -11.5577 0
      vertex 25.4518 -40.1056 0
    endloop
  endfacet
  facet normal -0 0 1
    outer loop
      vertex 8.0374 -12.6649 0
      vertex 25.4518 -40.1056 0
      vertex 9.56136 -11.5577 0
    endloop
  endfacet
  facet normal 0 0 1
    outer loop
      vertex 25.4518 -40.1056 0
      vertex 8.0374 -12.6649 0
      vertex 20.2245 -42.9793 0
    endloop
  endfacet
  facet normal -0 0 1
    outer loop
      vertex 6.38669 -13.5724 0
      vertex 20.2245 -42.9793 0
      vertex 8.0374 -12.6649 0
    endloop
  endfacet
  facet normal 0 0 1
    outer loop
      vertex 20.2245 -42.9793 0
      vertex 6.38669 -13.5724 0
      vertex 14.6783 -45.1752 0
    endloop
  endfacet
  facet normal -0 0 1
    outer loop
      vertex 4.63525 -14.2658 0
      vertex 14.6783 -45.1752 0
      vertex 6.38669 -13.5724 0
    endloop
  endfacet
  facet normal 0 0 1
    outer loop
      vertex 14.6783 -45.1752 0
      vertex 4.63525 -14.2658 0
      vertex 8.90061 -46.6586 0
    endloop
  endfacet
  facet normal -0 0 1
    outer loop
      vertex 2.81071 -14.7343 0
      vertex 8.90061 -46.6586 0
      vertex 4.63525 -14.2658 0
    endloop
  endfacet
  facet normal 0 0 1
    outer loop
      vertex 8.90061 -46.6586 0
      vertex 2.81071 -14.7343 0
      vertex 2.98255 -47.4063 0
    endloop
  endfacet
  facet normal -0 0 1
    outer loop
      vertex 0.941849 -14.9704 0
      vertex 2.98255 -47.4063 0
      vertex 2.81071 -14.7343 0
    endloop
  endfacet
  facet normal -0 0 1
    outer loop
      vertex -0.941849 -14.9704 0
      vertex 2.98255 -47.4063 0
      vertex 0.941849 -14.9704 0
    endloop
  endfacet
  facet normal 0 0 1
    outer loop
      vertex -2.98255 -47.4063 0
      vertex -0.941849 -14.9704 0
      vertex -2.81071 -14.7343 0
    endloop
  endfacet
  facet normal 0 0 1
    outer loop
      vertex -0.941849 -14.9704 0
      vertex -2.98255 -47.4063 0
      vertex 2.98255 -47.4063 0
    endloop
  endfacet
  facet normal 0 0 1
    outer loop
      vertex -8.90061 -46.6586 0
      vertex -2.81071 -14.7343 0
      vertex -4.63525 -14.2658 0
    endloop
  endfacet
  facet normal 0 0 1
    outer loop
      vertex -14.6783 -45.1752 0
      vertex -4.63525 -14.2658 0
      vertex -6.38669 -13.5724 0
    endloop
  endfacet
  facet normal 0 0 1
    outer loop
      vertex -20.2245 -42.9793 0
      vertex -6.38669 -13.5724 0
      vertex -8.0374 -12.6649 0
    endloop
  endfacet
  facet normal 0 0 1
    outer loop
      vertex -2.81071 -14.7343 0
      vertex -8.90061 -46.6586 0
      vertex -2.98255 -47.4063 0
    endloop
  endfacet
  facet normal 0 0 1
    outer loop
      vertex -25.4518 -40.1056 0
      vertex -8.0374 -12.6649 0
      vertex -9.56136 -11.5577 0
    endloop
  endfacet
  facet normal 0 0 1
    outer loop
      vertex -30.2776 -36.5994 0
      vertex -9.56136 -11.5577 0
      vertex -10.9345 -10.2682 0
    endloop
  endfacet
  facet normal 0 0 1
    outer loop
      vertex -34.626 -32.516 0
      vertex -10.9345 -10.2682 0
      vertex -12.1353 -8.81677 0
    endloop
  endfacet
  facet normal 0 0 1
    outer loop
      vertex -38.4283 -27.9198 0
      vertex -12.1353 -8.81677 0
      vertex -13.1446 -7.2263 0
    endloop
  endfacet
  facet normal 0 0 1
    outer loop
      vertex -41.6246 -22.8833 0
      vertex -13.1446 -7.2263 0
      vertex -13.9466 -5.52187 0
    endloop
  endfacet
  facet normal 0 0 1
    outer loop
      vertex -44.1644 -17.4859 0
      vertex -13.9466 -5.52187 0
      vertex -14.1162 -5 0
    endloop
  endfacet
  facet normal 0 0 1
    outer loop
      vertex -4.63525 -14.2658 0
      vertex -14.6783 -45.1752 0
      vertex -8.90061 -46.6586 0
    endloop
  endfacet
  facet normal 0 0 1
    outer loop
      vertex -6.38669 -13.5724 0
      vertex -20.2245 -42.9793 0
      vertex -14.6783 -45.1752 0
    endloop
  endfacet
  facet normal 0 0 1
    outer loop
      vertex -8.0374 -12.6649 0
      vertex -25.4518 -40.1056 0
      vertex -20.2245 -42.9793 0
    endloop
  endfacet
  facet normal 0 0 1
    outer loop
      vertex -9.56136 -11.5577 0
      vertex -30.2776 -36.5994 0
      vertex -25.4518 -40.1056 0
    endloop
  endfacet
  facet normal 0 0 1
    outer loop
      vertex -10.9345 -10.2682 0
      vertex -34.626 -32.516 0
      vertex -30.2776 -36.5994 0
    endloop
  endfacet
  facet normal 0 0 1
    outer loop
      vertex -12.1353 -8.81677 0
      vertex -38.4283 -27.9198 0
      vertex -34.626 -32.516 0
    endloop
  endfacet
  facet normal 0 0 1
    outer loop
      vertex -13.1446 -7.2263 0
      vertex -41.6246 -22.8833 0
      vertex -38.4283 -27.9198 0
    endloop
  endfacet
  facet normal 0 0 1
    outer loop
      vertex -13.9466 -5.52187 0
      vertex -44.1644 -17.4859 0
      vertex -41.6246 -22.8833 0
    endloop
  endfacet
  facet normal 0 0 1
    outer loop
      vertex -14.1162 -5 0
      vertex -46.0077 -11.8128 0
      vertex -44.1644 -17.4859 0
    endloop
  endfacet
  facet normal 0 0 1
    outer loop
      vertex -14.1162 -5 0
      vertex -47.1255 -5.95333 0
      vertex -46.0077 -11.8128 0
    endloop
  endfacet
  facet normal -0 0 1
    outer loop
      vertex -47.1854 -5 0
      vertex -47.1255 -5.95333 0
      vertex -14.1162 -5 0
    endloop
  endfacet
  facet normal 0 0 1
    outer loop
      vertex -47.1255 -5.95333 0
      vertex -47.1854 -5 0
      vertex -47.5 0 0
    endloop
  endfacet
  facet normal 0 0 1
    outer loop
      vertex 20.2245 42.9793 0
      vertex 5 14.1214 0
      vertex 6.38669 13.5724 0
    endloop
  endfacet
  facet normal 0.125346 0.992113 -0
    outer loop
      vertex 8.90061 46.6586 -10
      vertex 2.98255 47.4063 0
      vertex 8.90061 46.6586 0
    endloop
  endfacet
  facet normal 0.125346 0.992113 0
    outer loop
      vertex 2.98255 47.4063 0
      vertex 8.90061 46.6586 -10
      vertex 2.98255 47.4063 -10
    endloop
  endfacet
  facet normal 0.770514 0.637423 0
    outer loop
      vertex 38.4283 27.9198 0
      vertex 34.626 32.516 -10
      vertex 34.626 32.516 0
    endloop
  endfacet
  facet normal 0.770514 0.637423 0
    outer loop
      vertex 34.626 32.516 -10
      vertex 38.4283 27.9198 0
      vertex 38.4283 27.9198 -10
    endloop
  endfacet
  facet normal 0.904829 0.425776 0
    outer loop
      vertex 44.1644 17.4859 0
      vertex 41.6246 22.8833 -10
      vertex 41.6246 22.8833 0
    endloop
  endfacet
  facet normal 0.904829 0.425776 0
    outer loop
      vertex 41.6246 22.8833 -10
      vertex 44.1644 17.4859 0
      vertex 44.1644 17.4859 -10
    endloop
  endfacet
  facet normal 0.684545 0.72897 -0
    outer loop
      vertex 34.626 32.516 -10
      vertex 30.2776 36.5994 0
      vertex 34.626 32.516 0
    endloop
  endfacet
  facet normal 0.684545 0.72897 0
    outer loop
      vertex 30.2776 36.5994 0
      vertex 34.626 32.516 -10
      vertex 30.2776 36.5994 -10
    endloop
  endfacet
  facet normal -0.125351 0.992112 0
    outer loop
      vertex -2.98255 47.4063 -10
      vertex -5 47.1514 0
      vertex -2.98255 47.4063 0
    endloop
  endfacet
  facet normal -0.125351 0.992112 0
    outer loop
      vertex -5 47.1514 0
      vertex -2.98255 47.4063 -10
      vertex -5 47.1514 -10
    endloop
  endfacet
  facet normal 0 0 -1
    outer loop
      vertex 4 0 -10
      vertex 47.5 0 -10
      vertex 47.1255 -5.95333 -10
    endloop
  endfacet
  facet normal 0 0 -1
    outer loop
      vertex 3.96846 -0.501332 -10
      vertex 47.1255 -5.95333 -10
      vertex 46.0077 -11.8128 -10
    endloop
  endfacet
  facet normal 0 0 -1
    outer loop
      vertex 47.5 0 -10
      vertex 4 0 -10
      vertex 47.1255 5.95333 -10
    endloop
  endfacet
  facet normal 0 0 -1
    outer loop
      vertex 3.87433 -0.994759 -10
      vertex 46.0077 -11.8128 -10
      vertex 44.1644 -17.4859 -10
    endloop
  endfacet
  facet normal 0 0 -1
    outer loop
      vertex 3.96846 0.501332 -10
      vertex 47.1255 5.95333 -10
      vertex 4 0 -10
    endloop
  endfacet
  facet normal 0 0 -1
    outer loop
      vertex 3.71911 -1.4725 -10
      vertex 44.1644 -17.4859 -10
      vertex 41.6246 -22.8833 -10
    endloop
  endfacet
  facet normal -0 0 -1
    outer loop
      vertex 47.1255 5.95333 -10
      vertex 3.96846 0.501332 -10
      vertex 46.0077 11.8128 -10
    endloop
  endfacet
  facet normal 0 0 -1
    outer loop
      vertex 3.50523 -1.92701 -10
      vertex 41.6246 -22.8833 -10
      vertex 38.4283 -27.9198 -10
    endloop
  endfacet
  facet normal 0 0 -1
    outer loop
      vertex 3.87433 0.994759 -10
      vertex 46.0077 11.8128 -10
      vertex 3.96846 0.501332 -10
    endloop
  endfacet
  facet normal 0 0 -1
    outer loop
      vertex 3.23607 -2.35114 -10
      vertex 38.4283 -27.9198 -10
      vertex 34.626 -32.516 -10
    endloop
  endfacet
  facet normal -0 0 -1
    outer loop
      vertex 46.0077 11.8128 -10
      vertex 3.87433 0.994759 -10
      vertex 44.1644 17.4859 -10
    endloop
  endfacet
  facet normal 0 0 -1
    outer loop
      vertex 2.91587 -2.73819 -10
      vertex 34.626 -32.516 -10
      vertex 30.2776 -36.5994 -10
    endloop
  endfacet
  facet normal 0 0 -1
    outer loop
      vertex 3.71911 1.4725 -10
      vertex 44.1644 17.4859 -10
      vertex 3.87433 0.994759 -10
    endloop
  endfacet
  facet normal 0 0 -1
    outer loop
      vertex 2.5497 -3.08205 -10
      vertex 30.2776 -36.5994 -10
      vertex 25.4518 -40.1056 -10
    endloop
  endfacet
  facet normal -0 0 -1
    outer loop
      vertex 44.1644 17.4859 -10
      vertex 3.71911 1.4725 -10
      vertex 41.6246 22.8833 -10
    endloop
  endfacet
  facet normal 0 0 -1
    outer loop
      vertex 2.14331 -3.37731 -10
      vertex 25.4518 -40.1056 -10
      vertex 20.2245 -42.9793 -10
    endloop
  endfacet
  facet normal 0 0 -1
    outer loop
      vertex 3.50523 1.92701 -10
      vertex 41.6246 22.8833 -10
      vertex 3.71911 1.4725 -10
    endloop
  endfacet
  facet normal 0 0 -1
    outer loop
      vertex 1.70312 -3.61931 -10
      vertex 20.2245 -42.9793 -10
      vertex 14.6783 -45.1752 -10
    endloop
  endfacet
  facet normal -0 0 -1
    outer loop
      vertex 41.6246 22.8833 -10
      vertex 3.50523 1.92701 -10
      vertex 38.4283 27.9198 -10
    endloop
  endfacet
  facet normal 0 0 -1
    outer loop
      vertex 1.23607 -3.80423 -10
      vertex 14.6783 -45.1752 -10
      vertex 8.90061 -46.6586 -10
    endloop
  endfacet
  facet normal 0 0 -1
    outer loop
      vertex 3.23607 2.35114 -10
      vertex 38.4283 27.9198 -10
      vertex 3.50523 1.92701 -10
    endloop
  endfacet
  facet normal -0 0 -1
    outer loop
      vertex 38.4283 27.9198 -10
      vertex 3.23607 2.35114 -10
      vertex 34.626 32.516 -10
    endloop
  endfacet
  facet normal 0 0 -1
    outer loop
      vertex 47.1255 -5.95333 -10
      vertex 3.96846 -0.501332 -10
      vertex 4 0 -10
    endloop
  endfacet
  facet normal 0 0 -1
    outer loop
      vertex 46.0077 -11.8128 -10
      vertex 3.87433 -0.994759 -10
      vertex 3.96846 -0.501332 -10
    endloop
  endfacet
  facet normal 0 0 -1
    outer loop
      vertex 44.1644 -17.4859 -10
      vertex 3.71911 -1.4725 -10
      vertex 3.87433 -0.994759 -10
    endloop
  endfacet
  facet normal 0 0 -1
    outer loop
      vertex 41.6246 -22.8833 -10
      vertex 3.50523 -1.92701 -10
      vertex 3.71911 -1.4725 -10
    endloop
  endfacet
  facet normal 0 0 -1
    outer loop
      vertex 38.4283 -27.9198 -10
      vertex 3.23607 -2.35114 -10
      vertex 3.50523 -1.92701 -10
    endloop
  endfacet
  facet normal 0 0 -1
    outer loop
      vertex 0.749525 -3.92915 -10
      vertex 8.90061 -46.6586 -10
      vertex 2.98255 -47.4063 -10
    endloop
  endfacet
  facet normal 0 0 -1
    outer loop
      vertex 34.626 -32.516 -10
      vertex 2.91587 -2.73819 -10
      vertex 3.23607 -2.35114 -10
    endloop
  endfacet
  facet normal 0 0 -1
    outer loop
      vertex 30.2776 -36.5994 -10
      vertex 2.5497 -3.08205 -10
      vertex 2.91587 -2.73819 -10
    endloop
  endfacet
  facet normal 0 0 -1
    outer loop
      vertex 25.4518 -40.1056 -10
      vertex 2.14331 -3.37731 -10
      vertex 2.5497 -3.08205 -10
    endloop
  endfacet
  facet normal 0 0 -1
    outer loop
      vertex 20.2245 -42.9793 -10
      vertex 1.70312 -3.61931 -10
      vertex 2.14331 -3.37731 -10
    endloop
  endfacet
  facet normal 0 0 -1
    outer loop
      vertex 14.6783 -45.1752 -10
      vertex 1.23607 -3.80423 -10
      vertex 1.70312 -3.61931 -10
    endloop
  endfacet
  facet normal 0 0 -1
    outer loop
      vertex 8.90061 -46.6586 -10
      vertex 0.749525 -3.92915 -10
      vertex 1.23607 -3.80423 -10
    endloop
  endfacet
  facet normal 0 0 -1
    outer loop
      vertex 2.98255 -47.4063 -10
      vertex 0.251162 -3.99211 -10
      vertex 0.749525 -3.92915 -10
    endloop
  endfacet
  facet normal 0 0 -1
    outer loop
      vertex 2.98255 -47.4063 -10
      vertex -0.251162 -3.99211 -10
      vertex 0.251162 -3.99211 -10
    endloop
  endfacet
  facet normal 0 0 -1
    outer loop
      vertex -2.98255 -47.4063 -10
      vertex -0.251162 -3.99211 -10
      vertex 2.98255 -47.4063 -10
    endloop
  endfacet
  facet normal -0 0 -1
    outer loop
      vertex -0.251162 -3.99211 -10
      vertex -2.98255 -47.4063 -10
      vertex -0.749525 -3.92915 -10
    endloop
  endfacet
  facet normal 0 0 -1
    outer loop
      vertex -8.90061 -46.6586 -10
      vertex -0.749525 -3.92915 -10
      vertex -2.98255 -47.4063 -10
    endloop
  endfacet
  facet normal -0 0 -1
    outer loop
      vertex -0.749525 -3.92915 -10
      vertex -8.90061 -46.6586 -10
      vertex -1.23607 -3.80423 -10
    endloop
  endfacet
  facet normal 0 0 -1
    outer loop
      vertex -14.6783 -45.1752 -10
      vertex -1.23607 -3.80423 -10
      vertex -8.90061 -46.6586 -10
    endloop
  endfacet
  facet normal -0 0 -1
    outer loop
      vertex -1.23607 -3.80423 -10
      vertex -14.6783 -45.1752 -10
      vertex -1.70312 -3.61931 -10
    endloop
  endfacet
  facet normal 0 0 -1
    outer loop
      vertex -20.2245 -42.9793 -10
      vertex -1.70312 -3.61931 -10
      vertex -14.6783 -45.1752 -10
    endloop
  endfacet
  facet normal -0 0 -1
    outer loop
      vertex -1.70312 -3.61931 -10
      vertex -20.2245 -42.9793 -10
      vertex -2.14331 -3.37731 -10
    endloop
  endfacet
  facet normal 0 0 -1
    outer loop
      vertex -25.4518 -40.1056 -10
      vertex -2.14331 -3.37731 -10
      vertex -20.2245 -42.9793 -10
    endloop
  endfacet
  facet normal -0 0 -1
    outer loop
      vertex -2.14331 -3.37731 -10
      vertex -25.4518 -40.1056 -10
      vertex -2.5497 -3.08205 -10
    endloop
  endfacet
  facet normal 0 0 -1
    outer loop
      vertex -30.2776 -36.5994 -10
      vertex -2.5497 -3.08205 -10
      vertex -25.4518 -40.1056 -10
    endloop
  endfacet
  facet normal -0 0 -1
    outer loop
      vertex -2.5497 -3.08205 -10
      vertex -30.2776 -36.5994 -10
      vertex -2.91587 -2.73819 -10
    endloop
  endfacet
  facet normal 0 0 -1
    outer loop
      vertex -34.626 -32.516 -10
      vertex -2.91587 -2.73819 -10
      vertex -30.2776 -36.5994 -10
    endloop
  endfacet
  facet normal -0 0 -1
    outer loop
      vertex -2.91587 -2.73819 -10
      vertex -34.626 -32.516 -10
      vertex -3.23607 -2.35114 -10
    endloop
  endfacet
  facet normal 0 0 -1
    outer loop
      vertex -38.4283 -27.9198 -10
      vertex -3.23607 -2.35114 -10
      vertex -34.626 -32.516 -10
    endloop
  endfacet
  facet normal -0 0 -1
    outer loop
      vertex -3.23607 -2.35114 -10
      vertex -38.4283 -27.9198 -10
      vertex -3.50523 -1.92701 -10
    endloop
  endfacet
  facet normal 0 0 -1
    outer loop
      vertex -41.6246 -22.8833 -10
      vertex -3.50523 -1.92701 -10
      vertex -38.4283 -27.9198 -10
    endloop
  endfacet
  facet normal -0 0 -1
    outer loop
      vertex -3.50523 -1.92701 -10
      vertex -41.6246 -22.8833 -10
      vertex -3.71911 -1.4725 -10
    endloop
  endfacet
  facet normal 0 0 -1
    outer loop
      vertex -44.1644 -17.4859 -10
      vertex -3.71911 -1.4725 -10
      vertex -41.6246 -22.8833 -10
    endloop
  endfacet
  facet normal -0 0 -1
    outer loop
      vertex -3.71911 -1.4725 -10
      vertex -44.1644 -17.4859 -10
      vertex -3.87433 -0.994759 -10
    endloop
  endfacet
  facet normal 0 0 -1
    outer loop
      vertex -46.0077 -11.8128 -10
      vertex -3.87433 -0.994759 -10
      vertex -44.1644 -17.4859 -10
    endloop
  endfacet
  facet normal -0 0 -1
    outer loop
      vertex -3.87433 -0.994759 -10
      vertex -46.0077 -11.8128 -10
      vertex -3.96846 -0.501332 -10
    endloop
  endfacet
  facet normal 0 0 -1
    outer loop
      vertex -47.1255 -5.95333 -10
      vertex -3.96846 -0.501332 -10
      vertex -46.0077 -11.8128 -10
    endloop
  endfacet
  facet normal -0 0 -1
    outer loop
      vertex -3.96846 -0.501332 -10
      vertex -47.1255 -5.95333 -10
      vertex -4 0 -10
    endloop
  endfacet
  facet normal -0 0 -1
    outer loop
      vertex -4 0 -10
      vertex -47.1255 -5.95333 -10
      vertex -5 5 -10
    endloop
  endfacet
  facet normal 0 0 -1
    outer loop
      vertex -47.5 0 -10
      vertex -5 5 -10
      vertex -47.1255 -5.95333 -10
    endloop
  endfacet
  facet normal -0 0 -1
    outer loop
      vertex -5 5 -10
      vertex -47.5 0 -10
      vertex -47.1854 5 -10
    endloop
  endfacet
  facet normal 0 0 -1
    outer loop
      vertex 2.91587 2.73819 -10
      vertex 34.626 32.516 -10
      vertex 3.23607 2.35114 -10
    endloop
  endfacet
  facet normal -0 0 -1
    outer loop
      vertex 34.626 32.516 -10
      vertex 2.91587 2.73819 -10
      vertex 30.2776 36.5994 -10
    endloop
  endfacet
  facet normal 0 0 -1
    outer loop
      vertex 2.5497 3.08205 -10
      vertex 30.2776 36.5994 -10
      vertex 2.91587 2.73819 -10
    endloop
  endfacet
  facet normal -0 0 -1
    outer loop
      vertex 30.2776 36.5994 -10
      vertex 2.5497 3.08205 -10
      vertex 25.4518 40.1056 -10
    endloop
  endfacet
  facet normal 0 0 -1
    outer loop
      vertex 2.14331 3.37731 -10
      vertex 25.4518 40.1056 -10
      vertex 2.5497 3.08205 -10
    endloop
  endfacet
  facet normal -0 0 -1
    outer loop
      vertex 25.4518 40.1056 -10
      vertex 2.14331 3.37731 -10
      vertex 20.2245 42.9793 -10
    endloop
  endfacet
  facet normal 0 0 -1
    outer loop
      vertex 1.70312 3.61931 -10
      vertex 20.2245 42.9793 -10
      vertex 2.14331 3.37731 -10
    endloop
  endfacet
  facet normal -0 0 -1
    outer loop
      vertex 20.2245 42.9793 -10
      vertex 1.70312 3.61931 -10
      vertex 14.6783 45.1752 -10
    endloop
  endfacet
  facet normal 0 0 -1
    outer loop
      vertex 1.23607 3.80423 -10
      vertex 14.6783 45.1752 -10
      vertex 1.70312 3.61931 -10
    endloop
  endfacet
  facet normal -0 0 -1
    outer loop
      vertex 14.6783 45.1752 -10
      vertex 1.23607 3.80423 -10
      vertex 8.90061 46.6586 -10
    endloop
  endfacet
  facet normal 0 0 -1
    outer loop
      vertex 0.749525 3.92915 -10
      vertex 8.90061 46.6586 -10
      vertex 1.23607 3.80423 -10
    endloop
  endfacet
  facet normal -0 0 -1
    outer loop
      vertex 8.90061 46.6586 -10
      vertex 0.749525 3.92915 -10
      vertex 2.98255 47.4063 -10
    endloop
  endfacet
  facet normal 0 0 -1
    outer loop
      vertex 0.251162 3.99211 -10
      vertex 2.98255 47.4063 -10
      vertex 0.749525 3.92915 -10
    endloop
  endfacet
  facet normal 0 0 -1
    outer loop
      vertex -5 5 -10
      vertex 0.251162 3.99211 -10
      vertex -0.251162 3.99211 -10
    endloop
  endfacet
  facet normal 0 0 -1
    outer loop
      vertex -5 5 -10
      vertex -0.251162 3.99211 -10
      vertex -0.749525 3.92915 -10
    endloop
  endfacet
  facet normal 0 0 -1
    outer loop
      vertex -5 5 -10
      vertex -0.749525 3.92915 -10
      vertex -1.23607 3.80423 -10
    endloop
  endfacet
  facet normal 0 0 -1
    outer loop
      vertex -5 5 -10
      vertex -1.23607 3.80423 -10
      vertex -1.70312 3.61931 -10
    endloop
  endfacet
  facet normal 0 0 -1
    outer loop
      vertex -5 5 -10
      vertex -1.70312 3.61931 -10
      vertex -2.14331 3.37731 -10
    endloop
  endfacet
  facet normal 0 0 -1
    outer loop
      vertex -5 5 -10
      vertex -2.14331 3.37731 -10
      vertex -2.5497 3.08205 -10
    endloop
  endfacet
  facet normal 0 0 -1
    outer loop
      vertex -5 5 -10
      vertex -2.5497 3.08205 -10
      vertex -2.91587 2.73819 -10
    endloop
  endfacet
  facet normal 0 0 -1
    outer loop
      vertex 0.251162 3.99211 -10
      vertex -5 5 -10
      vertex 2.98255 47.4063 -10
    endloop
  endfacet
  facet normal 0 0 -1
    outer loop
      vertex -5 5 -10
      vertex -2.91587 2.73819 -10
      vertex -3.23607 2.35114 -10
    endloop
  endfacet
  facet normal 0 0 -1
    outer loop
      vertex -5 5 -10
      vertex -3.23607 2.35114 -10
      vertex -3.50523 1.92701 -10
    endloop
  endfacet
  facet normal 0 0 -1
    outer loop
      vertex -5 5 -10
      vertex -3.50523 1.92701 -10
      vertex -3.71911 1.4725 -10
    endloop
  endfacet
  facet normal 0 0 -1
    outer loop
      vertex -5 5 -10
      vertex -3.71911 1.4725 -10
      vertex -3.87433 0.994759 -10
    endloop
  endfacet
  facet normal 0 0 -1
    outer loop
      vertex -5 5 -10
      vertex -3.87433 0.994759 -10
      vertex -3.96846 0.501332 -10
    endloop
  endfacet
  facet normal 0 0 -1
    outer loop
      vertex -5 5 -10
      vertex -3.96846 0.501332 -10
      vertex -4 0 -10
    endloop
  endfacet
  facet normal -0 0 -1
    outer loop
      vertex 2.98255 47.4063 -10
      vertex -5 5 -10
      vertex -2.98255 47.4063 -10
    endloop
  endfacet
  facet normal 0 0 -1
    outer loop
      vertex -2.98255 47.4063 -10
      vertex -5 5 -10
      vertex -5 47.1514 -10
    endloop
  endfacet
  facet normal 0 0 1
    outer loop
      vertex 2.98254 47.4063 20
      vertex 5 14.1214 20
      vertex 5 47.1514 20
    endloop
  endfacet
  facet normal 0 0 1
    outer loop
      vertex 5 14.1214 20
      vertex 4 0 20
      vertex 4.63525 -14.2658 20
    endloop
  endfacet
  facet normal 0 0 1
    outer loop
      vertex 5 14.1214 20
      vertex 3.96846 0.501332 20
      vertex 4 0 20
    endloop
  endfacet
  facet normal 0 0 1
    outer loop
      vertex 5 14.1214 20
      vertex 3.87433 0.994759 20
      vertex 3.96846 0.501332 20
    endloop
  endfacet
  facet normal 0 0 1
    outer loop
      vertex 5 14.1214 20
      vertex 3.71911 1.4725 20
      vertex 3.87433 0.994759 20
    endloop
  endfacet
  facet normal 0 0 1
    outer loop
      vertex 5 14.1214 20
      vertex 3.50523 1.92701 20
      vertex 3.71911 1.4725 20
    endloop
  endfacet
  facet normal 0 0 1
    outer loop
      vertex 5 14.1214 20
      vertex 3.23607 2.35114 20
      vertex 3.50523 1.92701 20
    endloop
  endfacet
  facet normal -0 0 1
    outer loop
      vertex -2.98254 47.4063 20
      vertex 5 14.1214 20
      vertex 2.98254 47.4063 20
    endloop
  endfacet
  facet normal 0 0 1
    outer loop
      vertex 5 14.1214 20
      vertex 2.91587 2.73819 20
      vertex 3.23607 2.35114 20
    endloop
  endfacet
  facet normal 0 0 1
    outer loop
      vertex 5 14.1214 20
      vertex 2.5497 3.08205 20
      vertex 2.91587 2.73819 20
    endloop
  endfacet
  facet normal 0 0 1
    outer loop
      vertex 5 14.1214 20
      vertex 2.14331 3.37731 20
      vertex 2.5497 3.08205 20
    endloop
  endfacet
  facet normal 0 0 1
    outer loop
      vertex 5 14.1214 20
      vertex 1.70312 3.61931 20
      vertex 2.14331 3.37731 20
    endloop
  endfacet
  facet normal 0 0 1
    outer loop
      vertex 5 14.1214 20
      vertex 1.23607 3.80423 20
      vertex 1.70312 3.61931 20
    endloop
  endfacet
  facet normal 0 0 1
    outer loop
      vertex 5 14.1214 20
      vertex 0.749525 3.92915 20
      vertex 1.23607 3.80423 20
    endloop
  endfacet
  facet normal 0 0 1
    outer loop
      vertex 5 14.1214 20
      vertex 0.251162 3.99211 20
      vertex 0.749525 3.92915 20
    endloop
  endfacet
  facet normal 0 -0 1
    outer loop
      vertex -0.251162 3.99211 20
      vertex 5 14.1214 20
      vertex -5 5 20
    endloop
  endfacet
  facet normal 0 0 1
    outer loop
      vertex 5 14.1214 20
      vertex -0.251162 3.99211 20
      vertex 0.251162 3.99211 20
    endloop
  endfacet
  facet normal 0 0 1
    outer loop
      vertex -0.251162 3.99211 20
      vertex -5 5 20
      vertex -0.749525 3.92915 20
    endloop
  endfacet
  facet normal 0 0 1
    outer loop
      vertex -0.749525 3.92915 20
      vertex -5 5 20
      vertex -1.23607 3.80423 20
    endloop
  endfacet
  facet normal 0 0 1
    outer loop
      vertex -1.23607 3.80423 20
      vertex -5 5 20
      vertex -1.70312 3.61931 20
    endloop
  endfacet
  facet normal 0 0 1
    outer loop
      vertex -1.70312 3.61931 20
      vertex -5 5 20
      vertex -2.14331 3.37731 20
    endloop
  endfacet
  facet normal 0 0 1
    outer loop
      vertex -2.14331 3.37731 20
      vertex -5 5 20
      vertex -2.5497 3.08205 20
    endloop
  endfacet
  facet normal -0 0 1
    outer loop
      vertex -5 47.1514 20
      vertex 5 14.1214 20
      vertex -2.98254 47.4063 20
    endloop
  endfacet
  facet normal 0 0 1
    outer loop
      vertex -2.5497 3.08205 20
      vertex -5 5 20
      vertex -2.91587 2.73819 20
    endloop
  endfacet
  facet normal 0 0 1
    outer loop
      vertex -2.91587 2.73819 20
      vertex -5 5 20
      vertex -3.23607 2.35114 20
    endloop
  endfacet
  facet normal 0 0 1
    outer loop
      vertex -3.23607 2.35114 20
      vertex -5 5 20
      vertex -3.50523 1.92701 20
    endloop
  endfacet
  facet normal 0 0 1
    outer loop
      vertex -3.50523 1.92701 20
      vertex -5 5 20
      vertex -3.71911 1.4725 20
    endloop
  endfacet
  facet normal 0 0 1
    outer loop
      vertex -3.71911 1.4725 20
      vertex -5 5 20
      vertex -3.87433 0.994759 20
    endloop
  endfacet
  facet normal 0 0 1
    outer loop
      vertex -3.87433 0.994759 20
      vertex -5 5 20
      vertex -3.96846 0.501332 20
    endloop
  endfacet
  facet normal 0 0 1
    outer loop
      vertex -14.1162 -5 20
      vertex -3.96846 0.501332 20
      vertex -5 5 20
    endloop
  endfacet
  facet normal 0 0 1
    outer loop
      vertex 5 14.1214 20
      vertex -5 47.1514 20
      vertex -5 5 20
    endloop
  endfacet
  facet normal 0 0 1
    outer loop
      vertex -3.96846 0.501332 20
      vertex -14.1162 -5 20
      vertex -4 0 20
    endloop
  endfacet
  facet normal 0 0 1
    outer loop
      vertex -4 0 20
      vertex -6.38669 -13.5724 20
      vertex -4.63525 -14.2658 20
    endloop
  endfacet
  facet normal 0 0 1
    outer loop
      vertex -4 0 20
      vertex -8.0374 -12.6649 20
      vertex -6.38669 -13.5724 20
    endloop
  endfacet
  facet normal 0 0 1
    outer loop
      vertex -4 0 20
      vertex -9.56136 -11.5577 20
      vertex -8.0374 -12.6649 20
    endloop
  endfacet
  facet normal 0 0 1
    outer loop
      vertex -4 0 20
      vertex -10.9345 -10.2682 20
      vertex -9.56136 -11.5577 20
    endloop
  endfacet
  facet normal 0 0 1
    outer loop
      vertex -4 0 20
      vertex -12.1353 -8.81677 20
      vertex -10.9345 -10.2682 20
    endloop
  endfacet
  facet normal 0 0 1
    outer loop
      vertex -4 0 20
      vertex -13.1446 -7.2263 20
      vertex -12.1353 -8.81677 20
    endloop
  endfacet
  facet normal 0 0 1
    outer loop
      vertex -4 0 20
      vertex -13.9466 -5.52187 20
      vertex -13.1446 -7.2263 20
    endloop
  endfacet
  facet normal 0 0 1
    outer loop
      vertex -4 0 20
      vertex -14.1162 -5 20
      vertex -13.9466 -5.52187 20
    endloop
  endfacet
  facet normal -0 0 1
    outer loop
      vertex -47.1854 5 20
      vertex -14.1162 -5 20
      vertex -5 5 20
    endloop
  endfacet
  facet normal -0 0 1
    outer loop
      vertex -47.5 0 20
      vertex -14.1162 -5 20
      vertex -47.1854 5 20
    endloop
  endfacet
  facet normal 0 0 1
    outer loop
      vertex -14.1162 -5 20
      vertex -47.5 0 20
      vertex -47.1854 -5 20
    endloop
  endfacet
  facet normal 0 0 1
    outer loop
      vertex 14.8817 1.87999 20
      vertex 14.8817 -1.87999 20
      vertex 15 0 20
    endloop
  endfacet
  facet normal 0 0 1
    outer loop
      vertex 14.5287 3.73035 20
      vertex 14.8817 -1.87999 20
      vertex 14.8817 1.87999 20
    endloop
  endfacet
  facet normal 0 0 1
    outer loop
      vertex 14.5287 3.73035 20
      vertex 14.5287 -3.73035 20
      vertex 14.8817 -1.87999 20
    endloop
  endfacet
  facet normal 0 0 1
    outer loop
      vertex 13.9466 5.52187 20
      vertex 14.5287 -3.73035 20
      vertex 14.5287 3.73035 20
    endloop
  endfacet
  facet normal 0 0 1
    outer loop
      vertex 13.9466 5.52187 20
      vertex 13.9466 -5.52187 20
      vertex 14.5287 -3.73035 20
    endloop
  endfacet
  facet normal 0 0 1
    outer loop
      vertex 13.1446 7.2263 20
      vertex 13.9466 -5.52187 20
      vertex 13.9466 5.52187 20
    endloop
  endfacet
  facet normal 0 0 1
    outer loop
      vertex 13.1446 7.2263 20
      vertex 13.1446 -7.2263 20
      vertex 13.9466 -5.52187 20
    endloop
  endfacet
  facet normal 0 0 1
    outer loop
      vertex 12.1353 8.81677 20
      vertex 13.1446 -7.2263 20
      vertex 13.1446 7.2263 20
    endloop
  endfacet
  facet normal 0 0 1
    outer loop
      vertex 12.1353 8.81677 20
      vertex 12.1353 -8.81677 20
      vertex 13.1446 -7.2263 20
    endloop
  endfacet
  facet normal 0 0 1
    outer loop
      vertex 10.9345 10.2682 20
      vertex 12.1353 -8.81677 20
      vertex 12.1353 8.81677 20
    endloop
  endfacet
  facet normal 0 0 1
    outer loop
      vertex 10.9345 10.2682 20
      vertex 10.9345 -10.2682 20
      vertex 12.1353 -8.81677 20
    endloop
  endfacet
  facet normal 0 0 1
    outer loop
      vertex 9.56136 11.5577 20
      vertex 10.9345 -10.2682 20
      vertex 10.9345 10.2682 20
    endloop
  endfacet
  facet normal 0 0 1
    outer loop
      vertex 9.56136 11.5577 20
      vertex 9.56136 -11.5577 20
      vertex 10.9345 -10.2682 20
    endloop
  endfacet
  facet normal 0 0 1
    outer loop
      vertex 8.0374 12.6649 20
      vertex 9.56136 -11.5577 20
      vertex 9.56136 11.5577 20
    endloop
  endfacet
  facet normal 0 0 1
    outer loop
      vertex 8.0374 12.6649 20
      vertex 8.0374 -12.6649 20
      vertex 9.56136 -11.5577 20
    endloop
  endfacet
  facet normal 0 0 1
    outer loop
      vertex 5 14.1214 20
      vertex 8.0374 12.6649 20
      vertex 6.38669 13.5724 20
    endloop
  endfacet
  facet normal 0 0 1
    outer loop
      vertex 8.0374 12.6649 20
      vertex 5 14.1214 20
      vertex 8.0374 -12.6649 20
    endloop
  endfacet
  facet normal 0 0 1
    outer loop
      vertex 8.0374 -12.6649 20
      vertex 5 14.1214 20
      vertex 6.38669 -13.5724 20
    endloop
  endfacet
  facet normal 0 0 1
    outer loop
      vertex 6.38669 -13.5724 20
      vertex 5 14.1214 20
      vertex 4.63525 -14.2658 20
    endloop
  endfacet
  facet normal -0 0 1
    outer loop
      vertex 3.96846 -0.501332 20
      vertex 4.63525 -14.2658 20
      vertex 4 0 20
    endloop
  endfacet
  facet normal -0 0 1
    outer loop
      vertex 3.87433 -0.994759 20
      vertex 4.63525 -14.2658 20
      vertex 3.96846 -0.501332 20
    endloop
  endfacet
  facet normal -0 0 1
    outer loop
      vertex 3.71911 -1.4725 20
      vertex 4.63525 -14.2658 20
      vertex 3.87433 -0.994759 20
    endloop
  endfacet
  facet normal -0 0 1
    outer loop
      vertex 3.50523 -1.92701 20
      vertex 4.63525 -14.2658 20
      vertex 3.71911 -1.4725 20
    endloop
  endfacet
  facet normal -0 0 1
    outer loop
      vertex 3.23607 -2.35114 20
      vertex 4.63525 -14.2658 20
      vertex 3.50523 -1.92701 20
    endloop
  endfacet
  facet normal -0 0 1
    outer loop
      vertex 2.91587 -2.73819 20
      vertex 4.63525 -14.2658 20
      vertex 3.23607 -2.35114 20
    endloop
  endfacet
  facet normal -0 0 1
    outer loop
      vertex 2.5497 -3.08205 20
      vertex 4.63525 -14.2658 20
      vertex 2.91587 -2.73819 20
    endloop
  endfacet
  facet normal -0 0 1
    outer loop
      vertex 2.14331 -3.37731 20
      vertex 4.63525 -14.2658 20
      vertex 2.5497 -3.08205 20
    endloop
  endfacet
  facet normal -0 0 1
    outer loop
      vertex 1.70312 -3.61931 20
      vertex 4.63525 -14.2658 20
      vertex 2.14331 -3.37731 20
    endloop
  endfacet
  facet normal -0 0 1
    outer loop
      vertex 1.23607 -3.80423 20
      vertex 4.63525 -14.2658 20
      vertex 1.70312 -3.61931 20
    endloop
  endfacet
  facet normal 0 0 1
    outer loop
      vertex 4.63525 -14.2658 20
      vertex 1.23607 -3.80423 20
      vertex 2.81071 -14.7343 20
    endloop
  endfacet
  facet normal -0 0 1
    outer loop
      vertex 0.749525 -3.92915 20
      vertex 2.81071 -14.7343 20
      vertex 1.23607 -3.80423 20
    endloop
  endfacet
  facet normal 0 0 1
    outer loop
      vertex 2.81071 -14.7343 20
      vertex 0.749525 -3.92915 20
      vertex 0.941849 -14.9704 20
    endloop
  endfacet
  facet normal -0 0 1
    outer loop
      vertex 0.251162 -3.99211 20
      vertex 0.941849 -14.9704 20
      vertex 0.749525 -3.92915 20
    endloop
  endfacet
  facet normal -0 0 1
    outer loop
      vertex -0.251162 -3.99211 20
      vertex 0.941849 -14.9704 20
      vertex 0.251162 -3.99211 20
    endloop
  endfacet
  facet normal 0 0 1
    outer loop
      vertex -0.941849 -14.9704 20
      vertex -0.251162 -3.99211 20
      vertex -0.749525 -3.92915 20
    endloop
  endfacet
  facet normal 0 0 1
    outer loop
      vertex -0.251162 -3.99211 20
      vertex -0.941849 -14.9704 20
      vertex 0.941849 -14.9704 20
    endloop
  endfacet
  facet normal 0 0 1
    outer loop
      vertex -2.81071 -14.7343 20
      vertex -0.749525 -3.92915 20
      vertex -1.23607 -3.80423 20
    endloop
  endfacet
  facet normal 0 0 1
    outer loop
      vertex -4.63525 -14.2658 20
      vertex -1.23607 -3.80423 20
      vertex -1.70312 -3.61931 20
    endloop
  endfacet
  facet normal 0 0 1
    outer loop
      vertex -4.63525 -14.2658 20
      vertex -1.70312 -3.61931 20
      vertex -2.14331 -3.37731 20
    endloop
  endfacet
  facet normal 0 0 1
    outer loop
      vertex -4.63525 -14.2658 20
      vertex -2.14331 -3.37731 20
      vertex -2.5497 -3.08205 20
    endloop
  endfacet
  facet normal 0 0 1
    outer loop
      vertex -0.749525 -3.92915 20
      vertex -2.81071 -14.7343 20
      vertex -0.941849 -14.9704 20
    endloop
  endfacet
  facet normal 0 0 1
    outer loop
      vertex -4.63525 -14.2658 20
      vertex -2.5497 -3.08205 20
      vertex -2.91587 -2.73819 20
    endloop
  endfacet
  facet normal 0 0 1
    outer loop
      vertex -4.63525 -14.2658 20
      vertex -2.91587 -2.73819 20
      vertex -3.23607 -2.35114 20
    endloop
  endfacet
  facet normal 0 0 1
    outer loop
      vertex -4.63525 -14.2658 20
      vertex -3.23607 -2.35114 20
      vertex -3.50523 -1.92701 20
    endloop
  endfacet
  facet normal 0 0 1
    outer loop
      vertex -4.63525 -14.2658 20
      vertex -3.50523 -1.92701 20
      vertex -3.71911 -1.4725 20
    endloop
  endfacet
  facet normal 0 0 1
    outer loop
      vertex -4.63525 -14.2658 20
      vertex -3.71911 -1.4725 20
      vertex -3.87433 -0.994759 20
    endloop
  endfacet
  facet normal 0 0 1
    outer loop
      vertex -4.63525 -14.2658 20
      vertex -3.87433 -0.994759 20
      vertex -3.96846 -0.501332 20
    endloop
  endfacet
  facet normal 0 0 1
    outer loop
      vertex -1.23607 -3.80423 20
      vertex -4.63525 -14.2658 20
      vertex -2.81071 -14.7343 20
    endloop
  endfacet
  facet normal 0 0 1
    outer loop
      vertex -4.63525 -14.2658 20
      vertex -3.96846 -0.501332 20
      vertex -4 0 20
    endloop
  endfacet
  facet normal 0.248709 -0.968578 0
    outer loop
      vertex 2.81071 -14.7343 0
      vertex 4.63525 -14.2658 20
      vertex 2.81071 -14.7343 20
    endloop
  endfacet
  facet normal 0.248709 -0.968578 0
    outer loop
      vertex 4.63525 -14.2658 20
      vertex 2.81071 -14.7343 0
      vertex 4.63525 -14.2658 0
    endloop
  endfacet
  facet normal 0.368104 -0.929785 0
    outer loop
      vertex 4.63525 -14.2658 0
      vertex 6.38669 -13.5724 20
      vertex 4.63525 -14.2658 20
    endloop
  endfacet
  facet normal 0.368104 -0.929785 0
    outer loop
      vertex 6.38669 -13.5724 20
      vertex 4.63525 -14.2658 0
      vertex 6.38669 -13.5724 0
    endloop
  endfacet
  facet normal 0.48176 -0.876303 0
    outer loop
      vertex 6.38669 -13.5724 0
      vertex 8.0374 -12.6649 20
      vertex 6.38669 -13.5724 20
    endloop
  endfacet
  facet normal 0.48176 -0.876303 0
    outer loop
      vertex 8.0374 -12.6649 20
      vertex 6.38669 -13.5724 0
      vertex 8.0374 -12.6649 0
    endloop
  endfacet
  facet normal 0.587778 -0.809022 0
    outer loop
      vertex 8.0374 -12.6649 0
      vertex 9.56136 -11.5577 20
      vertex 8.0374 -12.6649 20
    endloop
  endfacet
  facet normal 0.587778 -0.809022 0
    outer loop
      vertex 9.56136 -11.5577 20
      vertex 8.0374 -12.6649 0
      vertex 9.56136 -11.5577 0
    endloop
  endfacet
  facet normal 0.684557 -0.728959 0
    outer loop
      vertex 9.56136 -11.5577 0
      vertex 10.9345 -10.2682 20
      vertex 9.56136 -11.5577 20
    endloop
  endfacet
  facet normal 0.684557 -0.728959 0
    outer loop
      vertex 10.9345 -10.2682 20
      vertex 9.56136 -11.5577 0
      vertex 10.9345 -10.2682 0
    endloop
  endfacet
  facet normal 0.770494 -0.637447 0
    outer loop
      vertex 10.9345 -10.2682 20
      vertex 12.1353 -8.81677 0
      vertex 12.1353 -8.81677 20
    endloop
  endfacet
  facet normal 0.770494 -0.637447 0
    outer loop
      vertex 12.1353 -8.81677 0
      vertex 10.9345 -10.2682 20
      vertex 10.9345 -10.2682 0
    endloop
  endfacet
  facet normal 0.844338 -0.535811 0
    outer loop
      vertex 12.1353 -8.81677 20
      vertex 13.1446 -7.2263 0
      vertex 13.1446 -7.2263 20
    endloop
  endfacet
  facet normal 0.844338 -0.535811 0
    outer loop
      vertex 13.1446 -7.2263 0
      vertex 12.1353 -8.81677 20
      vertex 12.1353 -8.81677 0
    endloop
  endfacet
  facet normal 0.904836 -0.42576 0
    outer loop
      vertex 13.1446 -7.2263 20
      vertex 13.9466 -5.52187 0
      vertex 13.9466 -5.52187 20
    endloop
  endfacet
  facet normal 0.904836 -0.42576 0
    outer loop
      vertex 13.9466 -5.52187 0
      vertex 13.1446 -7.2263 20
      vertex 13.1446 -7.2263 0
    endloop
  endfacet
  facet normal 0.951057 -0.309017 0
    outer loop
      vertex 13.9466 -5.52187 20
      vertex 14.5287 -3.73035 0
      vertex 14.5287 -3.73035 20
    endloop
  endfacet
  facet normal 0.951057 -0.309017 0
    outer loop
      vertex 14.5287 -3.73035 0
      vertex 13.9466 -5.52187 20
      vertex 13.9466 -5.52187 0
    endloop
  endfacet
  facet normal 0.982285 -0.187394 0
    outer loop
      vertex 14.5287 -3.73035 20
      vertex 14.8817 -1.87999 0
      vertex 14.8817 -1.87999 20
    endloop
  endfacet
  facet normal 0.982285 -0.187394 0
    outer loop
      vertex 14.8817 -1.87999 0
      vertex 14.5287 -3.73035 20
      vertex 14.5287 -3.73035 0
    endloop
  endfacet
  facet normal 0.998026 -0.0628017 0
    outer loop
      vertex 14.8817 -1.87999 20
      vertex 15 0 0
      vertex 15 0 20
    endloop
  endfacet
  facet normal 0.998026 -0.0628017 0
    outer loop
      vertex 15 0 0
      vertex 14.8817 -1.87999 20
      vertex 14.8817 -1.87999 0
    endloop
  endfacet
  facet normal 0.998026 0.0628017 0
    outer loop
      vertex 15 0 20
      vertex 14.8817 1.87999 0
      vertex 14.8817 1.87999 20
    endloop
  endfacet
  facet normal 0.998026 0.0628017 0
    outer loop
      vertex 14.8817 1.87999 0
      vertex 15 0 20
      vertex 15 0 0
    endloop
  endfacet
  facet normal 0.982285 0.187394 0
    outer loop
      vertex 14.8817 1.87999 20
      vertex 14.5287 3.73035 0
      vertex 14.5287 3.73035 20
    endloop
  endfacet
  facet normal 0.982285 0.187394 0
    outer loop
      vertex 14.5287 3.73035 0
      vertex 14.8817 1.87999 20
      vertex 14.8817 1.87999 0
    endloop
  endfacet
  facet normal 0.951057 0.309017 0
    outer loop
      vertex 14.5287 3.73035 20
      vertex 13.9466 5.52187 0
      vertex 13.9466 5.52187 20
    endloop
  endfacet
  facet normal 0.951057 0.309017 0
    outer loop
      vertex 13.9466 5.52187 0
      vertex 14.5287 3.73035 20
      vertex 14.5287 3.73035 0
    endloop
  endfacet
  facet normal 0.904836 0.42576 0
    outer loop
      vertex 13.9466 5.52187 20
      vertex 13.1446 7.2263 0
      vertex 13.1446 7.2263 20
    endloop
  endfacet
  facet normal 0.904836 0.42576 0
    outer loop
      vertex 13.1446 7.2263 0
      vertex 13.9466 5.52187 20
      vertex 13.9466 5.52187 0
    endloop
  endfacet
  facet normal 0.844338 0.535811 0
    outer loop
      vertex 13.1446 7.2263 20
      vertex 12.1353 8.81677 0
      vertex 12.1353 8.81677 20
    endloop
  endfacet
  facet normal 0.844338 0.535811 0
    outer loop
      vertex 12.1353 8.81677 0
      vertex 13.1446 7.2263 20
      vertex 13.1446 7.2263 0
    endloop
  endfacet
  facet normal 0.770494 0.637447 0
    outer loop
      vertex 12.1353 8.81677 20
      vertex 10.9345 10.2682 0
      vertex 10.9345 10.2682 20
    endloop
  endfacet
  facet normal 0.770494 0.637447 0
    outer loop
      vertex 10.9345 10.2682 0
      vertex 12.1353 8.81677 20
      vertex 12.1353 8.81677 0
    endloop
  endfacet
  facet normal 0.684557 0.728959 -0
    outer loop
      vertex 10.9345 10.2682 0
      vertex 9.56136 11.5577 20
      vertex 10.9345 10.2682 20
    endloop
  endfacet
  facet normal 0.684557 0.728959 0
    outer loop
      vertex 9.56136 11.5577 20
      vertex 10.9345 10.2682 0
      vertex 9.56136 11.5577 0
    endloop
  endfacet
  facet normal 0.587778 0.809022 -0
    outer loop
      vertex 9.56136 11.5577 0
      vertex 8.0374 12.6649 20
      vertex 9.56136 11.5577 20
    endloop
  endfacet
  facet normal 0.587778 0.809022 0
    outer loop
      vertex 8.0374 12.6649 20
      vertex 9.56136 11.5577 0
      vertex 8.0374 12.6649 0
    endloop
  endfacet
  facet normal 0.48176 0.876303 -0
    outer loop
      vertex 8.0374 12.6649 0
      vertex 6.38669 13.5724 20
      vertex 8.0374 12.6649 20
    endloop
  endfacet
  facet normal 0.48176 0.876303 0
    outer loop
      vertex 6.38669 13.5724 20
      vertex 8.0374 12.6649 0
      vertex 6.38669 13.5724 0
    endloop
  endfacet
  facet normal 0.368108 0.929783 -0
    outer loop
      vertex 6.38669 13.5724 0
      vertex 5 14.1214 20
      vertex 6.38669 13.5724 20
    endloop
  endfacet
  facet normal 0.368108 0.929783 0
    outer loop
      vertex 5 14.1214 20
      vertex 6.38669 13.5724 0
      vertex 5 14.1214 0
    endloop
  endfacet
  facet normal 1 -0 0
    outer loop
      vertex 5 14.1214 20
      vertex 5 47.1514 0
      vertex 5 47.1514 20
    endloop
  endfacet
  facet normal 1 0 0
    outer loop
      vertex 5 47.1514 0
      vertex 5 14.1214 20
      vertex 5 14.1214 0
    endloop
  endfacet
  facet normal 0.12535 0.992113 -0
    outer loop
      vertex 5 47.1514 0
      vertex 2.98254 47.4063 20
      vertex 5 47.1514 20
    endloop
  endfacet
  facet normal 0.12535 0.992113 0
    outer loop
      vertex 2.98254 47.4063 20
      vertex 5 47.1514 0
      vertex 2.98254 47.4063 0
    endloop
  endfacet
  facet normal 0 1 -0
    outer loop
      vertex 2.98254 47.4063 0
      vertex -2.98254 47.4063 20
      vertex 2.98254 47.4063 20
    endloop
  endfacet
  facet normal 0 1 0
    outer loop
      vertex -2.98254 47.4063 20
      vertex 2.98254 47.4063 0
      vertex -2.98254 47.4063 0
    endloop
  endfacet
  facet normal -0.12535 0.992113 0
    outer loop
      vertex -2.98254 47.4063 0
      vertex -5 47.1514 20
      vertex -2.98254 47.4063 20
    endloop
  endfacet
  facet normal -0.12535 0.992113 0
    outer loop
      vertex -5 47.1514 20
      vertex -2.98254 47.4063 0
      vertex -5 47.1514 0
    endloop
  endfacet
  facet normal -1 0 0
    outer loop
      vertex -5 5 -10
      vertex -5 47.1514 0
      vertex -5 47.1514 -10
    endloop
  endfacet
  facet normal -1 0 0
    outer loop
      vertex -5 5 20
      vertex -5 47.1514 0
      vertex -5 5 -10
    endloop
  endfacet
  facet normal -1 0 0
    outer loop
      vertex -5 47.1514 0
      vertex -5 5 20
      vertex -5 47.1514 20
    endloop
  endfacet
  facet normal 0 1 0
    outer loop
      vertex -5 5 20
      vertex -47.1854 5 0
      vertex -47.1854 5 20
    endloop
  endfacet
  facet normal 0 1 -0
    outer loop
      vertex -5 5 -10
      vertex -47.1854 5 0
      vertex -5 5 20
    endloop
  endfacet
  facet normal 0 1 0
    outer loop
      vertex -47.1854 5 0
      vertex -5 5 -10
      vertex -47.1854 5 -10
    endloop
  endfacet
  facet normal -0.998026 0.0627958 0
    outer loop
      vertex -47.5 0 0
      vertex -47.1854 5 20
      vertex -47.1854 5 0
    endloop
  endfacet
  facet normal -0.998026 0.0627958 0
    outer loop
      vertex -47.1854 5 20
      vertex -47.5 0 0
      vertex -47.5 0 20
    endloop
  endfacet
  facet normal -0.998026 -0.0627958 0
    outer loop
      vertex -47.1854 -5 0
      vertex -47.5 0 20
      vertex -47.5 0 0
    endloop
  endfacet
  facet normal -0.998026 -0.0627958 0
    outer loop
      vertex -47.5 0 20
      vertex -47.1854 -5 0
      vertex -47.1854 -5 20
    endloop
  endfacet
  facet normal 0 -1 0
    outer loop
      vertex -47.1854 -5 0
      vertex -14.1162 -5 20
      vertex -47.1854 -5 20
    endloop
  endfacet
  facet normal 0 -1 -0
    outer loop
      vertex -14.1162 -5 20
      vertex -47.1854 -5 0
      vertex -14.1162 -5 0
    endloop
  endfacet
  facet normal -0.951038 -0.309073 0
    outer loop
      vertex -13.9466 -5.52187 0
      vertex -14.1162 -5 20
      vertex -14.1162 -5 0
    endloop
  endfacet
  facet normal -0.951038 -0.309073 0
    outer loop
      vertex -14.1162 -5 20
      vertex -13.9466 -5.52187 0
      vertex -13.9466 -5.52187 20
    endloop
  endfacet
  facet normal -0.904836 -0.42576 0
    outer loop
      vertex -13.1446 -7.2263 0
      vertex -13.9466 -5.52187 20
      vertex -13.9466 -5.52187 0
    endloop
  endfacet
  facet normal -0.904836 -0.42576 0
    outer loop
      vertex -13.9466 -5.52187 20
      vertex -13.1446 -7.2263 0
      vertex -13.1446 -7.2263 20
    endloop
  endfacet
  facet normal -0.844338 -0.535811 0
    outer loop
      vertex -12.1353 -8.81677 0
      vertex -13.1446 -7.2263 20
      vertex -13.1446 -7.2263 0
    endloop
  endfacet
  facet normal -0.844338 -0.535811 0
    outer loop
      vertex -13.1446 -7.2263 20
      vertex -12.1353 -8.81677 0
      vertex -12.1353 -8.81677 20
    endloop
  endfacet
  facet normal -0.770494 -0.637447 0
    outer loop
      vertex -10.9345 -10.2682 0
      vertex -12.1353 -8.81677 20
      vertex -12.1353 -8.81677 0
    endloop
  endfacet
  facet normal -0.770494 -0.637447 0
    outer loop
      vertex -12.1353 -8.81677 20
      vertex -10.9345 -10.2682 0
      vertex -10.9345 -10.2682 20
    endloop
  endfacet
  facet normal -0.684557 -0.728959 0
    outer loop
      vertex -10.9345 -10.2682 0
      vertex -9.56136 -11.5577 20
      vertex -10.9345 -10.2682 20
    endloop
  endfacet
  facet normal -0.684557 -0.728959 -0
    outer loop
      vertex -9.56136 -11.5577 20
      vertex -10.9345 -10.2682 0
      vertex -9.56136 -11.5577 0
    endloop
  endfacet
  facet normal -0.587778 -0.809022 0
    outer loop
      vertex -9.56136 -11.5577 0
      vertex -8.0374 -12.6649 20
      vertex -9.56136 -11.5577 20
    endloop
  endfacet
  facet normal -0.587778 -0.809022 -0
    outer loop
      vertex -8.0374 -12.6649 20
      vertex -9.56136 -11.5577 0
      vertex -8.0374 -12.6649 0
    endloop
  endfacet
  facet normal -0.48176 -0.876303 0
    outer loop
      vertex -8.0374 -12.6649 0
      vertex -6.38669 -13.5724 20
      vertex -8.0374 -12.6649 20
    endloop
  endfacet
  facet normal -0.48176 -0.876303 -0
    outer loop
      vertex -6.38669 -13.5724 20
      vertex -8.0374 -12.6649 0
      vertex -6.38669 -13.5724 0
    endloop
  endfacet
  facet normal -0.368104 -0.929785 0
    outer loop
      vertex -6.38669 -13.5724 0
      vertex -4.63525 -14.2658 20
      vertex -6.38669 -13.5724 20
    endloop
  endfacet
  facet normal -0.368104 -0.929785 -0
    outer loop
      vertex -4.63525 -14.2658 20
      vertex -6.38669 -13.5724 0
      vertex -4.63525 -14.2658 0
    endloop
  endfacet
  facet normal -0.248709 -0.968578 0
    outer loop
      vertex -4.63525 -14.2658 0
      vertex -2.81071 -14.7343 20
      vertex -4.63525 -14.2658 20
    endloop
  endfacet
  facet normal -0.248709 -0.968578 -0
    outer loop
      vertex -2.81071 -14.7343 20
      vertex -4.63525 -14.2658 0
      vertex -2.81071 -14.7343 0
    endloop
  endfacet
  facet normal -0.125337 -0.992114 0
    outer loop
      vertex -2.81071 -14.7343 0
      vertex -0.941849 -14.9704 20
      vertex -2.81071 -14.7343 20
    endloop
  endfacet
  facet normal -0.125337 -0.992114 -0
    outer loop
      vertex -0.941849 -14.9704 20
      vertex -2.81071 -14.7343 0
      vertex -0.941849 -14.9704 0
    endloop
  endfacet
  facet normal 0 -1 0
    outer loop
      vertex -0.941849 -14.9704 0
      vertex 0.941849 -14.9704 20
      vertex -0.941849 -14.9704 20
    endloop
  endfacet
  facet normal 0 -1 -0
    outer loop
      vertex 0.941849 -14.9704 20
      vertex -0.941849 -14.9704 0
      vertex 0.941849 -14.9704 0
    endloop
  endfacet
  facet normal 0.125337 -0.992114 0
    outer loop
      vertex 0.941849 -14.9704 0
      vertex 2.81071 -14.7343 20
      vertex 0.941849 -14.9704 20
    endloop
  endfacet
  facet normal 0.125337 -0.992114 0
    outer loop
      vertex 2.81071 -14.7343 20
      vertex 0.941849 -14.9704 0
      vertex 2.81071 -14.7343 0
    endloop
  endfacet
  facet normal -0.684551 -0.728965 0
    outer loop
      vertex 2.5497 3.08205 -10
      vertex 2.91587 2.73819 20
      vertex 2.5497 3.08205 20
    endloop
  endfacet
  facet normal -0.684551 -0.728965 -0
    outer loop
      vertex 2.91587 2.73819 20
      vertex 2.5497 3.08205 -10
      vertex 2.91587 2.73819 -10
    endloop
  endfacet
  facet normal -0.982286 0.187389 0
    outer loop
      vertex 3.87433 -0.994759 -10
      vertex 3.96846 -0.501332 20
      vertex 3.96846 -0.501332 -10
    endloop
  endfacet
  facet normal -0.982286 0.187389 0
    outer loop
      vertex 3.96846 -0.501332 20
      vertex 3.87433 -0.994759 -10
      vertex 3.87433 -0.994759 20
    endloop
  endfacet
  facet normal 0.982286 0.187389 0
    outer loop
      vertex -3.87433 -0.994759 20
      vertex -3.96846 -0.501332 -10
      vertex -3.96846 -0.501332 20
    endloop
  endfacet
  facet normal 0.982286 0.187389 0
    outer loop
      vertex -3.96846 -0.501332 -10
      vertex -3.87433 -0.994759 20
      vertex -3.87433 -0.994759 -10
    endloop
  endfacet
  facet normal -0.125337 0.992114 0
    outer loop
      vertex 0.749525 -3.92915 -10
      vertex 0.251162 -3.99211 20
      vertex 0.749525 -3.92915 20
    endloop
  endfacet
  facet normal -0.125337 0.992114 0
    outer loop
      vertex 0.251162 -3.99211 20
      vertex 0.749525 -3.92915 -10
      vertex 0.251162 -3.99211 -10
    endloop
  endfacet
  facet normal -0.904824 -0.425786 0
    outer loop
      vertex 3.71911 1.4725 -10
      vertex 3.50523 1.92701 20
      vertex 3.50523 1.92701 -10
    endloop
  endfacet
  facet normal -0.904824 -0.425786 0
    outer loop
      vertex 3.50523 1.92701 20
      vertex 3.71911 1.4725 -10
      vertex 3.71911 1.4725 20
    endloop
  endfacet
  facet normal -0.684551 0.728965 0
    outer loop
      vertex 2.91587 -2.73819 -10
      vertex 2.5497 -3.08205 20
      vertex 2.91587 -2.73819 20
    endloop
  endfacet
  facet normal -0.684551 0.728965 0
    outer loop
      vertex 2.5497 -3.08205 20
      vertex 2.91587 -2.73819 -10
      vertex 2.5497 -3.08205 -10
    endloop
  endfacet
  facet normal 0 1 -0
    outer loop
      vertex 0.251162 -3.99211 -10
      vertex -0.251162 -3.99211 20
      vertex 0.251162 -3.99211 20
    endloop
  endfacet
  facet normal 0 1 0
    outer loop
      vertex -0.251162 -3.99211 20
      vertex 0.251162 -3.99211 -10
      vertex -0.251162 -3.99211 -10
    endloop
  endfacet
  facet normal 0.770509 0.637429 0
    outer loop
      vertex -2.91587 -2.73819 20
      vertex -3.23607 -2.35114 -10
      vertex -3.23607 -2.35114 20
    endloop
  endfacet
  facet normal 0.770509 0.637429 0
    outer loop
      vertex -3.23607 -2.35114 -10
      vertex -2.91587 -2.73819 20
      vertex -2.91587 -2.73819 -10
    endloop
  endfacet
  facet normal -0.998027 -0.0627883 0
    outer loop
      vertex 4 0 -10
      vertex 3.96846 0.501332 20
      vertex 3.96846 0.501332 -10
    endloop
  endfacet
  facet normal -0.998027 -0.0627883 0
    outer loop
      vertex 3.96846 0.501332 20
      vertex 4 0 -10
      vertex 4 0 20
    endloop
  endfacet
  facet normal 0.951061 0.309004 0
    outer loop
      vertex -3.71911 -1.4725 20
      vertex -3.87433 -0.994759 -10
      vertex -3.87433 -0.994759 20
    endloop
  endfacet
  facet normal 0.951061 0.309004 0
    outer loop
      vertex -3.87433 -0.994759 -10
      vertex -3.71911 -1.4725 20
      vertex -3.71911 -1.4725 -10
    endloop
  endfacet
  facet normal 0.998027 -0.0627883 0
    outer loop
      vertex -4 0 20
      vertex -3.96846 0.501332 -10
      vertex -3.96846 0.501332 20
    endloop
  endfacet
  facet normal 0.998027 -0.0627883 0
    outer loop
      vertex -3.96846 0.501332 -10
      vertex -4 0 20
      vertex -4 0 -10
    endloop
  endfacet
  facet normal 0.844329 -0.535825 0
    outer loop
      vertex -3.50523 1.92701 20
      vertex -3.23607 2.35114 -10
      vertex -3.23607 2.35114 20
    endloop
  endfacet
  facet normal 0.844329 -0.535825 0
    outer loop
      vertex -3.23607 2.35114 -10
      vertex -3.50523 1.92701 20
      vertex -3.50523 1.92701 -10
    endloop
  endfacet
  facet normal -0.904824 0.425786 0
    outer loop
      vertex 3.50523 -1.92701 -10
      vertex 3.71911 -1.4725 20
      vertex 3.71911 -1.4725 -10
    endloop
  endfacet
  facet normal -0.904824 0.425786 0
    outer loop
      vertex 3.71911 -1.4725 20
      vertex 3.50523 -1.92701 -10
      vertex 3.50523 -1.92701 20
    endloop
  endfacet
  facet normal -0.998027 0.0627883 0
    outer loop
      vertex 3.96846 -0.501332 -10
      vertex 4 0 20
      vertex 4 0 -10
    endloop
  endfacet
  facet normal -0.998027 0.0627883 0
    outer loop
      vertex 4 0 20
      vertex 3.96846 -0.501332 -10
      vertex 3.96846 -0.501332 20
    endloop
  endfacet
  facet normal -0.982286 -0.187389 0
    outer loop
      vertex 3.96846 0.501332 -10
      vertex 3.87433 0.994759 20
      vertex 3.87433 0.994759 -10
    endloop
  endfacet
  facet normal -0.982286 -0.187389 0
    outer loop
      vertex 3.87433 0.994759 20
      vertex 3.96846 0.501332 -10
      vertex 3.96846 0.501332 20
    endloop
  endfacet
  facet normal 0.951061 -0.309004 0
    outer loop
      vertex -3.87433 0.994759 20
      vertex -3.71911 1.4725 -10
      vertex -3.71911 1.4725 20
    endloop
  endfacet
  facet normal 0.951061 -0.309004 0
    outer loop
      vertex -3.71911 1.4725 -10
      vertex -3.87433 0.994759 20
      vertex -3.87433 0.994759 -10
    endloop
  endfacet
  facet normal 0.904824 -0.425786 0
    outer loop
      vertex -3.71911 1.4725 20
      vertex -3.50523 1.92701 -10
      vertex -3.50523 1.92701 20
    endloop
  endfacet
  facet normal 0.904824 -0.425786 0
    outer loop
      vertex -3.50523 1.92701 -10
      vertex -3.71911 1.4725 20
      vertex -3.71911 1.4725 -10
    endloop
  endfacet
  facet normal -0.844329 -0.535825 0
    outer loop
      vertex 3.50523 1.92701 -10
      vertex 3.23607 2.35114 20
      vertex 3.23607 2.35114 -10
    endloop
  endfacet
  facet normal -0.844329 -0.535825 0
    outer loop
      vertex 3.23607 2.35114 20
      vertex 3.50523 1.92701 -10
      vertex 3.50523 1.92701 20
    endloop
  endfacet
  facet normal -0.368128 0.929775 0
    outer loop
      vertex 1.70312 -3.61931 -10
      vertex 1.23607 -3.80423 20
      vertex 1.70312 -3.61931 20
    endloop
  endfacet
  facet normal -0.368128 0.929775 0
    outer loop
      vertex 1.23607 -3.80423 20
      vertex 1.70312 -3.61931 -10
      vertex 1.23607 -3.80423 -10
    endloop
  endfacet
  facet normal -0.951061 -0.309004 0
    outer loop
      vertex 3.87433 0.994759 -10
      vertex 3.71911 1.4725 20
      vertex 3.71911 1.4725 -10
    endloop
  endfacet
  facet normal -0.951061 -0.309004 0
    outer loop
      vertex 3.71911 1.4725 20
      vertex 3.87433 0.994759 -10
      vertex 3.87433 0.994759 20
    endloop
  endfacet
  facet normal -0.951061 0.309004 0
    outer loop
      vertex 3.71911 -1.4725 -10
      vertex 3.87433 -0.994759 20
      vertex 3.87433 -0.994759 -10
    endloop
  endfacet
  facet normal -0.951061 0.309004 0
    outer loop
      vertex 3.87433 -0.994759 20
      vertex 3.71911 -1.4725 -10
      vertex 3.71911 -1.4725 20
    endloop
  endfacet
  facet normal -0.587786 -0.809017 0
    outer loop
      vertex 2.14331 3.37731 -10
      vertex 2.5497 3.08205 20
      vertex 2.14331 3.37731 20
    endloop
  endfacet
  facet normal -0.587786 -0.809017 -0
    outer loop
      vertex 2.5497 3.08205 20
      vertex 2.14331 3.37731 -10
      vertex 2.5497 3.08205 -10
    endloop
  endfacet
  facet normal -0.844329 0.535825 0
    outer loop
      vertex 3.23607 -2.35114 -10
      vertex 3.50523 -1.92701 20
      vertex 3.50523 -1.92701 -10
    endloop
  endfacet
  facet normal -0.844329 0.535825 0
    outer loop
      vertex 3.50523 -1.92701 20
      vertex 3.23607 -2.35114 -10
      vertex 3.23607 -2.35114 20
    endloop
  endfacet
  facet normal 0.368128 -0.929775 0
    outer loop
      vertex -1.70312 3.61931 -10
      vertex -1.23607 3.80423 20
      vertex -1.70312 3.61931 20
    endloop
  endfacet
  facet normal 0.368128 -0.929775 0
    outer loop
      vertex -1.23607 3.80423 20
      vertex -1.70312 3.61931 -10
      vertex -1.23607 3.80423 -10
    endloop
  endfacet
  facet normal -0.481759 -0.876304 0
    outer loop
      vertex 1.70312 3.61931 -10
      vertex 2.14331 3.37731 20
      vertex 1.70312 3.61931 20
    endloop
  endfacet
  facet normal -0.481759 -0.876304 -0
    outer loop
      vertex 2.14331 3.37731 20
      vertex 1.70312 3.61931 -10
      vertex 2.14331 3.37731 -10
    endloop
  endfacet
  facet normal -0.248683 0.968585 0
    outer loop
      vertex 1.23607 -3.80423 -10
      vertex 0.749525 -3.92915 20
      vertex 1.23607 -3.80423 20
    endloop
  endfacet
  facet normal -0.248683 0.968585 0
    outer loop
      vertex 0.749525 -3.92915 20
      vertex 1.23607 -3.80423 -10
      vertex 0.749525 -3.92915 -10
    endloop
  endfacet
  facet normal 0.481759 -0.876304 0
    outer loop
      vertex -2.14331 3.37731 -10
      vertex -1.70312 3.61931 20
      vertex -2.14331 3.37731 20
    endloop
  endfacet
  facet normal 0.481759 -0.876304 0
    outer loop
      vertex -1.70312 3.61931 20
      vertex -2.14331 3.37731 -10
      vertex -1.70312 3.61931 -10
    endloop
  endfacet
  facet normal 0.982286 -0.187389 0
    outer loop
      vertex -3.96846 0.501332 20
      vertex -3.87433 0.994759 -10
      vertex -3.87433 0.994759 20
    endloop
  endfacet
  facet normal 0.982286 -0.187389 0
    outer loop
      vertex -3.87433 0.994759 -10
      vertex -3.96846 0.501332 20
      vertex -3.96846 0.501332 -10
    endloop
  endfacet
  facet normal -0.248683 -0.968585 0
    outer loop
      vertex 0.749525 3.92915 -10
      vertex 1.23607 3.80423 20
      vertex 0.749525 3.92915 20
    endloop
  endfacet
  facet normal -0.248683 -0.968585 -0
    outer loop
      vertex 1.23607 3.80423 20
      vertex 0.749525 3.92915 -10
      vertex 1.23607 3.80423 -10
    endloop
  endfacet
  facet normal 0.125337 -0.992114 0
    outer loop
      vertex -0.749525 3.92915 -10
      vertex -0.251162 3.99211 20
      vertex -0.749525 3.92915 20
    endloop
  endfacet
  facet normal 0.125337 -0.992114 0
    outer loop
      vertex -0.251162 3.99211 20
      vertex -0.749525 3.92915 -10
      vertex -0.251162 3.99211 -10
    endloop
  endfacet
  facet normal -0.770509 0.637429 0
    outer loop
      vertex 2.91587 -2.73819 -10
      vertex 3.23607 -2.35114 20
      vertex 3.23607 -2.35114 -10
    endloop
  endfacet
  facet normal -0.770509 0.637429 0
    outer loop
      vertex 3.23607 -2.35114 20
      vertex 2.91587 -2.73819 -10
      vertex 2.91587 -2.73819 20
    endloop
  endfacet
  facet normal 0.770509 -0.637429 0
    outer loop
      vertex -3.23607 2.35114 20
      vertex -2.91587 2.73819 -10
      vertex -2.91587 2.73819 20
    endloop
  endfacet
  facet normal 0.770509 -0.637429 0
    outer loop
      vertex -2.91587 2.73819 -10
      vertex -3.23607 2.35114 20
      vertex -3.23607 2.35114 -10
    endloop
  endfacet
  facet normal 0.248683 -0.968585 0
    outer loop
      vertex -1.23607 3.80423 -10
      vertex -0.749525 3.92915 20
      vertex -1.23607 3.80423 20
    endloop
  endfacet
  facet normal 0.248683 -0.968585 0
    outer loop
      vertex -0.749525 3.92915 20
      vertex -1.23607 3.80423 -10
      vertex -0.749525 3.92915 -10
    endloop
  endfacet
  facet normal -0.368128 -0.929775 0
    outer loop
      vertex 1.23607 3.80423 -10
      vertex 1.70312 3.61931 20
      vertex 1.23607 3.80423 20
    endloop
  endfacet
  facet normal -0.368128 -0.929775 -0
    outer loop
      vertex 1.70312 3.61931 20
      vertex 1.23607 3.80423 -10
      vertex 1.70312 3.61931 -10
    endloop
  endfacet
  facet normal 0.587786 -0.809017 0
    outer loop
      vertex -2.5497 3.08205 -10
      vertex -2.14331 3.37731 20
      vertex -2.5497 3.08205 20
    endloop
  endfacet
  facet normal 0.587786 -0.809017 0
    outer loop
      vertex -2.14331 3.37731 20
      vertex -2.5497 3.08205 -10
      vertex -2.14331 3.37731 -10
    endloop
  endfacet
  facet normal 0.684551 -0.728965 0
    outer loop
      vertex -2.91587 2.73819 -10
      vertex -2.5497 3.08205 20
      vertex -2.91587 2.73819 20
    endloop
  endfacet
  facet normal 0.684551 -0.728965 0
    outer loop
      vertex -2.5497 3.08205 20
      vertex -2.91587 2.73819 -10
      vertex -2.5497 3.08205 -10
    endloop
  endfacet
  facet normal -0.481759 0.876304 0
    outer loop
      vertex 2.14331 -3.37731 -10
      vertex 1.70312 -3.61931 20
      vertex 2.14331 -3.37731 20
    endloop
  endfacet
  facet normal -0.481759 0.876304 0
    outer loop
      vertex 1.70312 -3.61931 20
      vertex 2.14331 -3.37731 -10
      vertex 1.70312 -3.61931 -10
    endloop
  endfacet
  facet normal 0.481759 0.876304 -0
    outer loop
      vertex -1.70312 -3.61931 -10
      vertex -2.14331 -3.37731 20
      vertex -1.70312 -3.61931 20
    endloop
  endfacet
  facet normal 0.481759 0.876304 0
    outer loop
      vertex -2.14331 -3.37731 20
      vertex -1.70312 -3.61931 -10
      vertex -2.14331 -3.37731 -10
    endloop
  endfacet
  facet normal 0.125337 0.992114 -0
    outer loop
      vertex -0.251162 -3.99211 -10
      vertex -0.749525 -3.92915 20
      vertex -0.251162 -3.99211 20
    endloop
  endfacet
  facet normal 0.125337 0.992114 0
    outer loop
      vertex -0.749525 -3.92915 20
      vertex -0.251162 -3.99211 -10
      vertex -0.749525 -3.92915 -10
    endloop
  endfacet
  facet normal 0.368128 0.929775 -0
    outer loop
      vertex -1.23607 -3.80423 -10
      vertex -1.70312 -3.61931 20
      vertex -1.23607 -3.80423 20
    endloop
  endfacet
  facet normal 0.368128 0.929775 0
    outer loop
      vertex -1.70312 -3.61931 20
      vertex -1.23607 -3.80423 -10
      vertex -1.70312 -3.61931 -10
    endloop
  endfacet
  facet normal -0.587786 0.809017 0
    outer loop
      vertex 2.5497 -3.08205 -10
      vertex 2.14331 -3.37731 20
      vertex 2.5497 -3.08205 20
    endloop
  endfacet
  facet normal -0.587786 0.809017 0
    outer loop
      vertex 2.14331 -3.37731 20
      vertex 2.5497 -3.08205 -10
      vertex 2.14331 -3.37731 -10
    endloop
  endfacet
  facet normal -0.770509 -0.637429 0
    outer loop
      vertex 3.23607 2.35114 -10
      vertex 2.91587 2.73819 20
      vertex 2.91587 2.73819 -10
    endloop
  endfacet
  facet normal -0.770509 -0.637429 0
    outer loop
      vertex 2.91587 2.73819 20
      vertex 3.23607 2.35114 -10
      vertex 3.23607 2.35114 20
    endloop
  endfacet
  facet normal 0.248683 0.968585 -0
    outer loop
      vertex -0.749525 -3.92915 -10
      vertex -1.23607 -3.80423 20
      vertex -0.749525 -3.92915 20
    endloop
  endfacet
  facet normal 0.248683 0.968585 0
    outer loop
      vertex -1.23607 -3.80423 20
      vertex -0.749525 -3.92915 -10
      vertex -1.23607 -3.80423 -10
    endloop
  endfacet
  facet normal -0.125337 -0.992114 0
    outer loop
      vertex 0.251162 3.99211 -10
      vertex 0.749525 3.92915 20
      vertex 0.251162 3.99211 20
    endloop
  endfacet
  facet normal -0.125337 -0.992114 -0
    outer loop
      vertex 0.749525 3.92915 20
      vertex 0.251162 3.99211 -10
      vertex 0.749525 3.92915 -10
    endloop
  endfacet
  facet normal 0.998027 0.0627883 0
    outer loop
      vertex -3.96846 -0.501332 20
      vertex -4 0 -10
      vertex -4 0 20
    endloop
  endfacet
  facet normal 0.998027 0.0627883 0
    outer loop
      vertex -4 0 -10
      vertex -3.96846 -0.501332 20
      vertex -3.96846 -0.501332 -10
    endloop
  endfacet
  facet normal 0 -1 0
    outer loop
      vertex -0.251162 3.99211 -10
      vertex 0.251162 3.99211 20
      vertex -0.251162 3.99211 20
    endloop
  endfacet
  facet normal 0 -1 -0
    outer loop
      vertex 0.251162 3.99211 20
      vertex -0.251162 3.99211 -10
      vertex 0.251162 3.99211 -10
    endloop
  endfacet
  facet normal 0.844329 0.535825 0
    outer loop
      vertex -3.23607 -2.35114 20
      vertex -3.50523 -1.92701 -10
      vertex -3.50523 -1.92701 20
    endloop
  endfacet
  facet normal 0.844329 0.535825 0
    outer loop
      vertex -3.50523 -1.92701 -10
      vertex -3.23607 -2.35114 20
      vertex -3.23607 -2.35114 -10
    endloop
  endfacet
  facet normal 0.587786 0.809017 -0
    outer loop
      vertex -2.14331 -3.37731 -10
      vertex -2.5497 -3.08205 20
      vertex -2.14331 -3.37731 20
    endloop
  endfacet
  facet normal 0.587786 0.809017 0
    outer loop
      vertex -2.5497 -3.08205 20
      vertex -2.14331 -3.37731 -10
      vertex -2.5497 -3.08205 -10
    endloop
  endfacet
  facet normal 0.684551 0.728965 -0
    outer loop
      vertex -2.5497 -3.08205 -10
      vertex -2.91587 -2.73819 20
      vertex -2.5497 -3.08205 20
    endloop
  endfacet
  facet normal 0.684551 0.728965 0
    outer loop
      vertex -2.91587 -2.73819 20
      vertex -2.5497 -3.08205 -10
      vertex -2.91587 -2.73819 -10
    endloop
  endfacet
  facet normal 0.904824 0.425786 0
    outer loop
      vertex -3.50523 -1.92701 20
      vertex -3.71911 -1.4725 -10
      vertex -3.71911 -1.4725 20
    endloop
  endfacet
  facet normal 0.904824 0.425786 0
    outer loop
      vertex -3.71911 -1.4725 -10
      vertex -3.50523 -1.92701 20
      vertex -3.50523 -1.92701 -10
    endloop
  endfacet
endsolid OpenSCAD_Model
